<?xml version="1.0" standalone="no"?>
<!DOCTYPE svg PUBLIC "-//W3C//DTD SVG 1.1//EN" "http://www.w3.org/Graphics/SVG/1.1/DTD/svg11.dtd" >
<svg xmlns="http://www.w3.org/2000/svg" xmlns:xlink="http://www.w3.org/1999/xlink" version="1.1">
<metadata>
Created by FontForge 20170910 at Fri Dec 22 16:04:19 2017
 By Jimmy Wärting
Modern and elegant sans serif font family.
</metadata>
<defs>
<font id="Mont-ExtraLight" horiz-adv-x="0" >
  <font-face 
    font-family="Mont ExtraLight"
    font-weight="300"
    font-stretch="normal"
    units-per-em="1000"
    panose-1="0 0 4 0 0 0 0 0 0 0"
    ascent="800"
    descent="-200"
    x-height="540"
    cap-height="700"
    bbox="-800 -294.5 1121.25 968.55"
    underline-thickness="50"
    underline-position="-100"
    stemh="31"
    stemv="33"
    unicode-range="U+0020-25CA"
  />
<missing-glyph horiz-adv-x="461" 
d="M377.81 730.75v-921.5h-292.11v921.5h292.11zM306.859 669.01h-152.05v-30.4102h59.9004v-34.0996h-60.8203v-30.4102h152.97v30.4102h-60.8203v34.0996h60.8203v30.4102zM246.04 550.13h-92.1494v-95.8301h152.97v31.3301h-60.8203v64.5zM214.711 518.8v-33.1699
h-30.4102v33.1699h30.4102zM306.861 429.42h-152.971v-30.4102h60.8203v-34.0996h-60.8203v-30.4102h92.1504v64.5098h60.8203v30.4102zM306.86 374.13h-30.4102v-60.8203h-122.56v-31.3301h152.97v92.1504zM306.86 261.7l-92.1494 -0.000976562v-51.5996h31.3301v21.1904
h30.4102v-43.3096h-92.1504v73.7197h-30.4102v-104.13h152.97v104.13zM306.861 102.279h-152.97v-104.13h152.97v104.13zM276.451 71.8691v-43.3096h-92.1504v43.3096h92.1504zM306.861 -23.04h-152.97v-30.4102h64.5l-64.5 -43.3096v-30.4102h152.97v30.4102h-94
l64.5098 43.3096h29.4902v30.4102z" />
    <glyph glyph-name="f_f.liga" unicode="ff" horiz-adv-x="696" 
d="M682.5 539v-28.25h-192v-510.75h-32v510.75h-295.25v-510.75h-32v510.75h-117v28.25h117v42.5c0 125.25 47.75 173.5 174.5 173.5h49.25v-27.5h-45c-110.25 0 -147.5 -37 -147.5 -146.5v-42h296v42.5c0 125.25 47.75 173.5 174.5 173.5h49.25v-27.5h-45
c-110.25 0 -147.5 -37 -147.5 -146.5v-42h192.75z" />
    <glyph glyph-name="f_f_t.liga" unicode="fft" horiz-adv-x="1004" 
d="M921.25 30.25h68v-30.25h-70.75c-100.75 0 -161.75 62 -161.75 164.25v346.5h-266.25v-510.75h-32v510.75h-295.25v-510.75h-32v510.75h-117v28.25h117v42.5c0 125.25 47.75 173.5 174.5 173.5h49.25v-27.5h-45c-110.25 0 -147.5 -37 -147.5 -146.5v-42h296v42.5
c0 125.25 47.75 173.5 174.5 173.5h37v-27.5h-32.75c-110.25 0 -147.5 -37 -147.5 -146.5v-42h267v159.75h32v-159.75h196.25v-28.25h-196.25v-345.25c0 -85.25 48 -135.25 132.5 -135.25z" />
    <glyph glyph-name="f_t.liga" unicode="ft" horiz-adv-x="699" 
d="M616.25 30.25h68v-30.25h-70.75c-100.75 0 -161.75 61 -161.75 162.5v348.25h-288.5v-510.75h-32v510.75h-117v28.25h117v42.5c0 125.25 47.75 173.5 174.5 173.5h49.25v-27.5h-45c-110.25 0 -147.5 -37 -147.5 -146.5v-42h289.25v159.75h32v-159.75h197v-28.25h-197
v-347c0 -84.5 48 -133.5 132.5 -133.5z" />
    <glyph glyph-name="f_t_t.liga" unicode="ftt" horiz-adv-x="1052" 
d="M967.75 30.25h68v-30.25h-71c-100.5 0 -161.5 61 -161.5 162.5v348.25h-317v-347c0 -84.5 48 -133.5 132.5 -133.5h68v-30.25h-70.75c-100.75 0 -161.75 61 -161.75 162.5v348.25h-291v-510.75h-32v510.75h-117v28.25h117v45c0 125.25 47.75 173.5 174.5 173.5h49.25
v-27.5h-45c-110.25 0 -147.5 -37 -147.5 -146.5v-44.5h291.75v159.75h32v-159.75h317v159.75h32v-159.75h199.5v-28.25h-199.5v-347c0 -84.5 48 -133.5 132.5 -133.5z" />
    <glyph glyph-name="r_f.liga" unicode="rf" horiz-adv-x="761" 
d="M747.75 540v-28.75h-192v-511.25h-32v511.25h-117v28.75h117v41.5c0 125.25 47.75 173.5 174.5 173.5h49.25v-27.5h-45c-110.25 0 -147.5 -37 -147.5 -146.5v-41h192.75zM128.74 416.99c33.5996 75.75 100.58 123.76 191.76 123.76h46.5v-30.25h-48.5
c-112.75 -0.5 -188.25 -87.75 -188.25 -206.75v-303.75h-32v540h25.25z" />
    <glyph glyph-name="r_t.liga" unicode="rt" horiz-adv-x="754" 
d="M671.75 28.75h68v-30.5h-70.75c-100.5 0 -161.75 62 -161.75 164.25v348.25h-113.75v28.75h113.75v159.25h32v-159.25h196v-28.75h-196v-347c0 -85.25 48.25 -135 132.5 -135zM128.79 415.74c33.75 75.79 101 124.26 191.71 124.26h33.25v-30.25h-35.25
c-113.5 0 -188.25 -86.5 -188.25 -206.75v-303h-32v540h25.25z" />
    <glyph glyph-name="s_t.liga" unicode="st" horiz-adv-x="883" 
d="M800.75 30.25h68v-30.5h-70.75c-100.5 0 -161.75 62 -161.75 164.25v346.75h-124.5v28.25h124.5v159.75h32v-159.75h196v-28.25h-196v-345.5c0 -85.25 48.25 -135 132.5 -135zM255.5 298.75c94.5 -15.75 201.5 -35 201.5 -154.75c0 -93 -81.5 -154.5 -203.75 -154.5
c-121.5 0 -197.25 59.5 -205.75 157.5h31.5c8.5 -80.75 73 -127.25 175 -127.25c103 0 171.25 48.5 171.25 123.25c0 93.5 -88 110 -177 125c-93.5 16 -190 32.75 -190 138.75c0 85.75 77.5 143.75 191.5 143.75c114.75 0 187.75 -57.75 193 -151h-30.75
c-5.25 76.25 -65 121.5 -162.75 121.5c-96.25 0 -159.75 -45.5 -159.75 -113.5c0 -81 78 -94 166 -108.75z" />
    <glyph glyph-name="t_f.liga" unicode="tf" horiz-adv-x="753" 
d="M740 539v-28.25h-192v-510.75h-32v510.75h-325v-347c0 -84.5 48.25 -133.5 132.5 -133.5h60.5v-30.5h-63.25c-100.5 0 -161.75 61.25 -161.75 162.75v348.25h-147v28.25h147v159.75h32v-159.75h325v52.5c0 125.25 47.75 173.5 174.5 173.5h49.25v-27.5h-45
c-110.25 0 -147.5 -37 -147.5 -146.5v-52h192.75z" />
    <glyph glyph-name=".notdef" horiz-adv-x="461" 
d="M377.81 730.75v-921.5h-292.11v921.5h292.11zM306.859 669.01h-152.05v-30.4102h59.9004v-34.0996h-60.8203v-30.4102h152.97v30.4102h-60.8203v34.0996h60.8203v30.4102zM246.04 550.13h-92.1494v-95.8301h152.97v31.3301h-60.8203v64.5zM214.711 518.8v-33.1699
h-30.4102v33.1699h30.4102zM306.861 429.42h-152.971v-30.4102h60.8203v-34.0996h-60.8203v-30.4102h92.1504v64.5098h60.8203v30.4102zM306.86 374.13h-30.4102v-60.8203h-122.56v-31.3301h152.97v92.1504zM306.86 261.7l-92.1494 -0.000976562v-51.5996h31.3301v21.1904
h30.4102v-43.3096h-92.1504v73.7197h-30.4102v-104.13h152.97v104.13zM306.861 102.279h-152.97v-104.13h152.97v104.13zM276.451 71.8691v-43.3096h-92.1504v43.3096h92.1504zM306.861 -23.04h-152.97v-30.4102h64.5l-64.5 -43.3096v-30.4102h152.97v30.4102h-94
l64.5098 43.3096h29.4902v30.4102z" />
    <glyph glyph-name="A" unicode="A" horiz-adv-x="680" 
d="M619.75 0l-87.96 202.75h-385.31l-86.4805 -202.75h-35l297 700h28.25l305 -700h-35.5zM336.67 652.48l-177.39 -418.98h359.46z" />
    <glyph glyph-name="Aacute" unicode="&#xc1;" horiz-adv-x="680" 
d="M433 924.5l-93.25 -142h-28.5l86.75 142h35zM619.75 0l-87.96 202.75h-385.31l-86.4805 -202.75h-35l297 700h28.25l305 -700h-35.5zM336.67 652.48l-177.39 -418.98h359.46z" />
    <glyph glyph-name="Abreve" unicode="&#x102;" horiz-adv-x="680" 
d="M336.75 775.25c-85.75 0 -142.75 53.75 -142.75 149.25h27v-1.5c0 -80 46.75 -123.25 115.75 -123.25c69.75 0 115.25 43.25 115.25 123.25v1.5h27.5c0 -95.5 -57 -149.25 -142.75 -149.25zM619.75 0l-87.96 202.75h-385.31l-86.4805 -202.75h-35l297 700h28.25l305 -700
h-35.5zM336.67 652.48l-177.39 -418.98h359.46z" />
    <glyph glyph-name="Acircumflex" unicode="&#xc2;" horiz-adv-x="680" 
d="M336.09 904.07l-108.09 -121.57h-31.5l121 142h37.5l121.75 -142h-31.5zM619.75 0l-87.96 202.75h-385.31l-86.4805 -202.75h-35l297 700h28.25l305 -700h-35.5zM336.67 652.48l-177.39 -418.98h359.46z" />
    <glyph glyph-name="Adieresis" unicode="&#xc4;" horiz-adv-x="680" 
d="M210.75 818.5v55.75h48.5v-55.75h-48.5zM414 818.5v55.75h48.5v-55.75h-48.5zM619.75 0l-87.96 202.75h-385.31l-86.4805 -202.75h-35l297 700h28.25l305 -700h-35.5zM336.66 652.48l-177.39 -418.98h359.46z" />
    <glyph glyph-name="Agrave" unicode="&#xc0;" horiz-adv-x="680" 
d="M328.5 782.5l-93.25 142h35l86.75 -142h-28.5zM619.75 0l-87.96 202.75h-385.31l-86.4805 -202.75h-35l297 700h28.25l305 -700h-35.5zM336.67 652.48l-177.39 -418.98h359.46z" />
    <glyph glyph-name="Amacron" unicode="&#x100;" horiz-adv-x="680" 
d="M181.5 833.54v29.4004h313v-29.4004h-313zM619.75 0l-87.96 202.75h-385.31l-86.4805 -202.75h-35l297 700h28.25l305 -700h-35.5zM336.67 652.48l-177.39 -418.98h359.46z" />
    <glyph glyph-name="Aogonek" unicode="&#x104;" horiz-adv-x="680" 
d="M631.25 -199.5c15.75 0 30.75 2.24902 45 7.74902v-23.5c-16.25 -6 -34.25 -9 -51.25 -9c-64.25 0 -107.25 38 -107.25 92.75c0 54.0703 40.6504 108.511 99.0801 138.211l-85.04 196.04h-385.31l-86.4805 -202.75h-35l297 700h28.25l298.91 -686.04l8.08984 -13.96
c-67.75 -24 -112.75 -75.25 -112.75 -126.25c0 -44.25 34 -73.25 86.75 -73.25zM336.67 652.479l-177.39 -418.98h359.46z" />
    <glyph glyph-name="Aring" unicode="&#xc5;" horiz-adv-x="680" 
d="M336.41 764.35c-62.8203 0 -105.82 41.7002 -105.82 102.23c0 60.7695 43 101.97 105.82 101.97c62.5703 0 105.561 -41.2002 105.561 -101.97c0 -60.5303 -42.9902 -102.23 -105.561 -102.23zM336.41 787.659c48.25 0 81.0098 31.71 81.0098 78.9199
c0 47.4502 -32.7598 78.9199 -81.0098 78.9199c-48.5 0 -81.2695 -31.4697 -81.2695 -78.9199c0 -47.21 32.7695 -78.9199 81.2695 -78.9199zM619.75 -0.000976562l-87.96 202.75h-385.31l-86.4805 -202.75h-35l297 700h28.25l305 -700h-35.5zM336.67 652.479
l-177.39 -418.98h359.46z" />
    <glyph glyph-name="Atilde" unicode="&#xc3;" horiz-adv-x="680" 
d="M409.75 794.5c-33.5 0 -56.25 15.5 -89 53.25c-29.5 34.5 -46.75 47 -71 47c-35 0 -59.25 -32.75 -59.25 -83v-11h-23.25v11.75c0 64.5 31.75 107.5 82.25 107.5c33.75 0 56 -15.5 88.5 -54.25c27.75 -33 45.5 -46 71.5 -46c36 0 59 31.75 59 83v9h23.5v-9.5
c0 -64.75 -32.25 -107.75 -82.25 -107.75zM619.75 0l-87.96 202.75h-385.31l-86.4805 -202.75h-35l297 700h28.25l305 -700h-35.5zM336.67 652.48l-177.39 -418.98h359.46z" />
    <glyph glyph-name="AE" unicode="&#xc6;" horiz-adv-x="863" 
d="M460.75 31.75h356.25v-31.75h-389v181.25h-288.74l-111.01 -181.25h-38.75l429.5 700h387v-31.5h-345.25v-291.75h317.75v-31h-317.75v-314zM158.1 212h269.9v440.65z" />
    <glyph glyph-name="AEacute" unicode="&#x1fc;" horiz-adv-x="863" 
d="M572.75 924.5l-93.25 -142h-28.5l86.75 142h35zM460.75 31.75h356.25v-31.75h-389v181.25h-288.74l-111.01 -181.25h-38.75l429.5 700h387v-31.5h-345.25v-291.75h317.75v-31h-317.75v-314zM158.1 212h269.9v440.65z" />
    <glyph glyph-name="B" unicode="B" horiz-adv-x="644" 
d="M447.49 368.91c76.0303 -22.3496 131.01 -94.0596 131.01 -178.92c0 -105.25 -81.75 -190 -204.75 -190h-266.25v700h265.25c110.5 0 184.75 -74.75 184.75 -169.5c0 -73 -45.7002 -137.69 -110.01 -161.58zM379.489 667.74h-239.5v-283.25h244.75
c78.75 0 139.5 67.25 139.5 142.75c0 78.75 -64 140.5 -144.75 140.5zM380.739 32.4902c92.5 0 164.25 70 164.25 160.25c0 88.5 -71 159.5 -160.5 159.5h-244.5v-319.75h240.75z" />
    <glyph glyph-name="C" unicode="C" horiz-adv-x="778" 
d="M412 -10.25c-208.75 0 -356.75 150.25 -356.75 359.5s148.75 361 356.75 361c154 0 274.5 -84.5 322.5 -221h-34c-46.5 117.75 -152.5 188.75 -288.5 188.75c-188 0 -323.5 -137.25 -323.5 -328.75s134.75 -327.25 323.5 -327.25c139.75 0 248.25 75 294.5 201h33.25
c-47.25 -145 -170 -233.25 -327.75 -233.25z" />
    <glyph glyph-name="Cacute" unicode="&#x106;" horiz-adv-x="778" 
d="M380 782.5l86.75 142h35l-93.25 -142h-28.5zM412 -10.25c-208.75 0 -356.75 150.25 -356.75 359.5s148.75 361 356.75 361c154 0 274.5 -84.5 322.5 -221h-34c-46.5 117.75 -152.5 188.75 -288.5 188.75c-188 0 -323.5 -137.25 -323.5 -328.75
s134.75 -327.25 323.5 -327.25c139.75 0 248.25 75 294.5 201h33.25c-47.25 -145 -170 -233.25 -327.75 -233.25z" />
    <glyph glyph-name="Ccaron" unicode="&#x10c;" horiz-adv-x="778" 
d="M514 924.5h31.5l-121.75 -142h-37.5l-121 142h31.5l108.09 -121.57zM412 -10.25c-208.75 0 -356.75 150.25 -356.75 359.5s148.75 361 356.75 361c154 0 274.5 -84.5 322.5 -221h-34c-46.5 117.75 -152.5 188.75 -288.5 188.75c-188 0 -323.5 -137.25 -323.5 -328.75
s134.75 -327.25 323.5 -327.25c139.75 0 248.25 75 294.5 201h33.25c-47.25 -145 -170 -233.25 -327.75 -233.25z" />
    <glyph glyph-name="Ccedilla" unicode="&#xc7;" horiz-adv-x="778" 
d="M739.75 223c-46.8799 -143.86 -168.079 -231.851 -324.039 -233.23l-13.7402 -48.4697c57.71 -2.98047 100.02 -38.2803 100.02 -87.2998c0 -51 -46 -88 -108.75 -88h-62.75v23h62.5c48 0 81.75 26.75 81.75 65.25c0 37.5 -34.5 65.25 -83.5 65.25h-14.5l-4 5.75
l17.7598 65.04c-197.34 9.9502 -335.25 156.96 -335.25 358.96c0 209.25 148.75 361 356.75 361c154 0 274.5 -84.5 322.5 -221h-34c-46.5 117.75 -152.5 188.75 -288.5 188.75c-188 0 -323.5 -137.25 -323.5 -328.75s134.75 -327.25 323.5 -327.25
c139.75 0 248.25 75 294.5 201h33.25z" />
    <glyph glyph-name="Ccircumflex" unicode="&#x108;" horiz-adv-x="778" 
d="M545.5 782.5h-31.5l-109.16 121.57l-108.09 -121.57h-31.5l121 142h37.5zM412 -10.25c-208.75 0 -356.75 150.25 -356.75 359.5s148.75 361 356.75 361c154 0 274.5 -84.5 322.5 -221h-34c-46.5 117.75 -152.5 188.75 -288.5 188.75
c-188 0 -323.5 -137.25 -323.5 -328.75s134.75 -327.25 323.5 -327.25c139.75 0 248.25 75 294.5 201h33.25c-47.25 -145 -170 -233.25 -327.75 -233.25z" />
    <glyph glyph-name="Cdotaccent" unicode="&#x10a;" horiz-adv-x="778" 
d="M381.25 818.5v55.75h48.5v-55.75h-48.5zM412 -10.25c-208.75 0 -356.75 150.25 -356.75 359.5s148.75 361 356.75 361c154 0 274.5 -84.5 322.5 -221h-34c-46.5 117.75 -152.5 188.75 -288.5 188.75c-188 0 -323.5 -137.25 -323.5 -328.75s134.75 -327.25 323.5 -327.25
c139.75 0 248.25 75 294.5 201h33.25c-47.25 -145 -170 -233.25 -327.75 -233.25z" />
    <glyph glyph-name="D" unicode="D" horiz-adv-x="724" 
d="M313.75 700c206 0 355 -147 355 -349.25c0 -203 -149.75 -350.75 -355 -350.75h-206.25v700h206.25zM313 31.25c186.75 0 322.5 134.75 322.5 319.5c0 184 -135 318 -322.5 318h-172.75v-637.5h172.75z" />
    <glyph glyph-name="Eth" unicode="&#xd0;" horiz-adv-x="736" 
d="M325 700c206 0 355 -147 355 -349.25c0 -203 -149.75 -350.75 -355 -350.75h-206.25v335.75h-104.5v28.75h104.5v335.5h206.25zM324.25 31.25c186.75 0 322.5 134.75 322.5 319.5c0 184 -135 318 -322.5 318h-172.75v-304.25h252.75v-28.75h-252.75v-304.5h172.75z" />
    <glyph glyph-name="Dcaron" unicode="&#x10e;" horiz-adv-x="724" 
d="M315.75 782.5h-37.5l-121 142h31.5l108.09 -121.58l109.16 121.58h31.5zM313.75 700c206 0 355 -147 355 -349.25c0 -203 -149.75 -350.75 -355 -350.75h-206.25v700h206.25zM313 31.25c186.75 0 322.5 134.75 322.5 319.5c0 184 -135 318 -322.5 318h-172.75v-637.5
h172.75z" />
    <glyph glyph-name="Dcroat" unicode="&#x110;" horiz-adv-x="736" 
d="M325 700c206 0 355 -147 355 -349.25c0 -203 -149.75 -350.75 -355 -350.75h-206.25v335.75h-104.5v28.75h104.5v335.5h206.25zM324.25 31.25c186.75 0 322.5 134.75 322.5 319.5c0 184 -135 318 -322.5 318h-172.75v-304.25h252.75v-28.75h-252.75v-304.5h172.75z" />
    <glyph glyph-name="E" unicode="E" horiz-adv-x="542" 
d="M140.25 31.75h354.75v-31.75h-387.5v700h376.5v-31.5h-343.75v-287.25h317.75v-31h-317.75v-318.5z" />
    <glyph glyph-name="Eacute" unicode="&#xc9;" horiz-adv-x="542" 
d="M389 924.5l-93.25 -142h-28.5l86.75 142h35zM140.25 31.75h354.75v-31.75h-387.5v700h376.5v-31.5h-343.75v-287.25h317.75v-31h-317.75v-318.5z" />
    <glyph glyph-name="Ebreve" unicode="&#x114;" horiz-adv-x="542" 
d="M292.75 775.25c-85.75 0 -142.75 53.75 -142.75 149.25h27v-1.5c0 -80 46.75 -123.25 115.75 -123.25c69.75 0 115.25 43.25 115.25 123.25v1.5h27.5c0 -95.5 -57 -149.25 -142.75 -149.25zM140.25 31.75h354.75v-31.75h-387.5v700h376.5v-31.5h-343.75v-287.25h317.75
v-31h-317.75v-318.5z" />
    <glyph glyph-name="Ecaron" unicode="&#x11a;" horiz-adv-x="542" 
d="M311 782.5h-37.5l-121 142h31.5l108.09 -121.58l109.16 121.58h31.5zM140.25 31.75h354.75v-31.75h-387.5v700h376.5v-31.5h-343.75v-287.25h317.75v-31h-317.75v-318.5z" />
    <glyph glyph-name="Ecircumflex" unicode="&#xca;" horiz-adv-x="542" 
d="M292.09 904.07l-108.09 -121.57h-31.5l121 142h37.5l121.75 -142h-31.5zM140.25 31.75h354.75v-31.75h-387.5v700h376.5v-31.5h-343.75v-287.25h317.75v-31h-317.75v-318.5z" />
    <glyph glyph-name="Edieresis" unicode="&#xcb;" horiz-adv-x="542" 
d="M166.75 818.5v55.75h48.5v-55.75h-48.5zM370 818.5v55.75h48.5v-55.75h-48.5zM140.25 31.75h354.75v-31.75h-387.5v700h376.5v-31.5h-343.75v-287.25h317.75v-31h-317.75v-318.5z" />
    <glyph glyph-name="Edotaccent" unicode="&#x116;" horiz-adv-x="542" 
d="M268.5 818.5v55.75h48.5v-55.75h-48.5zM140.25 31.75h354.75v-31.75h-387.5v700h376.5v-31.5h-343.75v-287.25h317.75v-31h-317.75v-318.5z" />
    <glyph glyph-name="Egrave" unicode="&#xc8;" horiz-adv-x="542" 
d="M284.5 782.5l-93.25 142h35l86.75 -142h-28.5zM140.25 31.75h354.75v-31.75h-387.5v700h376.5v-31.5h-343.75v-287.25h317.75v-31h-317.75v-318.5z" />
    <glyph glyph-name="Emacron" unicode="&#x112;" horiz-adv-x="542" 
d="M137.5 833.54v29.4004h313v-29.4004h-313zM140.25 31.75h354.75v-31.75h-387.5v700h376.5v-31.5h-343.75v-287.25h317.75v-31h-317.75v-318.5z" />
    <glyph glyph-name="Eogonek" unicode="&#x118;" horiz-adv-x="542" 
d="M473.25 -199.5c15.75 0 30.75 2.25 45.5 7.75v-23c-16.25 -6.25 -34.5 -9.5 -51.75 -9.5c-64 0 -106.75 38 -106.75 92.75c0 51.1396 35.75 102.29 88.9404 131.5h-341.69v700h376.5v-31.5h-343.75v-287.25h317.75v-31h-317.75v-318.5h354.75v-31.75
c-62.75 -22.5 -108 -75.5 -108 -126c0 -44.5 34 -73.5 86.25 -73.5z" />
    <glyph glyph-name="F" unicode="F" horiz-adv-x="511" 
d="M480.25 668.5h-340v-300.75h314v-31h-314v-336.75h-32.75v700h372.75v-31.5z" />
    <glyph glyph-name="G" unicode="G" horiz-adv-x="800" 
d="M371.5 328.25h377.249c-7 -199.25 -148 -337.25 -343.5 -337.25c-205.25 0 -349.25 151.5 -349.25 358.25c0 207.25 148.5 359.5 348.75 359.5c163.75 0 302 -103 332.25 -246.25h-33.5c-30 125 -153.25 214 -298.25 214c-182.5 0 -316 -138 -316 -327.25
c0 -191.25 130.5 -326 316 -326c168.46 0 291.99 111.03 308.681 273.5h-342.43v31.5z" />
    <glyph glyph-name="Gbreve" unicode="&#x11e;" horiz-adv-x="800" 
d="M407.5 775.25c-85.75 0 -142.75 53.75 -142.75 149.25h27v-1.5c0 -80 46.75 -123.25 115.75 -123.25c69.75 0 115.25 43.25 115.25 123.25v1.5h27.5c0 -95.5 -57 -149.25 -142.75 -149.25zM371.5 328.25h377.249c-7 -199.25 -148 -337.25 -343.5 -337.25
c-205.25 0 -349.25 151.5 -349.25 358.25c0 207.25 148.5 359.5 348.75 359.5c163.75 0 302 -103 332.25 -246.25h-33.5c-30 125 -153.25 214 -298.25 214c-182.5 0 -316 -138 -316 -327.25c0 -191.25 130.5 -326 316 -326c168.46 0 291.99 111.03 308.681 273.5h-342.43
v31.5z" />
    <glyph glyph-name="Gcircumflex" unicode="&#x11c;" horiz-adv-x="800" 
d="M406.84 904.07l-108.09 -121.57h-31.5l121 142h37.5l121.75 -142h-31.5zM371.5 328.25h377.249c-7 -199.25 -148 -337.25 -343.5 -337.25c-205.25 0 -349.25 151.5 -349.25 358.25c0 207.25 148.5 359.5 348.75 359.5c163.75 0 302 -103 332.25 -246.25h-33.5
c-30 125 -153.25 214 -298.25 214c-182.5 0 -316 -138 -316 -327.25c0 -191.25 130.5 -326 316 -326c168.46 0 291.99 111.03 308.681 273.5h-342.43v31.5z" />
    <glyph glyph-name="Gdotaccent" unicode="&#x120;" horiz-adv-x="800" 
d="M431.75 874.25v-55.75h-48.5v55.75h48.5zM371.5 328.25h377.249c-7 -199.25 -148 -337.25 -343.5 -337.25c-205.25 0 -349.25 151.5 -349.25 358.25c0 207.25 148.5 359.5 348.75 359.5c163.75 0 302 -103 332.25 -246.25h-33.5c-30 125 -153.25 214 -298.25 214
c-182.5 0 -316 -138 -316 -327.25c0 -191.25 130.5 -326 316 -326c168.46 0 291.99 111.03 308.681 273.5h-342.43v31.5z" />
    <glyph glyph-name="H" unicode="H" horiz-adv-x="728" 
d="M588 700h32.75v-700h-32.75v349.25h-447.75v-349.25h-32.75v700h32.75v-319h447.75v319z" />
    <glyph glyph-name="Hbar" unicode="&#x126;" horiz-adv-x="740" 
d="M721.5 579.75v-27.25h-96v-552.5h-32.75v349.5h-447.75v-349.5h-32.75v552.5h-90.75v27.25h90.75v120.25h32.75v-120.25h447.75v120.25h32.75v-120.25h96zM592.75 380.75v171.75h-447.75v-171.75h447.75z" />
    <glyph glyph-name="Hcircumflex" unicode="&#x124;" horiz-adv-x="728" 
d="M370.34 904.07l-108.09 -121.57h-31.5l121 142h37.5l121.75 -142h-31.5zM588 700h32.75v-700h-32.75v349.25h-447.75v-349.25h-32.75v700h32.75v-319h447.75v319z" />
    <glyph glyph-name="I" unicode="I" horiz-adv-x="248" 
d="M107.5 0v700h32.75v-700h-32.75z" />
    <glyph glyph-name="IJ" unicode="&#x132;" horiz-adv-x="775" 
d="M107.5 0v700h32.75v-700h-32.75zM448.75 -10.5c-128 0 -229 100.75 -229 235.25v6.75h32.5v-5.75c0 -115.75 85.5 -204 196.5 -204c109.5 0 195 89 195 204v474.25h32.5v-475.25c0 -134.5 -100.25 -235.25 -227.5 -235.25z" />
    <glyph glyph-name="Iacute" unicode="&#xcd;" horiz-adv-x="248" 
d="M96.5 783.25l58.5 142h34l-64.5 -142h-28zM107.5 0v700h32.75v-700h-32.75z" />
    <glyph glyph-name="Ibreve" unicode="&#x12c;" horiz-adv-x="248" 
d="M124 775.25c-78.25 0 -130.5 54.5 -130.5 149.25h27v-1.5c0 -80 42 -123.25 103.5 -123.25c62.25 0 103 43.25 103 123.25v1.5h27.5c0 -94.75 -52.25 -149.25 -130.5 -149.25zM107.5 0v700h32.75v-700h-32.75z" />
    <glyph glyph-name="Icircumflex" unicode="&#xce;" horiz-adv-x="248" 
d="M141.5 924.5l104.5 -142h-30.5l-91.5 120.58l-91.5 -120.58h-30.25l104.5 142h34.75zM107.5 0v700h32.75v-700h-32.75z" />
    <glyph glyph-name="Idieresis" unicode="&#xcf;" horiz-adv-x="248" 
d="M29.5 818.5v55.75h46v-55.75h-46zM171.75 818.5v55.75h46v-55.75h-46zM107.5 0v700h32.75v-700h-32.75z" />
    <glyph glyph-name="Idotaccent" unicode="&#x130;" horiz-adv-x="248" 
d="M99.5 818.5v55.75h48.5v-55.75h-48.5zM107.5 0v700h32.75v-700h-32.75z" />
    <glyph glyph-name="Igrave" unicode="&#xcc;" horiz-adv-x="248" 
d="M132.5 782.5h-28.75l-63.5 142h34.5zM107.5 0v700h32.75v-700h-32.75z" />
    <glyph glyph-name="Imacron" unicode="&#x12a;" horiz-adv-x="248" 
d="M1.12988 833.98v30.5898h248.44v-30.5898h-248.44zM107.5 0v700h32.75v-700h-32.75z" />
    <glyph glyph-name="Iogonek" unicode="&#x12e;" horiz-adv-x="249" 
d="M125.75 -199.5c15.5 0 30.5 2.25 45.25 7.75v-23c-16.25 -6.25 -34.25 -9.5 -51.75 -9.5c-64 0 -106.5 38 -106.5 92.75c0 53.4902 38.5195 108.101 95.5 137.82v693.68h32.75v-700c-59.75 -25 -101.75 -76.5 -101.75 -126c0 -44.5 34 -73.5 86.5 -73.5z" />
    <glyph glyph-name="Itilde" unicode="&#x128;" horiz-adv-x="248" 
d="M202.5 794.5c-38 0 -62 27.25 -84.25 53.5c-20 23.5 -39.75 46.75 -68.25 46.75c-31.75 0 -54 -33.25 -54 -83v-11h-22.25v11.75c0 64.5 29.25 107.5 76 107.5c39.5 0 62.5 -27.25 84.5 -53.75c20 -23.75 38.75 -46.5 68 -46.5c32.75 0 53.75 32.25 53.75 83v9h22.5v-9.5
c0 -64.75 -29.75 -107.75 -76 -107.75zM107.5 0v700h32.75v-700h-32.75z" />
    <glyph glyph-name="J" unicode="J" horiz-adv-x="588" 
d="M261.25 -10.5c-128 0 -229 100.75 -229 235.25v6.75h32.5v-5.75c0 -115.75 85.5 -204 196.5 -204c109.5 0 195 89 195 204v474.25h32.5v-475.25c0 -134.5 -100.25 -235.25 -227.5 -235.25z" />
    <glyph glyph-name="Jcircumflex" unicode="&#x134;" horiz-adv-x="588" 
d="M489.5 924.5l104.5 -142h-30.5l-91.5 120.58l-91.5 -120.58h-30.25l104.5 142h34.75zM456.25 225.75v474.25h32.5v-475.25c0 -134.5 -100.25 -235.25 -227.5 -235.25c-128 0 -229 100.75 -229 235.25v6.75h32.5v-5.75c0 -115.75 85.5 -204 196.5 -204
c109.5 0 195 89 195 204z" />
    <glyph glyph-name="K" unicode="K" horiz-adv-x="604" 
d="M558.5 0l-299.2 348.5h-119.05v-348.5h-32.75v700h32.75v-320.25h119l273.5 320.25h42.25l-286.5 -335.42l312.5 -364.58h-42.5z" />
    <glyph glyph-name="L" unicode="L" horiz-adv-x="504" 
d="M140.25 31.25h342v-31.25h-374.75v700h32.75v-668.75z" />
    <glyph glyph-name="Lacute" unicode="&#x139;" horiz-adv-x="504" 
d="M234.75 924.5l-93.25 -142h-28.5l86.75 142h35zM140.25 31.25h342v-31.25h-374.75v700h32.75v-668.75z" />
    <glyph glyph-name="Lcaron" unicode="&#x13d;" horiz-adv-x="504" 
d="M381.5 630.25c16 9 24.5 29 24.5 51.75h-26.25v48.75h49.5v-44.75c0 -35.25 -16.25 -68.25 -47.75 -80.75v25zM140.25 31.25h342v-31.25h-374.75v700h32.75v-668.75z" />
    <glyph glyph-name="Ldot" unicode="&#x13f;" horiz-adv-x="506" 
d="M140.25 31.25h342v-31.25h-374.75v700h32.75v-668.75zM382.75 391v-62.5h-48.5v62.5h48.5z" />
    <glyph glyph-name="Lslash" unicode="&#x141;" horiz-adv-x="504" 
d="M140.25 31.25h342v-31.25h-374.75v272.11l-93 -50.1104v31l93 50.29v396.71h32.75v-379l260.25 140.75v-31.75l-260.25 -140.24v-258.51z" />
    <glyph glyph-name="M" unicode="M" horiz-adv-x="943" 
d="M890.25 0h-33.25l-112.05 637.2l-267.95 -605.45h-12.25l-267.24 604.69l-113.01 -636.44h-33.25l123.75 700h29l266.27 -608.07l267.98 608.07h29.5z" />
    <glyph glyph-name="N" unicode="N" horiz-adv-x="745" 
d="M605 700h32.25v-700h-28.25l-469.25 641.78v-641.78h-32.25v700h29.75l467.75 -640.49v640.49z" />
    <glyph glyph-name="Nacute" unicode="&#x143;" horiz-adv-x="745" 
d="M483 924.5l-93.25 -142h-28.5l86.75 142h35zM605 700h32.25v-700h-28.25l-469.25 641.78v-641.78h-32.25v700h29.75l467.75 -640.49v640.49z" />
    <glyph glyph-name="Ncaron" unicode="&#x147;" horiz-adv-x="745" 
d="M405 782.5h-37.5l-121 142h31.5l108.09 -121.58l109.16 121.58h31.5zM605 700h32.25v-700h-28.25l-469.25 641.78v-641.78h-32.25v700h29.75l467.75 -640.49v640.49z" />
    <glyph glyph-name="Eng" unicode="&#x14a;" horiz-adv-x="745" 
d="M431 -190v31h15.75c97 0 159.75 62.5 159.75 159.25l-466.75 642.5v-642.75h-32.25v700h29.75l467.75 -644v644h32.25v-697c0 -118.75 -74 -193 -192.5 -193h-13.75z" />
    <glyph glyph-name="Ntilde" unicode="&#xd1;" horiz-adv-x="745" 
d="M240.5 811.75v-11h-23.25v11.75c0 64.5 31.75 107.5 82.25 107.5c33.75 0 56 -15.5 88.5 -54.25c27.75 -33 45.5 -46 71.5 -46c36 0 59 31.75 59 83v9h23.5v-9.5c0 -64.75 -32.25 -107.75 -82.25 -107.75c-33.5 0 -56.25 15.5 -89 53.25c-29.5 34.5 -46.75 47 -71 47
c-35 0 -59.25 -32.75 -59.25 -83zM605 700h32.25v-700h-28.25l-469.25 641.78v-641.78h-32.25v700h29.75l467.75 -640.49v640.49z" />
    <glyph glyph-name="O" unicode="O" horiz-adv-x="833" 
d="M416.25 -10.5c-210.5 0 -361 155 -361 359.75c0 205.5 150.5 361.25 361 361.25s361 -155 361 -361.25c0 -205.5 -150.5 -359.75 -361 -359.75zM416.25 21.75c191 0 327.75 140.5 327.75 327.5c0 187.75 -136.75 329 -327.75 329s-327.75 -142.25 -327.75 -329
c0 -186 136.75 -327.5 327.75 -327.5z" />
    <glyph glyph-name="Oacute" unicode="&#xd3;" horiz-adv-x="833" 
d="M390.75 782.5l86.75 142h35l-93.25 -142h-28.5zM416.25 -10.5c-210.5 0 -361 155 -361 359.75c0 205.5 150.5 361.25 361 361.25s361 -155 361 -361.25c0 -205.5 -150.5 -359.75 -361 -359.75zM416.25 21.75c191 0 327.75 140.5 327.75 327.5
c0 187.75 -136.75 329 -327.75 329s-327.75 -142.25 -327.75 -329c0 -186 136.75 -327.5 327.75 -327.5z" />
    <glyph glyph-name="Obreve" unicode="&#x14e;" horiz-adv-x="833" 
d="M416.25 775.25c-85.75 0 -142.75 53.75 -142.75 149.25h27v-1.5c0 -80 46.75 -123.25 115.75 -123.25c69.75 0 115.25 43.25 115.25 123.25v1.5h27.5c0 -95.5 -57 -149.25 -142.75 -149.25zM416.25 -10.5c-210.5 0 -361 155 -361 359.75c0 205.5 150.5 361.25 361 361.25
s361 -155 361 -361.25c0 -205.5 -150.5 -359.75 -361 -359.75zM416.25 21.75c191 0 327.75 140.5 327.75 327.5c0 187.75 -136.75 329 -327.75 329s-327.75 -142.25 -327.75 -329c0 -186 136.75 -327.5 327.75 -327.5z" />
    <glyph glyph-name="Ocircumflex" unicode="&#xd4;" horiz-adv-x="833" 
d="M556.25 782.5h-31.5l-109.16 121.57l-108.09 -121.57h-31.5l121 142h37.5zM416.25 -10.5c-210.5 0 -361 155 -361 359.75c0 205.5 150.5 361.25 361 361.25s361 -155 361 -361.25c0 -205.5 -150.5 -359.75 -361 -359.75zM416.25 21.75c191 0 327.75 140.5 327.75 327.5
c0 187.75 -136.75 329 -327.75 329s-327.75 -142.25 -327.75 -329c0 -186 136.75 -327.5 327.75 -327.5z" />
    <glyph glyph-name="Odieresis" unicode="&#xd6;" horiz-adv-x="833" 
d="M290.25 818.5v55.75h48.5v-55.75h-48.5zM493.5 818.5v55.75h48.5v-55.75h-48.5zM416.25 -10.5c-210.5 0 -361 155 -361 359.75c0 205.5 150.5 361.25 361 361.25s361 -155 361 -361.25c0 -205.5 -150.5 -359.75 -361 -359.75zM416.25 21.75
c191 0 327.75 140.5 327.75 327.5c0 187.75 -136.75 329 -327.75 329s-327.75 -142.25 -327.75 -329c0 -186 136.75 -327.5 327.75 -327.5z" />
    <glyph glyph-name="Ograve" unicode="&#xd2;" horiz-adv-x="833" 
d="M408 782.5l-93.25 142h35l86.75 -142h-28.5zM416.25 -10.5c-210.5 0 -361 155 -361 359.75c0 205.5 150.5 361.25 361 361.25s361 -155 361 -361.25c0 -205.5 -150.5 -359.75 -361 -359.75zM416.25 21.75c191 0 327.75 140.5 327.75 327.5
c0 187.75 -136.75 329 -327.75 329s-327.75 -142.25 -327.75 -329c0 -186 136.75 -327.5 327.75 -327.5z" />
    <glyph glyph-name="Ohungarumlaut" unicode="&#x150;" horiz-adv-x="833" 
d="M316.5 782.5l76.75 142h32.25l-81.5 -142h-27.5zM468 782.5l81.75 142h33.25l-87.25 -142h-27.75zM416.25 -10.5c-210.5 0 -361 155 -361 359.75c0 205.5 150.5 361.25 361 361.25s361 -155 361 -361.25c0 -205.5 -150.5 -359.75 -361 -359.75zM416.25 21.75
c191 0 327.75 140.5 327.75 327.5c0 187.75 -136.75 329 -327.75 329s-327.75 -142.25 -327.75 -329c0 -186 136.75 -327.5 327.75 -327.5z" />
    <glyph glyph-name="Omacron" unicode="&#x14c;" horiz-adv-x="833" 
d="M261 833.54v29.4004h313v-29.4004h-313zM416.25 -10.5c-210.5 0 -361 155 -361 359.75c0 205.5 150.5 361.25 361 361.25s361 -155 361 -361.25c0 -205.5 -150.5 -359.75 -361 -359.75zM416.25 21.75c191 0 327.75 140.5 327.75 327.5c0 187.75 -136.75 329 -327.75 329
s-327.75 -142.25 -327.75 -329c0 -186 136.75 -327.5 327.75 -327.5z" />
    <glyph glyph-name="Oslash" unicode="&#xd8;" horiz-adv-x="834" 
d="M622.61 647.07c95.5898 -62.1797 156.391 -170.681 156.391 -298.82c0 -203.5 -153 -355.75 -358.5 -355.75c-61.9004 0 -118.471 13.8701 -168.32 38.6504l-55.9297 -93.1504h-36.25l64.5596 107.08c-103.2 61.3701 -169.561 172.47 -169.561 304.67
c0 203.75 154.75 358 360.25 358c66.7402 0 128.32 -16.3301 180.17 -45.5898l60.5801 99.8398h36.25zM88.251 349.999c0 -120.31 60.001 -221.399 153.221 -277.39l337.92 561.97c-47.0703 25.96 -103.36 40.9199 -164.141 40.9199c-186.25 0 -327 -140.75 -327 -325.5z
M420.002 24.749c186.25 0 325.501 138.499 325.501 323.499c0 116.65 -53.9102 214.011 -139.76 271.48l-336.73 -561.05c44.5195 -21.2998 95.4697 -33.9297 150.989 -33.9297z" />
    <glyph glyph-name="Oslashacute" unicode="&#x1fe;" horiz-adv-x="834" 
d="M512.25 924.5l-93.25 -142h-28.5l86.75 142h35zM622.61 647.07c95.5898 -62.1797 156.391 -170.681 156.391 -298.82c0 -203.5 -153 -355.75 -358.5 -355.75c-61.9004 0 -118.471 13.8701 -168.32 38.6504l-55.9297 -93.1504h-36.25l64.5596 107.08
c-103.2 61.3701 -169.561 172.47 -169.561 304.67c0 203.75 154.75 358 360.25 358c66.7402 0 128.32 -16.3301 180.17 -45.5898l60.5801 99.8398h36.25zM88.251 349.999c0 -120.31 60.001 -221.399 153.221 -277.39l337.92 561.97
c-47.0703 25.96 -103.36 40.9199 -164.141 40.9199c-186.25 0 -327 -140.75 -327 -325.5zM420.002 24.749c186.25 0 325.501 138.499 325.501 323.499c0 116.65 -53.9102 214.011 -139.76 271.48l-336.73 -561.05c44.5195 -21.2998 95.4697 -33.9297 150.989 -33.9297z" />
    <glyph glyph-name="Otilde" unicode="&#xd5;" horiz-adv-x="833" 
d="M489.25 794.5c-33.5 0 -56.25 15.5 -89 53.25c-29.5 34.5 -46.75 47 -71 47c-35 0 -59.25 -32.75 -59.25 -83v-11h-23.25v11.75c0 64.5 31.75 107.5 82.25 107.5c33.75 0 56 -15.5 88.5 -54.25c27.75 -33 45.5 -46 71.5 -46c36 0 59 31.75 59 83v9h23.5v-9.5
c0 -64.75 -32.25 -107.75 -82.25 -107.75zM416.25 -10.5c-210.5 0 -361 155 -361 359.75c0 205.5 150.5 361.25 361 361.25s361 -155 361 -361.25c0 -205.5 -150.5 -359.75 -361 -359.75zM416.25 21.75c191 0 327.75 140.5 327.75 327.5c0 187.75 -136.75 329 -327.75 329
s-327.75 -142.25 -327.75 -329c0 -186 136.75 -327.5 327.75 -327.5z" />
    <glyph glyph-name="OE" unicode="&#x152;" horiz-adv-x="978" 
d="M537.5 31.25h393.5v-31.25h-426.5v0.620117c-39.1299 -7.2002 -80.2197 -11.1201 -121.5 -11.1201c-184.5 0 -327 154.75 -327 359.75s141.5 361.25 327 361.25c41.6699 0 82.5996 -3.73047 121.5 -11.0303v0.530273h415.5v-31h-382.5v-300h356.5v-30.5h-356.5v-307.25z
M386 22c40.5703 0 80.4805 3.52051 118.5 9.32031v636.88c-39.9199 6.28027 -79.2598 10.0498 -119.25 10.0498c-167.75 0 -296 -142.25 -296 -329c0 -188.25 127.75 -327.25 296.75 -327.25z" />
    <glyph glyph-name="P" unicode="P" horiz-adv-x="599" 
d="M343.25 700c124.75 0 219.75 -90 219.75 -210.25c0 -120.75 -94 -211 -219.75 -211h-203v-278.75h-32.75v700h235.75zM342 310.75c107.75 0 187.75 76.5 187.75 179c0 101.75 -80 178.25 -187.75 178.25h-201.75v-357.25h201.75z" />
    <glyph glyph-name="Thorn" unicode="&#xde;" horiz-adv-x="613" 
d="M343.25 561.25c126 0 219.75 -89.5 219.75 -211.25c0 -122 -93 -211.25 -219.75 -211.25h-203v-138.75h-32.75v700h32.75v-138.75h203zM342 170.25c107.75 0 187.75 76.25 187.75 179.75s-80 179.75 -187.75 179.75h-201.75v-359.5h201.75z" />
    <glyph glyph-name="Q" unicode="Q" horiz-adv-x="833" 
d="M786.5 -102l-41 0.000976562l-131.61 145.33c-55.5898 -34.3496 -122.83 -53.8301 -197.64 -53.8301c-210.5 0 -361 155 -361 359.75c0 205.5 150.5 361.25 361 361.25s361 -155 361 -361.25c0 -120.98 -52.1602 -224.2 -138.01 -288.641zM416.25 21.751
c65.9902 0 125.5 16.7695 175.13 46.4297l-191.13 211.07h41l175.69 -194.02c78.9697 58.5898 127.06 153.13 127.06 264.02c0 187.75 -136.75 329 -327.75 329s-327.75 -142.25 -327.75 -329c0 -186 136.75 -327.5 327.75 -327.5z" />
    <glyph glyph-name="R" unicode="R" horiz-adv-x="633" 
d="M574.5 501.25c0 -104.97 -75.75 -183.76 -183.45 -195.88l182.7 -305.37h-37.25l-181.49 303.75h-214.76v-303.75h-32.75v700h254.25c123 0 212.75 -83.25 212.75 -198.75zM140.25 668.5v-333.25h220.25c106.25 0 180.75 70 180.75 166.25
c0 96.75 -75.25 167 -180.75 167h-220.25z" />
    <glyph glyph-name="Racute" unicode="&#x154;" horiz-adv-x="633" 
d="M391.75 924.5l-93.25 -142h-28.5l86.75 142h35zM574.5 501.25c0 -104.97 -75.75 -183.76 -183.45 -195.88l182.7 -305.37h-37.25l-181.49 303.75h-214.76v-303.75h-32.75v700h254.25c123 0 212.75 -83.25 212.75 -198.75zM140.25 668.5v-333.25h220.25
c106.25 0 180.75 70 180.75 166.25c0 96.75 -75.25 167 -180.75 167h-220.25z" />
    <glyph glyph-name="Rcaron" unicode="&#x158;" horiz-adv-x="633" 
d="M313.75 782.5h-37.5l-121 142h31.5l108.09 -121.58l109.16 121.58h31.5zM574.5 501.25c0 -104.97 -75.75 -183.76 -183.45 -195.88l182.7 -305.37h-37.25l-181.49 303.75h-214.76v-303.75h-32.75v700h254.25c123 0 212.75 -83.25 212.75 -198.75zM140.25 668.5v-333.25
h220.25c106.25 0 180.75 70 180.75 166.25c0 96.75 -75.25 167 -180.75 167h-220.25z" />
    <glyph glyph-name="S" unicode="S" horiz-adv-x="583" 
d="M298.25 -8.25c-147.5 0 -245.75 84.75 -245.75 214h33.25c0 -110.25 84.75 -181.75 212.25 -181.75c116.25 0 197.75 66.5 197.75 164.5c0 111 -98.25 132.25 -203 155.5c-108.75 23.75 -225 49.75 -225 179.5c0 112.25 88.75 184.75 225 184.75
c132 0 218 -77.25 218 -194.75h-32.5c0 99 -74.75 163 -186 163c-115.5 0 -191.75 -59.75 -191.75 -152c0 -106 99 -127.25 202 -149.75c110.75 -24.75 226.75 -51 226.75 -186c0 -119 -96.25 -197 -231 -197z" />
    <glyph glyph-name="Sacute" unicode="&#x15a;" horiz-adv-x="583" 
d="M261.75 782.5l86.75 142h35l-93.25 -142h-28.5zM298.25 -8.25c-147.5 0 -245.75 84.75 -245.75 214h33.25c0 -110.25 84.75 -181.75 212.25 -181.75c116.25 0 197.75 66.5 197.75 164.5c0 111 -98.25 132.25 -203 155.5c-108.75 23.75 -225 49.75 -225 179.5
c0 112.25 88.75 184.75 225 184.75c132 0 218 -77.25 218 -194.75h-32.5c0 99 -74.75 163 -186 163c-115.5 0 -191.75 -59.75 -191.75 -152c0 -106 99 -127.25 202 -149.75c110.75 -24.75 226.75 -51 226.75 -186c0 -119 -96.25 -197 -231 -197z" />
    <glyph glyph-name="Scaron" unicode="&#x160;" horiz-adv-x="583" 
d="M395.75 924.5h31.5l-121.75 -142h-37.5l-121 142h31.5l108.09 -121.58zM298.25 -8.25c-147.5 0 -245.75 84.75 -245.75 214h33.25c0 -110.25 84.75 -181.75 212.25 -181.75c116.25 0 197.75 66.5 197.75 164.5c0 111 -98.25 132.25 -203 155.5
c-108.75 23.75 -225 49.75 -225 179.5c0 112.25 88.75 184.75 225 184.75c132 0 218 -77.25 218 -194.75h-32.5c0 99 -74.75 163 -186 163c-115.5 0 -191.75 -59.75 -191.75 -152c0 -106 99 -127.25 202 -149.75c110.75 -24.75 226.75 -51 226.75 -186
c0 -119 -96.25 -197 -231 -197z" />
    <glyph glyph-name="Scedilla" unicode="&#x15e;" horiz-adv-x="583" 
d="M529.25 188.75c0 -115.46 -90.5996 -192.329 -219.06 -196.81l-14.71 -51.9102c57.71 -2.98047 100.02 -38.2803 100.02 -87.2803c0 -51 -46 -88 -108.75 -88h-62.75v23h62.5c48 0 81.75 26.75 81.75 65.25c0 37.5 -34.5 65.25 -83.5 65.25h-14.5l-4 5.75
l18.5596 67.9902c-140 5 -232.31 88.4697 -232.31 213.76h33.25c0 -110.25 84.75 -181.75 212.25 -181.75c116.25 0 197.75 66.5 197.75 164.5c0 111 -98.25 132.25 -203 155.5c-108.75 23.75 -225 49.75 -225 179.5c0 112.25 88.75 184.75 225 184.75
c132 0 218 -77.25 218 -194.75h-32.5c0 99 -74.75 163 -186 163c-115.5 0 -191.75 -59.75 -191.75 -152c0 -106 99 -127.25 202 -149.75c110.75 -24.75 226.75 -51 226.75 -186z" />
    <glyph glyph-name="Scircumflex" unicode="&#x15c;" horiz-adv-x="583" 
d="M427.25 782.5h-31.5l-109.16 121.57l-108.09 -121.57h-31.5l121 142h37.5zM298.25 -8.25c-147.5 0 -245.75 84.75 -245.75 214h33.25c0 -110.25 84.75 -181.75 212.25 -181.75c116.25 0 197.75 66.5 197.75 164.5c0 111 -98.25 132.25 -203 155.5
c-108.75 23.75 -225 49.75 -225 179.5c0 112.25 88.75 184.75 225 184.75c132 0 218 -77.25 218 -194.75h-32.5c0 99 -74.75 163 -186 163c-115.5 0 -191.75 -59.75 -191.75 -152c0 -106 99 -127.25 202 -149.75c110.75 -24.75 226.75 -51 226.75 -186
c0 -119 -96.25 -197 -231 -197z" />
    <glyph glyph-name="uni1E9E" unicode="&#x1e9e;" horiz-adv-x="651" 
d="M375.86 438.71c136.75 -5.79004 224.89 -89.7695 224.89 -214.96c0 -129.75 -95 -223.75 -248.5 -223.75h-88.5v32h88.5c129.5 0 215.25 76.75 215.25 191.75c0 112.25 -85 186.75 -213 186.75h-27.25v10.75l163.78 247h-154.78c-132.25 0 -204.5 -71.25 -204.5 -203.5
v-464.75h-32.75v467.25c0 148 84.75 232.75 233.5 232.75h210v-10.25z" />
    <glyph glyph-name="T" unicode="T" horiz-adv-x="533" 
d="M511 700v-31.25h-228.25v-668.75h-32.75v668.75h-228.25v31.25h489.25z" />
    <glyph glyph-name="Tbar" unicode="&#x166;" horiz-adv-x="533" 
d="M511 668.75h-228.25v-295h178.75v-29.75h-178.75v-344h-32.75v344h-178.5v29.75h178.5v295h-228.25v31.25h489.25v-31.25z" />
    <glyph glyph-name="Tcaron" unicode="&#x164;" horiz-adv-x="533" 
d="M284.75 782.5h-37.5l-121 142h31.5l108.09 -121.58l109.16 121.58h31.5zM511 700v-31.25h-228.25v-668.75h-32.75v668.75h-228.25v31.25h489.25z" />
    <glyph glyph-name="U" unicode="U" horiz-adv-x="720" 
d="M360 -9c-151.5 0 -262 111.5 -262 267v442h33v-440.25c0 -138.25 95.25 -236.5 229 -236.5c133.5 0 228.75 98.25 228.75 236.5v440.25h33v-442c0 -155.5 -110.5 -267 -261.75 -267z" />
    <glyph glyph-name="Uacute" unicode="&#xda;" horiz-adv-x="720" 
d="M334.5 782.5l86.75 142h35l-93.25 -142h-28.5zM360 -9c-151.5 0 -262 111.5 -262 267v442h33v-440.25c0 -138.25 95.25 -236.5 229 -236.5c133.5 0 228.75 98.25 228.75 236.5v440.25h33v-442c0 -155.5 -110.5 -267 -261.75 -267z" />
    <glyph glyph-name="Ubreve" unicode="&#x16c;" horiz-adv-x="720" 
d="M360 775.25c-85.75 0 -142.75 53.75 -142.75 149.25h27v-1.5c0 -80 46.75 -123.25 115.75 -123.25c69.75 0 115.25 43.25 115.25 123.25v1.5h27.5c0 -95.5 -57 -149.25 -142.75 -149.25zM360 -9c-151.5 0 -262 111.5 -262 267v442h33v-440.25
c0 -138.25 95.25 -236.5 229 -236.5c133.5 0 228.75 98.25 228.75 236.5v440.25h33v-442c0 -155.5 -110.5 -267 -261.75 -267z" />
    <glyph glyph-name="Ucircumflex" unicode="&#xdb;" horiz-adv-x="720" 
d="M500 782.5h-31.5l-109.16 121.57l-108.09 -121.57h-31.5l121 142h37.5zM360 -9c-151.5 0 -262 111.5 -262 267v442h33v-440.25c0 -138.25 95.25 -236.5 229 -236.5c133.5 0 228.75 98.25 228.75 236.5v440.25h33v-442c0 -155.5 -110.5 -267 -261.75 -267z" />
    <glyph glyph-name="Udieresis" unicode="&#xdc;" horiz-adv-x="720" 
d="M234 818.5v55.75h48.5v-55.75h-48.5zM437.25 818.5v55.75h48.5v-55.75h-48.5zM360 -9c-151.5 0 -262 111.5 -262 267v442h33v-440.25c0 -138.25 95.25 -236.5 229 -236.5c133.5 0 228.75 98.25 228.75 236.5v440.25h33v-442c0 -155.5 -110.5 -267 -261.75 -267z" />
    <glyph glyph-name="Ugrave" unicode="&#xd9;" horiz-adv-x="720" 
d="M351.75 782.5l-93.25 142h35l86.75 -142h-28.5zM360 -9c-151.5 0 -262 111.5 -262 267v442h33v-440.25c0 -138.25 95.25 -236.5 229 -236.5c133.5 0 228.75 98.25 228.75 236.5v440.25h33v-442c0 -155.5 -110.5 -267 -261.75 -267z" />
    <glyph glyph-name="Uhungarumlaut" unicode="&#x170;" horiz-adv-x="720" 
d="M260.25 782.5l76.75 142h32.25l-81.5 -142h-27.5zM411.75 782.5l81.75 142h33.25l-87.25 -142h-27.75zM360 -9c-151.5 0 -262 111.5 -262 267v442h33v-440.25c0 -138.25 95.25 -236.5 229 -236.5c133.5 0 228.75 98.25 228.75 236.5v440.25h33v-442
c0 -155.5 -110.5 -267 -261.75 -267z" />
    <glyph glyph-name="Umacron" unicode="&#x16a;" horiz-adv-x="720" 
d="M204.75 833.54v29.4004h313v-29.4004h-313zM360 -9c-151.5 0 -262 111.5 -262 267v442h33v-440.25c0 -138.25 95.25 -236.5 229 -236.5c133.5 0 228.75 98.25 228.75 236.5v440.25h33v-442c0 -155.5 -110.5 -267 -261.75 -267z" />
    <glyph glyph-name="Uogonek" unicode="&#x172;" horiz-adv-x="720" 
d="M588.75 700h32.75v-441.5c0 -133 -79 -224 -186.75 -256.5c-59 -17.75 -103.25 -77.25 -103.25 -127.75c0 -45.25 35 -74 87 -74c15.5 0 30.25 2.5 44.75 8v-23.25c-16.75 -6.25 -35.25 -9.25 -52.5 -9.25c-63.5 0 -108 37.25 -108 93.25
c0 43.4502 26.3896 91.3398 67.1699 123.02c-4.25977 -0.30957 -8.47949 -0.519531 -12.6699 -0.519531c-150.25 1 -259.25 112.25 -259.25 267v441.5h32.75v-440.5c0 -137.75 95.25 -235.5 229 -235.5s229 97.75 229 235.5v440.5z" />
    <glyph glyph-name="Uring" unicode="&#x16e;" horiz-adv-x="720" 
d="M359.66 764.35c-62.8203 0 -105.82 41.7002 -105.82 102.23c0 60.7695 43 101.97 105.82 101.97c62.5703 0 105.561 -41.2002 105.561 -101.97c0 -60.5303 -42.9902 -102.23 -105.561 -102.23zM359.66 787.659c48.25 0 81.0098 31.71 81.0098 78.9199
c0 47.4502 -32.7598 78.9199 -81.0098 78.9199c-48.5 0 -81.2695 -31.4697 -81.2695 -78.9199c0 -47.21 32.7695 -78.9199 81.2695 -78.9199zM360 -9.00098c-151.5 0 -262 111.5 -262 267v442h33v-440.25c0 -138.25 95.25 -236.5 229 -236.5
c133.5 0 228.75 98.25 228.75 236.5v440.25h33v-442c0 -155.5 -110.5 -267 -261.75 -267z" />
    <glyph glyph-name="Utilde" unicode="&#x168;" horiz-adv-x="720" 
d="M433 794.5c-33.5 0 -56.25 15.5 -89 53.25c-29.5 34.5 -46.75 47 -71 47c-35 0 -59.25 -32.75 -59.25 -83v-11h-23.25v11.75c0 64.5 31.75 107.5 82.25 107.5c33.75 0 56 -15.5 88.5 -54.25c27.75 -33 45.5 -46 71.5 -46c36 0 59 31.75 59 83v9h23.5v-9.5
c0 -64.75 -32.25 -107.75 -82.25 -107.75zM360 -9c-151.5 0 -262 111.5 -262 267v442h33v-440.25c0 -138.25 95.25 -236.5 229 -236.5c133.5 0 228.75 98.25 228.75 236.5v440.25h33v-442c0 -155.5 -110.5 -267 -261.75 -267z" />
    <glyph glyph-name="V" unicode="V" horiz-adv-x="665" 
d="M599 700h35.75l-286.75 -700h-28l-294 700h36l272.51 -649.23z" />
    <glyph glyph-name="W" unicode="W" horiz-adv-x="1014" 
d="M947.25 700h34.7598l-224.5 -700h-27l-223.84 605.64l-220.16 -605.64h-27l-229.5 700h35l208.91 -642.61l223.84 616.36h17l228 -616.48z" />
    <glyph glyph-name="Wacute" unicode="&#x1e82;" horiz-adv-x="1014" 
d="M602.5 924.5l-93.25 -142h-28.5l86.75 142h35zM947.25 700h34.7598l-224.5 -700h-27l-223.84 605.64l-220.16 -605.64h-27l-229.5 700h35l208.91 -642.61l223.84 616.36h17l228 -616.48z" />
    <glyph glyph-name="Wcircumflex" unicode="&#x174;" horiz-adv-x="1014" 
d="M505.59 904.07l-108.09 -121.57h-31.5l121 142h37.5l121.75 -142h-31.5zM947.25 700h34.7598l-224.5 -700h-27l-223.84 605.64l-220.16 -605.64h-27l-229.5 700h35l208.91 -642.61l223.84 616.36h17l228 -616.48z" />
    <glyph glyph-name="Wdieresis" unicode="&#x1e84;" horiz-adv-x="1014" 
d="M380.25 818.5v55.75h48.5v-55.75h-48.5zM583.5 818.5v55.75h48.5v-55.75h-48.5zM947.25 700h34.7598l-224.5 -700h-27l-223.83 605.64l-220.17 -605.64h-27l-229.5 700h35l208.91 -642.61l223.84 616.36h17l228 -616.48z" />
    <glyph glyph-name="Wgrave" unicode="&#x1e80;" horiz-adv-x="1014" 
d="M498 782.5l-93.25 142h35l86.75 -142h-28.5zM947.25 700h34.7598l-224.5 -700h-27l-223.84 605.64l-220.16 -605.64h-27l-229.5 700h35l208.91 -642.61l223.84 616.36h17l228 -616.48z" />
    <glyph glyph-name="X" unicode="X" horiz-adv-x="579" 
d="M566.75 0h-38.0098l-238.99 339.98l-239 -339.98h-38.25l256.88 365.86l-235.13 334.14h38l217.5 -309.27l217.75 309.27h38l-235.44 -335.15z" />
    <glyph glyph-name="Y" unicode="Y" horiz-adv-x="640" 
d="M606 700l-269.75 -423.48v-276.52h-33.5v275.91l-267 424.09h36.5l247.54 -391.98l249.71 391.98h36.5z" />
    <glyph glyph-name="Yacute" unicode="&#xdd;" horiz-adv-x="640" 
d="M417.5 924.5l-93.25 -142h-28.5l86.75 142h35zM606 700l-269.75 -423.48v-276.52h-33.5v275.91l-267 424.09h36.5l247.54 -391.98l249.71 391.98h36.5z" />
    <glyph glyph-name="Ycircumflex" unicode="&#x176;" horiz-adv-x="640" 
d="M320.59 904.07l-108.09 -121.57h-31.5l121 142h37.5l121.75 -142h-31.5zM606 700l-269.75 -423.48v-276.52h-33.5v275.91l-267 424.09h36.5l247.54 -391.98l249.71 391.98h36.5z" />
    <glyph glyph-name="Ydieresis" unicode="&#x178;" horiz-adv-x="640" 
d="M195.25 818.5v55.75h48.5v-55.75h-48.5zM398.5 818.5v55.75h48.5v-55.75h-48.5zM606 700l-269.75 -423.48v-276.52h-33.5v275.91l-267 424.09h36.5l247.54 -391.98l249.71 391.98h36.5z" />
    <glyph glyph-name="Ygrave" unicode="&#x1ef2;" horiz-adv-x="640" 
d="M313 782.5l-93.25 142h35l86.75 -142h-28.5zM606 700l-269.75 -423.48v-276.52h-33.5v275.91l-267 424.09h36.5l247.54 -391.98l249.71 391.98h36.5z" />
    <glyph glyph-name="Z" unicode="Z" horiz-adv-x="538" 
d="M75.5703 31.25h443.93v-31.25h-495v8.5l425.83 660.25h-411.33v31.25h463.75v-7.5z" />
    <glyph glyph-name="Zacute" unicode="&#x179;" horiz-adv-x="538" 
d="M379.75 924.5l-93.25 -142h-28.5l86.75 142h35zM75.5703 31.25h443.93v-31.25h-495v8.5l425.83 660.25h-411.33v31.25h463.75v-7.5z" />
    <glyph glyph-name="Zcaron" unicode="&#x17d;" horiz-adv-x="538" 
d="M301.75 782.5h-37.5l-121 142h31.5l108.09 -121.58l109.16 121.58h31.5zM75.5703 31.25h443.93v-31.25h-495v8.5l425.83 660.25h-411.33v31.25h463.75v-7.5z" />
    <glyph glyph-name="Zdotaccent" unicode="&#x17b;" horiz-adv-x="538" 
d="M307.75 874.25v-55.75h-48.5v55.75h48.5zM75.5703 31.25h443.93v-31.25h-495v8.5l425.83 660.25h-411.33v31.25h463.75v-7.5z" />
    <glyph glyph-name="uni0122" unicode="&#x122;" horiz-adv-x="800" 
d="M371.5 328.25h377.249c-7 -199.25 -148 -337.25 -343.5 -337.25c-205.25 0 -349.25 151.5 -349.25 358.25c0 207.25 148.5 359.5 348.75 359.5c163.75 0 302 -103 332.25 -246.25h-33.5c-30 125 -153.25 214 -298.25 214c-182.5 0 -316 -138 -316 -327.25
c0 -191.25 130.5 -326 316 -326c168.46 0 291.99 111.03 308.681 273.5h-342.43v31.5zM382.999 -117.75v48.75h49.5v-44.75c0 -39.75 -17 -69 -43.25 -82.25l-5.25 19c18.25 12 28.25 31.25 28.25 59.25h-29.25z" />
    <glyph glyph-name="uni0136" unicode="&#x136;" horiz-adv-x="604" 
d="M288.5 364.58l312.5 -364.58h-42.5l-299.2 348.5h-119.05v-348.5h-32.75v700h32.75v-320.25h119l273.5 320.25h42.25zM313.5 -117.75v48.75h49.5v-44.75c0 -39.75 -17 -69 -43.25 -82.25l-5.25 19c18.25 12 28.25 31.25 28.25 59.25h-29.25z" />
    <glyph glyph-name="uni013B" unicode="&#x13b;" horiz-adv-x="504" 
d="M140.25 31.25h342v-31.25h-374.75v700h32.75v-668.75zM256.25 -117.75v48.75h49.5v-44.75c0 -39.75 -17 -69 -43.25 -82.25l-5.25 19c18.25 12 28.25 31.25 28.25 59.25h-29.25z" />
    <glyph glyph-name="uni0145" unicode="&#x145;" horiz-adv-x="745" 
d="M605 700h32.25v-700h-28.25l-469.25 641.78v-641.78h-32.25v700h29.75l467.75 -640.49v640.49zM340.5 -117.75v48.75h49.5v-44.75c0 -39.75 -17 -69 -43.25 -82.25l-5.25 19c18.25 12 28.25 31.25 28.25 59.25h-29.25z" />
    <glyph glyph-name="uni0156" unicode="&#x156;" horiz-adv-x="633" 
d="M574.5 501.25c0 -104.97 -75.75 -183.76 -183.45 -195.88l182.7 -305.37h-37.25l-181.49 303.75h-214.76v-303.75h-32.75v700h254.25c123 0 212.75 -83.25 212.75 -198.75zM140.25 668.5v-333.25h220.25c106.25 0 180.75 70 180.75 166.25
c0 96.75 -75.25 167 -180.75 167h-220.25zM301.5 -117.75v48.75h49.5v-44.75c0 -39.75 -17 -69 -43.25 -82.25l-5.25 19c18.25 12 28.25 31.25 28.25 59.25h-29.25z" />
    <glyph glyph-name="uni0162" unicode="&#x162;" horiz-adv-x="533" 
d="M282.75 0h-4.33984l-16.5996 -58.5703c58.4297 -2.21973 100.189 -38.7295 100.189 -87.4297c0 -51 -46 -88 -108.75 -88h-62.75v23h62.5c48 0 81.75 27.5 81.75 65.25c0 37.5 -34.5 65.25 -83.5 65.25h-14.25l-4.5 5.75l20.6299 74.75h-3.12988v668.75h-228.25v31.25
h489.25v-31.25h-228.25v-668.75z" />
    <glyph glyph-name="uni0218" unicode="&#x218;" horiz-adv-x="583" 
d="M298.25 -8.25c-147.5 0 -245.75 84.75 -245.75 214h33.25c0 -110.25 84.75 -181.75 212.25 -181.75c116.25 0 197.75 66.5 197.75 164.5c0 111 -98.25 132.25 -203 155.5c-108.75 23.75 -225 49.75 -225 179.5c0 112.25 88.75 184.75 225 184.75
c132 0 218 -77.25 218 -194.75h-32.5c0 99 -74.75 163 -186 163c-115.5 0 -191.75 -59.75 -191.75 -152c0 -106 99 -127.25 202 -149.75c110.75 -24.75 226.75 -51 226.75 -186c0 -119 -96.25 -197 -231 -197zM282.5 -197.25l-5.25 19c18.25 12 28.25 31.25 28.25 59.25
h-29.25v48.75h49.5v-44.75c0 -39.75 -17 -69 -43.25 -82.25z" />
    <glyph glyph-name="uni021A" unicode="&#x21a;" horiz-adv-x="533" 
d="M21.75 700h489.25v-31.25h-228.25v-668.75h-32.75v668.75h-228.25v31.25zM241.25 -117.75v48.75h49.5v-44.75c0 -39.75 -17 -69 -43.25 -82.25l-5.25 19c18.25 12 28.25 31.25 28.25 59.25h-29.25z" />
    <glyph glyph-name="K.ss01" horiz-adv-x="591" 
d="M107.5 0v700h32.75v-700h-32.75zM221.92 364.22l369.83 -364.22h-45l-366.75 360.5v7.25l341.25 332.25h43.75z" />
    <glyph glyph-name="a" unicode="a" horiz-adv-x="702" 
d="M576.5 540l27.2402 -0.0107422v-540h-28l-3.54004 140.98c-43.2803 -91.3496 -133.311 -151.479 -246.45 -151.479c-157 0 -275.5 121 -275.5 280.5c0 159.75 118.5 280.5 275.5 280.5c113.24 0 203.34 -60.1104 246.58 -151.62zM327.49 20.7393
c141 0 243.75 105.25 243.75 249.25s-102.75 249.25 -243.75 249.25c-139.5 0 -244.75 -107.75 -244.75 -249.25c0 -142.25 105.25 -249.25 244.75 -249.25z" />
    <glyph glyph-name="aacute" unicode="&#xe1;" horiz-adv-x="702" 
d="M412.25 758.75l-84.5 -152h-28.5l78 152h35zM576.5 540l27.2402 -0.0107422v-540h-28l-3.54004 140.98c-43.2803 -91.3496 -133.311 -151.479 -246.45 -151.479c-157 0 -275.5 121 -275.5 280.5c0 159.75 118.5 280.5 275.5 280.5
c113.24 0 203.34 -60.1104 246.58 -151.62zM327.49 20.7393c141 0 243.75 105.25 243.75 249.25s-102.75 249.25 -243.75 249.25c-139.5 0 -244.75 -107.75 -244.75 -249.25c0 -142.25 105.25 -249.25 244.75 -249.25z" />
    <glyph glyph-name="abreve" unicode="&#x103;" horiz-adv-x="702" 
d="M332.25 601c-86.5 0 -144 57 -144 157.75h27v-1.5c0 -85.25 47.25 -131.75 117 -131.75c70.5 0 116.5 46.5 116.5 131.75v1.5h27.5c0 -100.75 -57.5 -157.75 -144 -157.75zM576.5 540l27.2402 -0.0107422v-540h-28l-3.54004 140.98
c-43.2803 -91.3496 -133.311 -151.479 -246.45 -151.479c-157 0 -275.5 121 -275.5 280.5c0 159.75 118.5 280.5 275.5 280.5c113.24 0 203.34 -60.1104 246.58 -151.62zM327.49 20.7393c141 0 243.75 105.25 243.75 249.25s-102.75 249.25 -243.75 249.25
c-139.5 0 -244.75 -107.75 -244.75 -249.25c0 -142.25 105.25 -249.25 244.75 -249.25z" />
    <glyph glyph-name="acircumflex" unicode="&#xe2;" horiz-adv-x="702" 
d="M332.07 736.91l-108.32 -130.16h-31.5l121 152h37.5l122 -152h-31.5zM576.5 540l27.2402 -0.0107422v-540h-28l-3.54004 140.98c-43.2803 -91.3496 -133.311 -151.479 -246.45 -151.479c-157 0 -275.5 121 -275.5 280.5c0 159.75 118.5 280.5 275.5 280.5
c113.24 0 203.34 -60.1104 246.58 -151.62zM327.49 20.7393c141 0 243.75 105.25 243.75 249.25s-102.75 249.25 -243.75 249.25c-139.5 0 -244.75 -107.75 -244.75 -249.25c0 -142.25 105.25 -249.25 244.75 -249.25z" />
    <glyph glyph-name="adieresis" unicode="&#xe4;" horiz-adv-x="702" 
d="M272.75 715.75v-55.75h-48.5v55.75h48.5zM440 715.75v-55.75h-48.5v55.75h48.5zM576.5 540l27.2402 -0.0107422v-540h-28l-3.54004 140.98c-43.2803 -91.3496 -133.311 -151.479 -246.45 -151.479c-157 0 -275.5 121 -275.5 280.5c0 159.75 118.5 280.5 275.5 280.5
c113.24 0 203.34 -60.1104 246.58 -151.62zM327.49 20.7393c141 0 243.75 105.25 243.75 249.25s-102.75 249.25 -243.75 249.25c-139.5 0 -244.75 -107.75 -244.75 -249.25c0 -142.25 105.25 -249.25 244.75 -249.25z" />
    <glyph glyph-name="agrave" unicode="&#xe0;" horiz-adv-x="702" 
d="M353.75 606.75h-28.5l-84.5 152h35zM576.5 540l27.2402 -0.0107422v-540h-28l-3.54004 140.98c-43.2803 -91.3496 -133.311 -151.479 -246.45 -151.479c-157 0 -275.5 121 -275.5 280.5c0 159.75 118.5 280.5 275.5 280.5c113.24 0 203.34 -60.1104 246.58 -151.62z
M327.49 20.7393c141 0 243.75 105.25 243.75 249.25s-102.75 249.25 -243.75 249.25c-139.5 0 -244.75 -107.75 -244.75 -249.25c0 -142.25 105.25 -249.25 244.75 -249.25z" />
    <glyph glyph-name="amacron" unicode="&#x101;" horiz-adv-x="702" 
d="M488.25 703v-27.25h-313v27.25h313zM576.5 540l27.2402 -0.0107422v-540h-28l-3.54004 140.98c-43.2803 -91.3496 -133.311 -151.479 -246.45 -151.479c-157 0 -275.5 121 -275.5 280.5c0 159.75 118.5 280.5 275.5 280.5c113.24 0 203.34 -60.1104 246.58 -151.62z
M327.49 20.7393c141 0 243.75 105.25 243.75 249.25s-102.75 249.25 -243.75 249.25c-139.5 0 -244.75 -107.75 -244.75 -249.25c0 -142.25 105.25 -249.25 244.75 -249.25z" />
    <glyph glyph-name="aogonek" unicode="&#x105;" horiz-adv-x="702" 
d="M583.75 -199.5c15.75 0 30.5 2.25 45.5 7.75v-23c-16.5 -6.5 -34.75 -9.5 -51.75 -9.5c-63 0 -106.75 37.25 -106.75 92.75c0 57.6699 42.4404 112.16 104.71 143l-3.25977 129.48c-43.2803 -91.3604 -133.311 -151.48 -246.45 -151.48c-157 0 -275.5 121 -275.5 280.5
c0 159.75 118.5 280.5 275.5 280.5c113.24 0 203.34 -60.1201 246.57 -151.63l4.17969 141.13h27.25v-540c-62.25 -23.75 -106.25 -76 -106.25 -126c0 -45 34.5 -73.5 86.25 -73.5zM327.5 20.75c141 0 243.75 105.25 243.75 249.25s-102.75 249.25 -243.75 249.25
c-139.5 0 -244.75 -107.75 -244.75 -249.25c0 -142.25 105.25 -249.25 244.75 -249.25z" />
    <glyph glyph-name="aring" unicode="&#xe5;" horiz-adv-x="702" 
d="M332.25 594.25c-59 0 -99.5 39.25 -99.5 96.25c0 57.25 40.5 96.25 99.5 96.25s99.5 -39 99.5 -96.25c0 -57 -40.5 -96.25 -99.5 -96.25zM332.25 765c-45.5 0 -76.5 -29.75 -76.5 -74.5c0 -44.5 31 -74.25 76.5 -74.25s76.5 29.75 76.5 74.25
c0 44.75 -31 74.5 -76.5 74.5zM576.5 540l27.2402 -0.0107422v-540h-28l-3.54004 140.98c-43.2803 -91.3496 -133.311 -151.479 -246.45 -151.479c-157 0 -275.5 121 -275.5 280.5c0 159.75 118.5 280.5 275.5 280.5c113.24 0 203.34 -60.1104 246.58 -151.62z
M327.49 20.7393c141 0 243.75 105.25 243.75 249.25s-102.75 249.25 -243.75 249.25c-139.5 0 -244.75 -107.75 -244.75 -249.25c0 -142.25 105.25 -249.25 244.75 -249.25z" />
    <glyph glyph-name="atilde" unicode="&#xe3;" horiz-adv-x="702" 
d="M188.25 637.5v-11h-23v11.5c0 64.25 31.75 107 81.75 107c33.75 0 56.25 -15.5 88.5 -54.5c27.5 -32.75 45 -45.5 70.75 -45.5c35.75 0 58.75 32.25 58.75 82.75v9h23.25v-9.5c0 -64.25 -32 -107 -81.75 -107c-33 0 -55.5 15.25 -88 52.75
c-29.75 34.5 -46.75 47 -71.25 47c-34.75 0 -59 -33 -59 -82.5zM576.5 540l27.2402 -0.0107422v-540h-28l-3.54004 140.98c-43.2803 -91.3496 -133.311 -151.479 -246.45 -151.479c-157 0 -275.5 121 -275.5 280.5c0 159.75 118.5 280.5 275.5 280.5
c113.24 0 203.34 -60.1104 246.58 -151.62zM327.49 20.7393c141 0 243.75 105.25 243.75 249.25s-102.75 249.25 -243.75 249.25c-139.5 0 -244.75 -107.75 -244.75 -249.25c0 -142.25 105.25 -249.25 244.75 -249.25z" />
    <glyph glyph-name="ae" unicode="&#xe6;" horiz-adv-x="1152" 
d="M1105 273.5c0 -4.5 -0.249023 -9.50098 -0.499023 -14.001h-504.32c4.87988 -137.19 105.22 -238.25 239.319 -238.25c95 0 171.25 49 214.5 132h34c-51 -106 -138 -163.75 -248.5 -163.75c-108.11 0 -197.681 61.1299 -240.541 153.59l-1.95996 -143.59h-25.75
l-1.71973 137.75c-43.71 -89.1504 -132.26 -147.5 -242.779 -147.5c-157.5 0 -276.5 121 -276.5 280.25s118.75 280.25 276.5 280.25c110.56 0 199.13 -58.3896 242.82 -147.6l1.92969 137.85h25.75l1.71973 -144.1c42.8604 92.1104 132.431 153.101 240.53 153.101
c153.5 0 265.5 -119.75 265.5 -276zM326.751 20.999c138.75 0 243.25 110 243.25 249c0 144.25 -102.25 249 -243.25 249c-139.25 0 -244 -107.25 -244 -249c0 -142.5 104.75 -249 244 -249zM839.501 518.999c-130.93 0 -230 -96.6797 -238.86 -229.5h473.16
c-5.17969 136.2 -106.97 229.5 -234.3 229.5z" />
    <glyph glyph-name="aeacute" unicode="&#x1fd;" horiz-adv-x="1152" 
d="M665 758.75l-84.5 -152h-28.5l78 152h35zM1105 273.5c0 -4.5 -0.249023 -9.50098 -0.499023 -14.001h-504.32c4.87988 -137.19 105.22 -238.25 239.319 -238.25c95 0 171.25 49 214.5 132h34c-51 -106 -138 -163.75 -248.5 -163.75
c-108.11 0 -197.681 61.1299 -240.541 153.59l-1.95996 -143.59h-25.75l-1.71973 137.75c-43.71 -89.1504 -132.26 -147.5 -242.779 -147.5c-157.5 0 -276.5 121 -276.5 280.25s118.75 280.25 276.5 280.25c110.56 0 199.13 -58.3896 242.82 -147.6l1.92969 137.85h25.75
l1.71973 -144.1c42.8604 92.1104 132.431 153.101 240.53 153.101c153.5 0 265.5 -119.75 265.5 -276zM326.751 20.999c138.75 0 243.25 110 243.25 249c0 144.25 -102.25 249 -243.25 249c-139.25 0 -244 -107.25 -244 -249c0 -142.5 104.75 -249 244 -249z
M839.501 518.999c-130.93 0 -230 -96.6797 -238.86 -229.5h473.16c-5.17969 136.2 -106.97 229.5 -234.3 229.5z" />
    <glyph glyph-name="b" unicode="b" horiz-adv-x="701" 
d="M375.25 550.5c160.75 0 274.51 -120.75 274.51 -280.5c0 -159.5 -113.75 -280.5 -274.5 -280.5c-109.99 0 -200.9 59.2002 -245.61 149.36l-4.63965 -138.86h-26.75v730.75h32v-328.28c44.9199 89.4902 135.5 148.03 244.99 148.03zM373.51 20.75
c141 0 243.75 105.25 243.75 249.25s-102.75 249.25 -243.75 249.25c-139.5 0 -244.75 -107 -244.75 -249.25c0 -141.25 105.25 -249.25 244.75 -249.25z" />
    <glyph glyph-name="c" unicode="c" horiz-adv-x="619" 
d="M327.5 -10.5c-157 0 -277.25 121 -277.25 280.5c0 161 119.5 280.5 277.25 280.5c119.5 0 213.25 -67.5 251.25 -170h-32.5c-37.75 86.5 -120 138.75 -218.75 138.75c-140 0 -244.75 -107.25 -244.75 -249.25c0 -141.25 105.75 -249.25 244.75 -249.25
c98 0 179.75 51.5 220 140.25h33c-40.25 -105.25 -136 -171.5 -253 -171.5z" />
    <glyph glyph-name="cacute" unicode="&#x107;" horiz-adv-x="619" 
d="M292 606.75l78 152h35l-84.5 -152h-28.5zM327.5 -10.5c-157 0 -277.25 121 -277.25 280.5c0 161 119.5 280.5 277.25 280.5c119.5 0 213.25 -67.5 251.25 -170h-32.5c-37.75 86.5 -120 138.75 -218.75 138.75c-140 0 -244.75 -107.25 -244.75 -249.25
c0 -141.25 105.75 -249.25 244.75 -249.25c98 0 179.75 51.5 220 140.25h33c-40.25 -105.25 -136 -171.5 -253 -171.5z" />
    <glyph glyph-name="ccaron" unicode="&#x10d;" horiz-adv-x="619" 
d="M433.75 758.75h31.5l-122 -152h-37.5l-121 152h31.5l108.32 -130.16zM327.5 -10.5c-157 0 -277.25 121 -277.25 280.5c0 161 119.5 280.5 277.25 280.5c119.5 0 213.25 -67.5 251.25 -170h-32.5c-37.75 86.5 -120 138.75 -218.75 138.75
c-140 0 -244.75 -107.25 -244.75 -249.25c0 -141.25 105.75 -249.25 244.75 -249.25c98 0 179.75 51.5 220 140.25h33c-40.25 -105.25 -136 -171.5 -253 -171.5z" />
    <glyph glyph-name="ccedilla" unicode="&#xe7;" horiz-adv-x="619" 
d="M580.5 161c-39.2197 -102.55 -131.101 -168.07 -244.011 -171.37l-14.2197 -48.3096c59.6504 -2.7998 101.49 -37.9395 101.49 -87.5693c0 -51 -44 -87.75 -106 -87.75h-64.5v22.25h61.75c48.75 0 82.75 27.25 82.75 66.25c0 38.25 -34.75 66 -84.25 66h-14.25l-4 4.75
l17.6504 64.5996c-149.8 7.24023 -262.66 125.63 -262.66 280.149c0 161 119.5 280.5 277.25 280.5c119.5 0 213.25 -67.5 251.25 -170h-32.5c-37.75 86.5 -120 138.75 -218.75 138.75c-140 0 -244.75 -107.25 -244.75 -249.25c0 -141.25 105.75 -249.25 244.75 -249.25
c98 0 179.75 51.5 220 140.25h33z" />
    <glyph glyph-name="ccircumflex" unicode="&#x109;" horiz-adv-x="619" 
d="M465.5 606.75h-31.5l-109.18 130.16l-108.32 -130.16h-31.5l121 152h37.5zM327.5 -10.5c-157 0 -277.25 121 -277.25 280.5c0 161 119.5 280.5 277.25 280.5c119.5 0 213.25 -67.5 251.25 -170h-32.5c-37.75 86.5 -120 138.75 -218.75 138.75
c-140 0 -244.75 -107.25 -244.75 -249.25c0 -141.25 105.75 -249.25 244.75 -249.25c98 0 179.75 51.5 220 140.25h33c-40.25 -105.25 -136 -171.5 -253 -171.5z" />
    <glyph glyph-name="cdotaccent" unicode="&#x10b;" horiz-adv-x="619" 
d="M301.5 660v55.75h47v-55.75h-47zM327.5 -10.5c-157 0 -277.25 121 -277.25 280.5c0 161 119.5 280.5 277.25 280.5c119.5 0 213.25 -67.5 251.25 -170h-32.5c-37.75 86.5 -120 138.75 -218.75 138.75c-140 0 -244.75 -107.25 -244.75 -249.25
c0 -141.25 105.75 -249.25 244.75 -249.25c98 0 179.75 51.5 220 140.25h33c-40.25 -105.25 -136 -171.5 -253 -171.5z" />
    <glyph glyph-name="d" unicode="d" horiz-adv-x="700" 
d="M569.75 730.75l32.001 0.00976562v-730.75h-26.75l-4.50977 137.64c-44.0098 -89.4805 -133.41 -148.15 -244.99 -148.15c-157.75 0 -275.25 121 -275.25 280.5c0 159.75 117.5 280.5 275.25 280.5c110.96 0 199.979 -57.8896 244.249 -146.529v326.78zM327.251 20.7598
c141 0 244 105.75 244 249.25c0 143.75 -103 249.25 -244 249.25c-139.5 0 -244.5 -106.75 -244.5 -249.25c0 -141.75 105 -249.25 244.5 -249.25z" />
    <glyph glyph-name="eth" unicode="&#xf0;" horiz-adv-x="643" 
d="M365.11 712.55c137.98 -83.3896 217.23 -242.59 218.391 -453.3c0 -155 -112.75 -269.5 -266 -269.5c-152.75 0 -266.25 111.25 -266.25 261.25c0 149.25 114.25 260 263.5 260c98.3701 0 184.351 -50.6396 228.11 -129.05
c-23.3203 142.22 -94.5801 249.39 -200.85 310.17l-137.76 -121.87l-16 16.5l132.1 116.88c-59.7803 29.4199 -129.49 45.1299 -207.101 45.3701v28.75c87.6699 -0.230469 165.18 -18.7402 230.699 -53.25l78.5498 69.5l15.75 -16.75zM317.5 20
c133.5 0 234 100.5 234 231.25c-1 134.25 -104 231.25 -234 231.25c-135.25 0 -235 -100.5 -235 -231.25s100.5 -231.25 235 -231.25z" />
    <glyph glyph-name="dcaron" unicode="&#x10f;" horiz-adv-x="700" 
d="M569.75 403.97l0.000976562 326.79h32v-730.75h-26.75l-4.50977 137.64c-44.0098 -89.4805 -133.41 -148.15 -244.99 -148.15c-157.75 0 -275.25 121 -275.25 280.5c0 159.75 117.5 280.5 275.25 280.5c110.96 0 199.979 -57.8896 244.249 -146.529zM673.501 730.76h49.5
v-44.75c0 -35.25 -16.25 -68.25 -47.75 -80.75v25c16 9 24.5 29 24.5 51.75h-26.25v48.75zM327.251 20.7598c141 0 244 105.75 244 249.25c0 143.75 -103 249.25 -244 249.25c-139.5 0 -244.5 -106.75 -244.5 -249.25c0 -141.75 105 -249.25 244.5 -249.25z" />
    <glyph glyph-name="dcroat" unicode="&#x111;" horiz-adv-x="700" 
d="M687.5 637.5l0.000976562 -28.2402h-85.75v-609.25h-26.75l-4.50977 137.64c-44.0098 -89.4805 -133.41 -148.15 -244.99 -148.15c-157.75 0 -275.25 121 -275.25 280.5c0 159.75 117.5 280.5 275.25 280.5c110.96 0 199.979 -57.8896 244.249 -146.529v205.28h-221
v28.25h221v93.25h32v-93.25h85.75zM327.251 20.7598c141 0 244 105.75 244 249.25c0 143.75 -103 249.25 -244 249.25c-139.5 0 -244.5 -106.75 -244.5 -249.25c0 -141.75 105 -249.25 244.5 -249.25z" />
    <glyph glyph-name="e" unicode="e" horiz-adv-x="634" 
d="M587.25 273.75c0 -4.25 -0.25 -9.25 -0.5 -13.5h-504.07c4.86035 -138.15 105.431 -239.25 239.07 -239.25c95.25 0 171.25 49.5 214.5 133h34c-51 -106.75 -138 -164.5 -248.5 -164.5c-154 0 -270.75 121 -270.75 281.25c0 158.75 116.75 279.75 270.75 279.75
c155.25 0 265.5 -121 265.5 -276.75zM321.75 519.75c-130.61 0 -229.63 -96.3496 -238.58 -229.25h472.56c-8.24023 136.72 -107.09 229.25 -233.979 229.25z" />
    <glyph glyph-name="eacute" unicode="&#xe9;" horiz-adv-x="634" 
d="M399 758.75l-84.5 -152h-28.5l78 152h35zM587.25 273.75c0 -4.25 -0.25 -9.25 -0.5 -13.5h-504.07c4.86035 -138.15 105.431 -239.25 239.07 -239.25c95.25 0 171.25 49.5 214.5 133h34c-51 -106.75 -138 -164.5 -248.5 -164.5c-154 0 -270.75 121 -270.75 281.25
c0 158.75 116.75 279.75 270.75 279.75c155.25 0 265.5 -121 265.5 -276.75zM321.75 519.75c-130.61 0 -229.63 -96.3496 -238.58 -229.25h472.56c-8.24023 136.72 -107.09 229.25 -233.979 229.25z" />
    <glyph glyph-name="ebreve" unicode="&#x115;" horiz-adv-x="634" 
d="M319 601c-86.5 0 -144 57 -144 157.75h27v-1.5c0 -85.25 47.25 -131.75 117 -131.75c70.5 0 116.5 46.5 116.5 131.75v1.5h27.5c0 -100.75 -57.5 -157.75 -144 -157.75zM587.25 273.75c0 -4.25 -0.25 -9.25 -0.5 -13.5h-504.07
c4.86035 -138.15 105.431 -239.25 239.07 -239.25c95.25 0 171.25 49.5 214.5 133h34c-51 -106.75 -138 -164.5 -248.5 -164.5c-154 0 -270.75 121 -270.75 281.25c0 158.75 116.75 279.75 270.75 279.75c155.25 0 265.5 -121 265.5 -276.75zM321.75 519.75
c-130.61 0 -229.63 -96.3496 -238.58 -229.25h472.56c-8.24023 136.72 -107.09 229.25 -233.979 229.25z" />
    <glyph glyph-name="ecaron" unicode="&#x11b;" horiz-adv-x="634" 
d="M337.25 606.75h-37.5l-121 152h31.5l108.32 -130.16l109.18 130.16h31.5zM587.25 273.75c0 -4.25 -0.25 -9.25 -0.5 -13.5h-504.07c4.86035 -138.15 105.431 -239.25 239.07 -239.25c95.25 0 171.25 49.5 214.5 133h34c-51 -106.75 -138 -164.5 -248.5 -164.5
c-154 0 -270.75 121 -270.75 281.25c0 158.75 116.75 279.75 270.75 279.75c155.25 0 265.5 -121 265.5 -276.75zM321.75 519.75c-130.61 0 -229.63 -96.3496 -238.58 -229.25h472.56c-8.24023 136.72 -107.09 229.25 -233.979 229.25z" />
    <glyph glyph-name="ecircumflex" unicode="&#xea;" horiz-adv-x="634" 
d="M318.82 736.91l-108.32 -130.16h-31.5l121 152h37.5l122 -152h-31.5zM587.25 273.75c0 -4.25 -0.25 -9.25 -0.5 -13.5h-504.07c4.86035 -138.15 105.431 -239.25 239.07 -239.25c95.25 0 171.25 49.5 214.5 133h34c-51 -106.75 -138 -164.5 -248.5 -164.5
c-154 0 -270.75 121 -270.75 281.25c0 158.75 116.75 279.75 270.75 279.75c155.25 0 265.5 -121 265.5 -276.75zM321.75 519.75c-130.61 0 -229.63 -96.3496 -238.58 -229.25h472.56c-8.24023 136.72 -107.09 229.25 -233.979 229.25z" />
    <glyph glyph-name="edieresis" unicode="&#xeb;" horiz-adv-x="634" 
d="M259.5 715.75v-55.75h-48.5v55.75h48.5zM426.75 715.75v-55.75h-48.5v55.75h48.5zM587.25 273.75c0 -4.25 -0.25 -9.25 -0.5 -13.5h-504.07c4.86035 -138.15 105.431 -239.25 239.07 -239.25c95.25 0 171.25 49.5 214.5 133h34c-51 -106.75 -138 -164.5 -248.5 -164.5
c-154 0 -270.75 121 -270.75 281.25c0 158.75 116.75 279.75 270.75 279.75c155.25 0 265.5 -121 265.5 -276.75zM321.75 519.75c-130.61 0 -229.63 -96.3496 -238.58 -229.25h472.56c-8.24023 136.72 -107.09 229.25 -233.979 229.25z" />
    <glyph glyph-name="edotaccent" unicode="&#x117;" horiz-adv-x="634" 
d="M342.5 715.75v-55.75h-47v55.75h47zM587.25 273.75c0 -4.25 -0.25 -9.25 -0.5 -13.5h-504.07c4.86035 -138.15 105.431 -239.25 239.07 -239.25c95.25 0 171.25 49.5 214.5 133h34c-51 -106.75 -138 -164.5 -248.5 -164.5c-154 0 -270.75 121 -270.75 281.25
c0 158.75 116.75 279.75 270.75 279.75c155.25 0 265.5 -121 265.5 -276.75zM321.75 519.75c-130.61 0 -229.63 -96.3496 -238.58 -229.25h472.56c-8.24023 136.72 -107.09 229.25 -233.979 229.25z" />
    <glyph glyph-name="egrave" unicode="&#xe8;" horiz-adv-x="634" 
d="M340.5 606.75h-28.5l-84.5 152h35zM587.25 273.75c0 -4.25 -0.25 -9.25 -0.5 -13.5h-504.07c4.86035 -138.15 105.431 -239.25 239.07 -239.25c95.25 0 171.25 49.5 214.5 133h34c-51 -106.75 -138 -164.5 -248.5 -164.5c-154 0 -270.75 121 -270.75 281.25
c0 158.75 116.75 279.75 270.75 279.75c155.25 0 265.5 -121 265.5 -276.75zM321.75 519.75c-130.61 0 -229.63 -96.3496 -238.58 -229.25h472.56c-8.24023 136.72 -107.09 229.25 -233.979 229.25z" />
    <glyph glyph-name="emacron" unicode="&#x113;" horiz-adv-x="634" 
d="M475 703v-27.25h-313v27.25h313zM587.25 273.75c0 -4.25 -0.25 -9.25 -0.5 -13.5h-504.07c4.86035 -138.15 105.431 -239.25 239.07 -239.25c95.25 0 171.25 49.5 214.5 133h34c-51 -106.75 -138 -164.5 -248.5 -164.5c-154 0 -270.75 121 -270.75 281.25
c0 158.75 116.75 279.75 270.75 279.75c155.25 0 265.5 -121 265.5 -276.75zM321.75 519.75c-130.61 0 -229.63 -96.3496 -238.58 -229.25h472.56c-8.24023 136.72 -107.09 229.25 -233.979 229.25z" />
    <glyph glyph-name="eogonek" unicode="&#x119;" horiz-adv-x="635" 
d="M587.75 276c0 -5 -0.25 -10.75 -0.75 -15.75h-504.06c5.0498 -137.35 105.72 -239.25 239.31 -239.25c95 0 170.75 49.25 214.25 133h34c-37.25 -77.25 -94.25 -127.5 -162.75 -151c-60.5 -26.5 -101.75 -79.75 -101.75 -128.5c0 -45 33.75 -74 86.25 -74
c15.75 0 30.75 2.25 45.5 7.75v-22.75c-16 -6.25 -34.25 -9.75 -51.5 -9.75c-64 0 -106.75 38 -106.75 92.5c0 43.8896 28.9902 91.7598 71.7598 122.54c-8.94043 -0.780273 -18.2402 -1.04004 -29.0098 -1.04004c-154.25 0 -271 121.25 -271 281.25
c0 158.25 116.75 279.25 271 279.25c154.75 0 265.5 -121.25 265.5 -274.25zM322.25 519.75c-131.11 0 -233.52 -97.4199 -238.81 -229.25h472.55c-8.26953 136.55 -106.42 229.25 -233.74 229.25z" />
    <glyph glyph-name="f" unicode="f" horiz-adv-x="368" 
d="M355.25 539v-28.25h-192v-510.75h-32v510.75h-117v28.25h117v42.5c0 125.25 47.75 173.5 174.5 173.5h49.25v-27.5h-45c-110.25 0 -147.5 -37 -147.5 -146.5v-42h192.75z" />
    <glyph glyph-name="g" unicode="g" horiz-adv-x="676" 
d="M553.75 540h24.2402v-460.5c0 -174.75 -96.5 -280.75 -255.5 -280.75c-120.5 0 -205.75 61 -239.25 165h32c32 -86.75 108 -135 207.25 -135c138.5 0 224 92.25 224 247.75v82.29c-42.4404 -84.8301 -128.19 -139.54 -232.5 -139.54c-149.25 0 -263 114.5 -263 265.5
c0 150.25 114.5 265.75 263 265.75c105.93 0 193.479 -58.0703 235.109 -146.12zM316.49 50.25c132.75 0 229.75 99.25 229.75 234.5c0 134.75 -97.75 234.75 -229.75 234.75c-132.75 0 -233 -101.75 -233 -234.75c0 -133.5 100.25 -234.5 233 -234.5z" />
    <glyph glyph-name="gbreve" unicode="&#x11f;" horiz-adv-x="676" 
d="M321.75 601c-86.5 0 -144 57 -144 157.75h27v-1.5c0 -85.25 47.25 -131.75 117 -131.75c70.5 0 116.5 46.5 116.5 131.75v1.5h27.5c0 -100.75 -57.5 -157.75 -144 -157.75zM553.75 540h24.2402v-460.5c0 -174.75 -96.5 -280.75 -255.5 -280.75
c-120.5 0 -205.75 61 -239.25 165h32c32 -86.75 108 -135 207.25 -135c138.5 0 224 92.25 224 247.75v82.29c-42.4404 -84.8301 -128.19 -139.54 -232.5 -139.54c-149.25 0 -263 114.5 -263 265.5c0 150.25 114.5 265.75 263 265.75
c105.93 0 193.479 -58.0703 235.109 -146.12zM316.49 50.25c132.75 0 229.75 99.25 229.75 234.5c0 134.75 -97.75 234.75 -229.75 234.75c-132.75 0 -233 -101.75 -233 -234.75c0 -133.5 100.25 -234.5 233 -234.5z" />
    <glyph glyph-name="gcircumflex" unicode="&#x11d;" horiz-adv-x="676" 
d="M321.57 736.91l-108.32 -130.16h-31.5l121 152h37.5l122 -152h-31.5zM553.75 540h24.2402v-460.5c0 -174.75 -96.5 -280.75 -255.5 -280.75c-120.5 0 -205.75 61 -239.25 165h32c32 -86.75 108 -135 207.25 -135c138.5 0 224 92.25 224 247.75v82.29
c-42.4404 -84.8301 -128.19 -139.54 -232.5 -139.54c-149.25 0 -263 114.5 -263 265.5c0 150.25 114.5 265.75 263 265.75c105.93 0 193.479 -58.0703 235.109 -146.12zM316.49 50.25c132.75 0 229.75 99.25 229.75 234.5c0 134.75 -97.75 234.75 -229.75 234.75
c-132.75 0 -233 -101.75 -233 -234.75c0 -133.5 100.25 -234.5 233 -234.5z" />
    <glyph glyph-name="gdotaccent" unicode="&#x121;" horiz-adv-x="676" 
d="M345.25 715.75v-55.75h-47v55.75h47zM553.75 540h24.2402v-460.5c0 -174.75 -96.5 -280.75 -255.5 -280.75c-120.5 0 -205.75 61 -239.25 165h32c32 -86.75 108 -135 207.25 -135c138.5 0 224 92.25 224 247.75v82.29c-42.4404 -84.8301 -128.19 -139.54 -232.5 -139.54
c-149.25 0 -263 114.5 -263 265.5c0 150.25 114.5 265.75 263 265.75c105.93 0 193.479 -58.0703 235.109 -146.12zM316.49 50.25c132.75 0 229.75 99.25 229.75 234.5c0 134.75 -97.75 234.75 -229.75 234.75c-132.75 0 -233 -101.75 -233 -234.75
c0 -133.5 100.25 -234.5 233 -234.5z" />
    <glyph glyph-name="h" unicode="h" horiz-adv-x="641" 
d="M340.75 550.5c130.25 0 211.75 -89.5 211.75 -231v-319.5h-32v314c0 128.75 -70 206.5 -185.75 206.5c-110.25 0 -204.5 -94.75 -204.5 -206v-314.5h-32v730.75h32v-312.93c37.3398 78.3496 118.53 132.68 210.5 132.68z" />
    <glyph glyph-name="hbar" unicode="&#x127;" horiz-adv-x="641" 
d="M340.75 550.5c130.25 0 211.75 -89.5 211.75 -231v-319.5h-32v314c0 128.75 -70 206.5 -185.75 206.5c-110.25 0 -204.5 -94.75 -204.5 -206v-314.5h-32v609.25h-100.5v28.25h100.5v93.25h32v-93.25h206.25v-28.25h-206.25v-191.43
c37.3398 78.3496 118.53 132.68 210.5 132.68z" />
    <glyph glyph-name="hcircumflex" unicode="&#x125;" horiz-adv-x="641" 
d="M222.75 787.25l-109.16 121.57l-108.09 -121.57h-31.5l121 142h37.5l121.75 -142h-31.5zM340.75 550.5c130.25 0 211.75 -89.5 211.75 -231v-319.5h-32v314c0 128.75 -70 206.5 -185.75 206.5c-110.25 0 -204.5 -94.75 -204.5 -206v-314.5h-32v730.75h32v-312.93
c37.3398 78.3496 118.53 132.68 210.5 132.68z" />
    <glyph glyph-name="i" unicode="i" horiz-adv-x="229" 
d="M90.75 660v55.75h47v-55.75h-47zM98.25 0v540h32v-540h-32z" />
    <glyph glyph-name="dotlessi" unicode="&#x131;" horiz-adv-x="229" 
d="M98.25 0v540h32v-540h-32z" />
    <glyph glyph-name="iacute" unicode="&#xed;" horiz-adv-x="229" 
d="M96.75 606.75l57.75 152h34.5l-63.5 -152h-28.75zM98.25 0v540h32v-540h-32z" />
    <glyph glyph-name="ibreve" unicode="&#x12d;" horiz-adv-x="229" 
d="M114.5 601c-80.5 0 -134 57 -134 157.75h27v-1.5c0 -85.25 43.25 -131.75 107 -131.75c64.5 0 106.5 46.5 106.5 131.75v1.5h27.5c0 -100.75 -53.5 -157.75 -134 -157.75zM98.25 0v540h32v-540h-32z" />
    <glyph glyph-name="icircumflex" unicode="&#xee;" horiz-adv-x="229" 
d="M132 758.75l108.25 -152h-30.5l-95.25 129.84l-95.25 -129.84h-30.25l108.25 152h34.75zM98.25 0v540h32v-540h-32z" />
    <glyph glyph-name="idieresis" unicode="&#xef;" horiz-adv-x="229" 
d="M37.25 659.25v55.75h44.3701v-55.75h-44.3701zM147 659v55.75h44.3701v-55.75h-44.3701zM98.25 0v540h32v-540h-32z" />
    <glyph glyph-name="igrave" unicode="&#xec;" horiz-adv-x="229" 
d="M129.75 606.75h-28.75l-63.5 152h34.5zM98.25 0v540h32v-540h-32z" />
    <glyph glyph-name="ij" unicode="&#x133;" horiz-adv-x="549" 
d="M90.75 660v55.75h47v-55.75h-47zM411.5 660v55.75h47v-55.75h-47zM98.25 0v540h32v-540h-32zM267.25 -190.75v30h19c83.5 0 132.5 49.25 132.5 132v568.75h32v-570.5c0 -98.5 -62.5 -160.25 -161.25 -160.25h-22.25z" />
    <glyph glyph-name="imacron" unicode="&#x12b;" horiz-adv-x="229" 
d="M-8.63965 675.75v27.25h245.78v-27.25h-245.78zM98.25 0v540h32v-540h-32z" />
    <glyph glyph-name="iogonek" unicode="&#x12f;" horiz-adv-x="229" 
d="M138.5 715.75v-55.75h-47v55.75h47zM111.25 -199.5c15.75 0 30.5 2.24023 45.5 7.74023v-23c-16.5 -6.5 -34.75 -9.5 -51.75 -9.5c-63 0 -106.75 37.25 -106.75 92.75c0 52.9502 40.6396 106.851 100.75 137.7v533.8h32v-538.99l0.25 -1
c-62.25 -23.75 -106.25 -76 -106.25 -126c0 -45 34.5 -73.5 86.25 -73.5z" />
    <glyph glyph-name="itilde" unicode="&#x129;" horiz-adv-x="229" 
d="M189 619.5c-37 0 -60.25 27.5 -82 54c-19.75 23.5 -38.75 46.75 -66.75 46.75c-31.5 0 -52.75 -31 -52.75 -78.25v-14.75h-24v13.5c0 63.25 27.75 105.75 75.25 105.75c39 0 62 -28.25 83.5 -54.75c19.5 -23.75 38 -46.25 65.25 -46.25c32 0 52.5 30.25 52.5 78.75v12.5
h24v-11.5c0 -64.5 -28.75 -105.75 -75 -105.75zM98.25 0v540h32v-540h-32z" />
    <glyph glyph-name="j" unicode="j" horiz-adv-x="241" 
d="M103 660v55.75h47v-55.75h-47zM-41.25 -190.75v30h19c83.5 0 132.5 49.25 132.5 132v568.75h32v-570.5c0 -98.5 -62.5 -160.25 -161.25 -160.25h-22.25z" />
    <glyph glyph-name="jcircumflex" unicode="&#x135;" horiz-adv-x="241" 
d="M143.5 758.75l108.25 -152h-30.5l-95.25 129.84l-95.25 -129.84h-30.25l108.25 152h34.75zM110.25 -27v567h32v-568.25c0 -98.75 -62.75 -160.5 -161.25 -160.5h-19.75v30h16.25c83.5 0 132.75 49.25 132.75 131.75z" />
    <glyph glyph-name="k" unicode="k" horiz-adv-x="510" 
d="M464.5 0l-230.71 266.75h-101.04v-266.75h-32v730.75h32v-433.75h101.52l210.98 243h40l-223.76 -258.28l243.76 -281.72h-40.75z" />
    <glyph glyph-name="kgreenlandic" unicode="&#x138;" horiz-adv-x="506" 
d="M462 0l-230.71 266.75h-101.04v-266.75h-32v540h32v-243h101.55l211.7 243h40l-224.5 -258.29l243.75 -281.71h-40.75z" />
    <glyph glyph-name="l" unicode="l" horiz-adv-x="229" 
d="M98.25 0v730.75h32v-730.75h-32z" />
    <glyph glyph-name="lacute" unicode="&#x13a;" horiz-adv-x="229" 
d="M89 813.25l86.75 142h35l-93.25 -142h-28.5zM98.25 0v730.75h32v-730.75h-32z" />
    <glyph glyph-name="lcaron" unicode="&#x13e;" horiz-adv-x="229" 
d="M98.25 0v730.75h32v-730.75h-32zM204.75 605.25v25c16 9 24.5 29 24.5 51.75h-26.25v48.75h49.5v-44.75c0 -35.25 -16.25 -68.25 -47.75 -80.75z" />
    <glyph glyph-name="ldot" unicode="&#x140;" horiz-adv-x="266" 
d="M98.25 0v730.75h32v-730.75h-32zM223 333.5v62.5h48.5v-62.5h-48.5z" />
    <glyph glyph-name="lslash" unicode="&#x142;" horiz-adv-x="229" 
d="M246.5 499.25v-32l-116.25 -73.1904v-394.06h-32v373.91l-117 -73.6602v32l117 73.6602v324.84h32v-304.69z" />
    <glyph glyph-name="m" unicode="m" horiz-adv-x="956" 
d="M685.75 550.5c109 0 181.249 -84.501 181.249 -209.751v-340.75h-31.25l-0.75 333.5c0 113 -61 187 -154 187c-107.25 0 -181.75 -83.25 -182.5 -204.75v-315.75h-31.5v333.5c0 114.5 -60.25 187 -154.25 187c-107.25 0 -181.75 -83.25 -182.5 -204.75v-315.75h-32v540
h25.5l5.03027 -110.02c33.8604 74.8203 103.091 120.521 189.221 120.521c86.3896 0 149.64 -53.4102 171.83 -138.28c30.4102 85.2803 103.37 138.28 195.92 138.28z" />
    <glyph glyph-name="n" unicode="n" horiz-adv-x="641" 
d="M340.75 550.5c130.25 0 211.75 -91.751 211.75 -231.001v-319.5h-32v314c0 128.75 -70 206.5 -185.75 206.5c-110.25 0 -204.5 -94.75 -204.5 -206v-314.5h-32v540h25.25l5.66016 -124.51c36.8301 79.6104 118.71 135.011 211.59 135.011z" />
    <glyph glyph-name="nacute" unicode="&#x144;" horiz-adv-x="641" 
d="M404.5 758.75l-84.5 -152h-28.5l78 152h35zM340.75 550.5c130.25 0 211.75 -91.751 211.75 -231.001v-319.5h-32v314c0 128.75 -70 206.5 -185.75 206.5c-110.25 0 -204.5 -94.75 -204.5 -206v-314.5h-32v540h25.25l5.66016 -124.51
c36.8301 79.6104 118.71 135.011 211.59 135.011z" />
    <glyph glyph-name="ncaron" unicode="&#x148;" horiz-adv-x="641" 
d="M342.75 606.75h-37.5l-121 152h31.5l108.32 -130.16l109.18 130.16h31.5zM340.75 550.5c130.25 0 211.75 -91.751 211.75 -231.001v-319.5h-32v314c0 128.75 -70 206.5 -185.75 206.5c-110.25 0 -204.5 -94.75 -204.5 -206v-314.5h-32v540h25.25l5.66016 -124.51
c36.8301 79.6104 118.71 135.011 211.59 135.011z" />
    <glyph glyph-name="eng" unicode="&#x14b;" horiz-adv-x="641" 
d="M340.75 550.25c130.25 0 211.75 -89.5 211.75 -231v-321.25c0 -115.25 -73.25 -188.75 -188.5 -188.75h-16.5v30h13.25c98 0 159.75 62 159.75 160v314.5c0 129 -70 206.75 -185.75 206.75c-110.25 0 -204.5 -95 -204.5 -206.25v-314.25h-32v540h25.25l6 -124.02
c37 79.21 118.66 134.27 211.25 134.27z" />
    <glyph glyph-name="ntilde" unicode="&#xf1;" horiz-adv-x="641" 
d="M180.5 637.5v-11h-23v11.5c0 64.25 31.75 107 81.75 107c33.75 0 56.25 -15.5 88.5 -54.5c27.5 -32.75 45 -45.5 70.75 -45.5c35.75 0 58.75 32.25 58.75 82.75v9h23.25v-9.5c0 -64.25 -32 -107 -81.75 -107c-33 0 -55.5 15.25 -88 52.75
c-29.75 34.5 -46.75 47 -71.25 47c-34.75 0 -59 -33 -59 -82.5zM340.75 550.5c130.25 0 211.75 -91.751 211.75 -231.001v-319.5h-32v314c0 128.75 -70 206.5 -185.75 206.5c-110.25 0 -204.5 -94.75 -204.5 -206v-314.5h-32v540h25.25l5.66016 -124.51
c36.8301 79.6104 118.71 135.011 211.59 135.011z" />
    <glyph glyph-name="o" unicode="o" horiz-adv-x="663" 
d="M331.25 -10.5c-160.25 0 -281 120 -281 280.5c0 161.5 120.75 280.5 281 280.5c161 0 281 -120 281 -280.5s-120 -280.5 -281 -280.5zM331.25 20.75c142.75 0 248.5 106.5 248.5 249.25s-105.75 249.25 -248.5 249.25s-248.5 -105.75 -248.5 -249.25
c0 -142.75 106.5 -249.25 248.5 -249.25z" />
    <glyph glyph-name="oacute" unicode="&#xf3;" horiz-adv-x="663" 
d="M298.25 606.75l78 152h35l-84.5 -152h-28.5zM331.25 -10.5c-160.25 0 -281 120 -281 280.5c0 161.5 120.75 280.5 281 280.5c161 0 281 -120 281 -280.5s-120 -280.5 -281 -280.5zM331.25 20.75c142.75 0 248.5 106.5 248.5 249.25s-105.75 249.25 -248.5 249.25
s-248.5 -105.75 -248.5 -249.25c0 -142.75 106.5 -249.25 248.5 -249.25z" />
    <glyph glyph-name="obreve" unicode="&#x14f;" horiz-adv-x="663" 
d="M331.25 601c-86.5 0 -144 57 -144 157.75h27v-1.5c0 -85.25 47.25 -131.75 117 -131.75c70.5 0 116.5 46.5 116.5 131.75v1.5h27.5c0 -100.75 -57.5 -157.75 -144 -157.75zM331.25 -10.5c-160.25 0 -281 120 -281 280.5c0 161.5 120.75 280.5 281 280.5
c161 0 281 -120 281 -280.5s-120 -280.5 -281 -280.5zM331.25 20.75c142.75 0 248.5 106.5 248.5 249.25s-105.75 249.25 -248.5 249.25s-248.5 -105.75 -248.5 -249.25c0 -142.75 106.5 -249.25 248.5 -249.25z" />
    <glyph glyph-name="ocircumflex" unicode="&#xf4;" horiz-adv-x="663" 
d="M471.75 606.75h-31.5l-109.18 130.16l-108.32 -130.16h-31.5l121 152h37.5zM331.25 -10.5c-160.25 0 -281 120 -281 280.5c0 161.5 120.75 280.5 281 280.5c161 0 281 -120 281 -280.5s-120 -280.5 -281 -280.5zM331.25 20.75c142.75 0 248.5 106.5 248.5 249.25
s-105.75 249.25 -248.5 249.25s-248.5 -105.75 -248.5 -249.25c0 -142.75 106.5 -249.25 248.5 -249.25z" />
    <glyph glyph-name="odieresis" unicode="&#xf6;" horiz-adv-x="663" 
d="M223.25 660v55.75h48.5v-55.75h-48.5zM390.5 660v55.75h48.5v-55.75h-48.5zM331.25 -10.5c-160.25 0 -281 120 -281 280.5c0 161.5 120.75 280.5 281 280.5c161 0 281 -120 281 -280.5s-120 -280.5 -281 -280.5zM331.25 20.75c142.75 0 248.5 106.5 248.5 249.25
s-105.75 249.25 -248.5 249.25s-248.5 -105.75 -248.5 -249.25c0 -142.75 106.5 -249.25 248.5 -249.25z" />
    <glyph glyph-name="ograve" unicode="&#xf2;" horiz-adv-x="663" 
d="M352.75 606.75h-28.5l-84.5 152h35zM331.25 -10.5c-160.25 0 -281 120 -281 280.5c0 161.5 120.75 280.5 281 280.5c161 0 281 -120 281 -280.5s-120 -280.5 -281 -280.5zM331.25 20.75c142.75 0 248.5 106.5 248.5 249.25s-105.75 249.25 -248.5 249.25
s-248.5 -105.75 -248.5 -249.25c0 -142.75 106.5 -249.25 248.5 -249.25z" />
    <glyph glyph-name="ohungarumlaut" unicode="&#x151;" horiz-adv-x="663" 
d="M232.5 606.75l76.75 152h33.75l-82.5 -152h-28zM386.5 606.75l80.5 152h33l-86 -152h-27.5zM331.25 -10.5c-160.25 0 -281 120 -281 280.5c0 161.5 120.75 280.5 281 280.5c161 0 281 -120 281 -280.5s-120 -280.5 -281 -280.5zM331.25 20.75
c142.75 0 248.5 106.5 248.5 249.25s-105.75 249.25 -248.5 249.25s-248.5 -105.75 -248.5 -249.25c0 -142.75 106.5 -249.25 248.5 -249.25z" />
    <glyph glyph-name="omacron" unicode="&#x14d;" horiz-adv-x="663" 
d="M174.25 675.75v27.25h313v-27.25h-313zM331.25 -10.5c-160.25 0 -281 120 -281 280.5c0 161.5 120.75 280.5 281 280.5c161 0 281 -120 281 -280.5s-120 -280.5 -281 -280.5zM331.25 20.75c142.75 0 248.5 106.5 248.5 249.25s-105.75 249.25 -248.5 249.25
s-248.5 -105.75 -248.5 -249.25c0 -142.75 106.5 -249.25 248.5 -249.25z" />
    <glyph glyph-name="oslash" unicode="&#xf8;" horiz-adv-x="656" 
d="M468.05 512.5c83.4902 -46.8604 137.95 -135.87 137.95 -242.5c0 -158.5 -117.75 -276.75 -275 -276.75c-48.4199 0 -92.71 10.75 -131.36 30.9297l-46.6396 -85.1797h-30.25l53.5195 96.5596c-77.5996 47.9004 -127.02 133.07 -127.02 235.19c0 158.5 119 277 277 277
c41.9404 0 82.0205 -8.73047 117.19 -24.4902l42.3096 77.7402h30.25zM80.75 270.75c0 -90.0801 41.5293 -166 110.069 -209.22l238.21 434.84c-30.6396 13.3896 -65.8896 21.3799 -102.779 21.3799c-141.5 0 -245.5 -105.5 -245.5 -247zM330.999 23.25
c140.25 0 243.749 105.251 243.749 246.751c0 95.5703 -47.5 174.38 -121.84 215.56l-238.83 -434.66c34.2803 -17.4502 73.5605 -27.6504 116.921 -27.6504z" />
    <glyph glyph-name="oslashacute" unicode="&#x1ff;" horiz-adv-x="656" 
d="M407.75 758.75l-84.5 -152h-28.5l78 152h35zM468.05 512.5c83.4902 -46.8604 137.95 -135.87 137.95 -242.5c0 -158.5 -117.75 -276.75 -275 -276.75c-48.4199 0 -92.71 10.75 -131.36 30.9297l-46.6396 -85.1797h-30.25l53.5195 96.5596
c-77.5996 47.9004 -127.02 133.07 -127.02 235.19c0 158.5 119 277 277 277c41.9404 0 82.0205 -8.73047 117.19 -24.4902l42.3096 77.7402h30.25zM80.75 270.75c0 -90.0801 41.5293 -166 110.069 -209.22l238.21 434.84
c-30.6396 13.3896 -65.8896 21.3799 -102.779 21.3799c-141.5 0 -245.5 -105.5 -245.5 -247zM330.999 23.25c140.25 0 243.749 105.251 243.749 246.751c0 95.5703 -47.5 174.38 -121.84 215.56l-238.83 -434.66c34.2803 -17.4502 73.5605 -27.6504 116.921 -27.6504z" />
    <glyph glyph-name="otilde" unicode="&#xf5;" horiz-adv-x="663" 
d="M405.5 620.25c-33 0 -55.5 15.25 -88 52.75c-29.75 34.5 -46.75 47 -71.25 47c-34.75 0 -59 -33 -59 -82.5v-11h-23v11.5c0 64.25 31.75 107 81.75 107c33.75 0 56.25 -15.5 88.5 -54.5c27.5 -32.75 45 -45.5 70.75 -45.5c35.75 0 58.75 32.25 58.75 82.75v9h23.25v-9.5
c0 -64.25 -32 -107 -81.75 -107zM331.25 -10.5c-160.25 0 -281 120 -281 280.5c0 161.5 120.75 280.5 281 280.5c161 0 281 -120 281 -280.5s-120 -280.5 -281 -280.5zM331.25 20.75c142.75 0 248.5 106.5 248.5 249.25s-105.75 249.25 -248.5 249.25
s-248.5 -105.75 -248.5 -249.25c0 -142.75 106.5 -249.25 248.5 -249.25z" />
    <glyph glyph-name="oe" unicode="&#x153;" horiz-adv-x="1162" 
d="M1115 274.25c0 -4.5 -0.25 -9.5 -0.5 -14h-504.07c4.86035 -137.91 105.19 -239 239.07 -239c95 0 171.25 49 214.5 132.75h34c-51 -106.75 -138 -164.5 -248.5 -164.5c-120.7 0 -218.53 74.9697 -254.82 184.8c-37.0498 -110.03 -137.79 -184.55 -263.68 -184.55
c-160 0 -280.75 120 -280.75 280.25c0 161.5 120.75 280.5 280.75 280.5c125.76 0 226.42 -74.3701 263.56 -184.33c36.2002 109.35 134.11 184.33 254.94 184.33c153.5 0 265.5 -119.75 265.5 -276.25zM849.5 520c-130.7 0 -229.771 -96.7002 -238.61 -229.75h472.65
c-7.73047 136.44 -106.7 229.75 -234.04 229.75zM331 20.75c142.25 0 248 106.5 248 249.25s-105.75 249.25 -248 249.25c-142.5 0 -248.25 -105.75 -248.25 -249.25c0 -142.75 106.5 -249.25 248.25 -249.25z" />
    <glyph glyph-name="p" unicode="p" horiz-adv-x="701" 
d="M375.75 550.5c160.25 0 274.239 -120.75 274.239 -280.5c0 -159.5 -114 -280.5 -274.25 -280.5c-109.95 0 -200.95 59.5303 -245.49 150.13v-330.38h-32v730.75h24.75l6.36035 -141.34c44.21 91.6299 135.7 151.84 246.391 151.84zM373.989 20.75
c141 0 243.75 105.25 243.75 249.25s-102.75 249.25 -243.75 249.25c-139.5 0 -244.75 -107 -244.75 -249.25c0 -141.5 105.25 -249.25 244.75 -249.25z" />
    <glyph glyph-name="thorn" unicode="&#xfe;" horiz-adv-x="701" 
d="M375.75 550.25c160.25 0 274.25 -120.75 274.25 -280.25s-114 -280.5 -274.25 -280.5c-109.95 0 -200.96 59.5303 -245.5 150.13v-330.38h-32v921.5h32v-330.44c44.54 90.5303 135.55 149.94 245.5 149.94zM374 20.75c141 0 243.75 105.25 243.75 249.25
c0 143.75 -102.75 249 -243.75 249c-139.5 0 -244.75 -107 -244.75 -249c0 -141.5 105.25 -249.25 244.75 -249.25z" />
    <glyph glyph-name="q" unicode="q" horiz-adv-x="700" 
d="M577.25 540l24.7402 -0.0107422v-730.75h-32v328.89c-43.8896 -89.7598 -133.31 -148.64 -244.75 -148.64c-157.25 0 -275 121 -275 280.5c0 159.75 117.75 280.5 275 280.5c112.04 0 201.82 -59.3896 245.46 -149.97zM326.99 20.7393c141 0 244 105.5 244 249.25
s-103 249.25 -244 249.25c-139.5 0 -244.5 -106.75 -244.5 -249.25c0 -141.75 105 -249.25 244.5 -249.25z" />
    <glyph glyph-name="r" unicode="r" horiz-adv-x="380" 
d="M320.5 541.5h46.5v-30.75h-48.5c-112.75 0 -188.25 -87.25 -188.25 -206.75v-304h-32v540h25.25l5.20996 -122.33c33.5898 75.79 100.59 123.83 191.79 123.83z" />
    <glyph glyph-name="racute" unicode="&#x155;" horiz-adv-x="380" 
d="M308.75 759l-84.5 -152h-28.5l78 152h35zM320.5 541.5h46.5v-30.75h-48.5c-112.75 0 -188.25 -87.25 -188.25 -206.75v-304h-32v540h25.25l5.20996 -122.33c33.5898 75.79 100.59 123.83 191.79 123.83z" />
    <glyph glyph-name="rcaron" unicode="&#x159;" horiz-adv-x="380" 
d="M247 607h-37.5l-121 152h31.5l108.32 -130.16l109.18 130.16h31.5zM128.71 417.67c33.5898 75.79 100.59 123.83 191.79 123.83h46.5v-30.75h-48.5c-112.75 0 -188.25 -87.25 -188.25 -206.75v-304h-32v540h25.25z" />
    <glyph glyph-name="s" unicode="s" horiz-adv-x="506" 
d="M253.25 -10.5c-121.5 0 -197.25 59.5 -205.75 157.5h31.5c8.5 -80.75 73 -127.25 175 -127.25c103 0 171.25 48.5 171.25 123.25c0 93.5 -88 110 -177 125c-93.5 16 -190 32.75 -190 138.75c0 85.75 77.5 143.75 191.5 143.75c114.75 0 187.75 -57.75 193 -151h-30.75
c-5.25 76.25 -65 121.5 -162.75 121.5c-96.25 0 -159.75 -45.5 -159.75 -113.5c0 -81 78 -94 166 -108.75c94.5 -15.75 201.5 -35 201.5 -154.75c0 -93 -81.5 -154.5 -203.75 -154.5z" />
    <glyph glyph-name="sacute" unicode="&#x15b;" horiz-adv-x="506" 
d="M219.25 606.75l78 152h35l-84.5 -152h-28.5zM253.25 -10.5c-121.5 0 -197.25 59.5 -205.75 157.5h31.5c8.5 -80.75 73 -127.25 175 -127.25c103 0 171.25 48.5 171.25 123.25c0 93.5 -88 110 -177 125c-93.5 16 -190 32.75 -190 138.75c0 85.75 77.5 143.75 191.5 143.75
c114.75 0 187.75 -57.75 193 -151h-30.75c-5.25 76.25 -65 121.5 -162.75 121.5c-96.25 0 -159.75 -45.5 -159.75 -113.5c0 -81 78 -94 166 -108.75c94.5 -15.75 201.5 -35 201.5 -154.75c0 -93 -81.5 -154.5 -203.75 -154.5z" />
    <glyph glyph-name="scaron" unicode="&#x161;" horiz-adv-x="506" 
d="M361 758.75h31.5l-122 -152h-37.5l-121 152h31.5l108.32 -130.16zM253.25 -10.5c-121.5 0 -197.25 59.5 -205.75 157.5h31.5c8.5 -80.75 73 -127.25 175 -127.25c103 0 171.25 48.5 171.25 123.25c0 93.5 -88 110 -177 125c-93.5 16 -190 32.75 -190 138.75
c0 85.75 77.5 143.75 191.5 143.75c114.75 0 187.75 -57.75 193 -151h-30.75c-5.25 76.25 -65 121.5 -162.75 121.5c-96.25 0 -159.75 -45.5 -159.75 -113.5c0 -81 78 -94 166 -108.75c94.5 -15.75 201.5 -35 201.5 -154.75c0 -93 -81.5 -154.5 -203.75 -154.5z" />
    <glyph glyph-name="scedilla" unicode="&#x15f;" horiz-adv-x="506" 
d="M457 144c0 -89 -74.6406 -149.151 -188.2 -154.161l-14.79 -50.2695c59.6504 -2.7998 101.49 -37.9395 101.49 -87.5693c0 -51 -44 -87.75 -106 -87.75h-64.5v22.25h61.75c48.75 0 82.75 27.25 82.75 66.25c0 38.25 -34.75 66 -84.25 66h-14.25l-4 4.75l18.0596 66.0898
c-116.71 2.62988 -189.25 61.6299 -197.56 157.41h31.5c8.5 -80.75 73 -127.25 175 -127.25c103 0 171.25 48.5 171.25 123.25c0 93.5 -88 110 -177 125c-93.5 16 -190 32.75 -190 138.75c0 85.75 77.5 143.75 191.5 143.75c114.75 0 187.75 -57.75 193 -151h-30.75
c-5.25 76.25 -65 121.5 -162.75 121.5c-96.25 0 -159.75 -45.5 -159.75 -113.5c0 -81 78 -94 166 -108.75c94.5 -15.75 201.5 -35 201.5 -154.75z" />
    <glyph glyph-name="scircumflex" unicode="&#x15d;" horiz-adv-x="506" 
d="M392.75 606.75h-31.5l-109.18 130.16l-108.32 -130.16h-31.5l121 152h37.5zM253.25 -10.5c-121.5 0 -197.25 59.5 -205.75 157.5h31.5c8.5 -80.75 73 -127.25 175 -127.25c103 0 171.25 48.5 171.25 123.25c0 93.5 -88 110 -177 125c-93.5 16 -190 32.75 -190 138.75
c0 85.75 77.5 143.75 191.5 143.75c114.75 0 187.75 -57.75 193 -151h-30.75c-5.25 76.25 -65 121.5 -162.75 121.5c-96.25 0 -159.75 -45.5 -159.75 -113.5c0 -81 78 -94 166 -108.75c94.5 -15.75 201.5 -35 201.5 -154.75c0 -93 -81.5 -154.5 -203.75 -154.5z" />
    <glyph glyph-name="germandbls" unicode="&#xdf;" horiz-adv-x="600" 
d="M425.85 384.62c73.1904 -20.6396 122.65 -91.1006 122.65 -179.87c0 -123 -98 -204.75 -245.75 -204.75h-61.75v31.25h61.75c129 0 214.25 69.75 214.25 175.5c0 91.75 -64.25 160.75 -152 160.75h-114.25v30.5h111.5c69 0 127.25 69.75 127.25 151.75
c0 95.5 -72.5 165 -171.5 165c-120.25 0 -187.75 -80.5 -187.75 -224.25v-490.5h-32v490.5c0 162.75 79.75 255.25 219.75 255.25c115.5 0 201.5 -83.25 201.5 -194.75c0 -73.6396 -39.4902 -141.01 -93.6504 -166.38z" />
    <glyph glyph-name="longs" unicode="&#x17f;" horiz-adv-x="249" 
d="M98.25 0v596.75c0 90 44.75 134 136 134h70.75v-30h-64c-77.25 0 -110.75 -33.5 -110.75 -109v-591.75h-32z" />
    <glyph glyph-name="t" unicode="t" horiz-adv-x="383" 
d="M300 30.25h68v-30.5h-70.75c-100.5 0 -161.75 62 -161.75 164.25v346.75h-124.5v28.25h124.5v159.75h32v-159.75h196v-28.25h-196v-345.5c0 -85.25 48.25 -135 132.5 -135z" />
    <glyph glyph-name="tbar" unicode="&#x167;" horiz-adv-x="401" 
d="M311.25 30.25h68v-30.5h-70.75c-100.5 0 -161.75 62 -161.75 164.25v112.11h-121.25v29.5898h121.25v205.05h-124.5v28.25h124.5v159.75h32v-159.75h195.25v-28.25h-195.25v-205.05h191.09v-29.5898h-191.09v-110.86c0 -85.25 48.25 -135 132.5 -135z" />
    <glyph glyph-name="tcaron" unicode="&#x165;" horiz-adv-x="384" 
d="M368 730.75h49.5v-44.75c0 -39.75 -17 -69 -43.25 -82.25l-5.25 19c18.25 12 28.25 31.25 28.25 59.25h-29.25v48.75zM170.25 165.25c0 -85.25 48.25 -135 132.5 -135h68v-30.5h-70.75c-100.5 0 -161.75 62 -161.75 164.25v346.75h-124.5v28.25h124.5v159.75h32v-159.75
h186v-28.25h-186v-345.5z" />
    <glyph glyph-name="u" unicode="u" horiz-adv-x="631" 
d="M315.25 -10.5c-139.25 0 -227.5 92.75 -227.5 237v313.5h32v-309.75c0 -129.25 75 -209.5 195.5 -209.5c120.75 0 195.5 80.5 195.5 209.5v309.75h32v-313.5c0 -144.25 -88 -237 -227.5 -237z" />
    <glyph glyph-name="uacute" unicode="&#xfa;" horiz-adv-x="631" 
d="M282.25 606.75l78 152h35l-84.5 -152h-28.5zM315.25 -10.5c-139.25 0 -227.5 92.75 -227.5 237v313.5h32v-309.75c0 -129.25 75 -209.5 195.5 -209.5c120.75 0 195.5 80.5 195.5 209.5v309.75h32v-313.5c0 -144.25 -88 -237 -227.5 -237z" />
    <glyph glyph-name="ubreve" unicode="&#x16d;" horiz-adv-x="631" 
d="M315.25 601c-86.5 0 -144 57 -144 157.75h27v-1.5c0 -85.25 47.25 -131.75 117 -131.75c70.5 0 116.5 46.5 116.5 131.75v1.5h27.5c0 -100.75 -57.5 -157.75 -144 -157.75zM315.25 -10.5c-139.25 0 -227.5 92.75 -227.5 237v313.5h32v-309.75
c0 -129.25 75 -209.5 195.5 -209.5c120.75 0 195.5 80.5 195.5 209.5v309.75h32v-313.5c0 -144.25 -88 -237 -227.5 -237z" />
    <glyph glyph-name="ucircumflex" unicode="&#xfb;" horiz-adv-x="631" 
d="M455.75 606.75h-31.5l-109.18 130.16l-108.32 -130.16h-31.5l121 152h37.5zM315.25 -10.5c-139.25 0 -227.5 92.75 -227.5 237v313.5h32v-309.75c0 -129.25 75 -209.5 195.5 -209.5c120.75 0 195.5 80.5 195.5 209.5v309.75h32v-313.5c0 -144.25 -88 -237 -227.5 -237z
" />
    <glyph glyph-name="udieresis" unicode="&#xfc;" horiz-adv-x="631" 
d="M207.25 660v55.75h48.5v-55.75h-48.5zM374.5 660v55.75h48.5v-55.75h-48.5zM315.25 -10.5c-139.25 0 -227.5 92.75 -227.5 237v313.5h32v-309.75c0 -129.25 75 -209.5 195.5 -209.5c120.75 0 195.5 80.5 195.5 209.5v309.75h32v-313.5c0 -144.25 -88 -237 -227.5 -237z
" />
    <glyph glyph-name="ugrave" unicode="&#xf9;" horiz-adv-x="631" 
d="M336.75 606.75h-28.5l-84.5 152h35zM315.25 -10.5c-139.25 0 -227.5 92.75 -227.5 237v313.5h32v-309.75c0 -129.25 75 -209.5 195.5 -209.5c120.75 0 195.5 80.5 195.5 209.5v309.75h32v-313.5c0 -144.25 -88 -237 -227.5 -237z" />
    <glyph glyph-name="uhungarumlaut" unicode="&#x171;" horiz-adv-x="631" 
d="M216.5 606.75l76.75 152h33.75l-82.5 -152h-28zM370.5 606.75l80.5 152h33l-86 -152h-27.5zM315.25 -10.5c-139.25 0 -227.5 92.75 -227.5 237v313.5h32v-309.75c0 -129.25 75 -209.5 195.5 -209.5c120.75 0 195.5 80.5 195.5 209.5v309.75h32v-313.5
c0 -144.25 -88 -237 -227.5 -237z" />
    <glyph glyph-name="umacron" unicode="&#x16b;" horiz-adv-x="631" 
d="M158.25 675.75v27.25h313v-27.25h-313zM315.25 -10.5c-139.25 0 -227.5 92.75 -227.5 237v313.5h32v-309.75c0 -129.25 75 -209.5 195.5 -209.5c120.75 0 195.5 80.5 195.5 209.5v309.75h32v-313.5c0 -144.25 -88 -237 -227.5 -237z" />
    <glyph glyph-name="uni0123" unicode="&#x123;" horiz-adv-x="676" 
d="M346 704.75l0.000976562 -48.75h-49.5v44.75c0 39.75 17 69 43.25 82.25l5.25 -19c-18.4902 -11.8701 -28.4307 -31.2402 -28.3105 -59.25h29.3096zM553.751 540h24.2402v-460.5c0 -174.75 -96.5 -280.75 -255.5 -280.75c-120.5 0 -205.75 61 -239.25 165h32
c32 -86.75 108 -135 207.25 -135c138.5 0 224 92.25 224 247.75v82.29c-42.4404 -84.8301 -128.19 -139.54 -232.5 -139.54c-149.25 0 -263 114.5 -263 265.5c0 150.25 114.5 265.75 263 265.75c105.93 0 193.479 -58.0703 235.109 -146.12zM316.491 50.25
c132.75 0 229.75 99.25 229.75 234.5c0 134.75 -97.75 234.75 -229.75 234.75c-132.75 0 -233 -101.75 -233 -234.75c0 -133.5 100.25 -234.5 233 -234.5z" />
    <glyph glyph-name="uni0137" unicode="&#x137;" horiz-adv-x="510" 
d="M261.49 281.72l243.76 -281.72h-40.75l-230.71 266.75h-101.04v-266.75h-32v730.75h32v-433.75h101.52l210.98 243h40zM232.5 -117.75v48.75h49.5v-44.75c0 -35.25 -16.25 -68.25 -47.75 -80.75v25c16 9 24.5 29 24.5 51.75h-26.25z" />
    <glyph glyph-name="uni013C" unicode="&#x13c;" horiz-adv-x="229" 
d="M98.25 0v730.75h32v-730.75h-32zM90.75 -194.5v25c16 9 24.5 29 24.5 51.75h-26.25v48.75h49.5v-44.75c0 -35.25 -16.25 -68.25 -47.75 -80.75z" />
    <glyph glyph-name="uni0146" unicode="&#x146;" horiz-adv-x="641" 
d="M340.75 550.5c130.25 0 211.75 -91.751 211.75 -231.001v-319.5h-32v314c0 128.75 -70 206.5 -185.75 206.5c-110.25 0 -204.5 -94.75 -204.5 -206v-314.5h-32v540h25.25l5.66016 -124.51c36.8301 79.6104 118.71 135.011 211.59 135.011zM298.25 -117.751v48.75h49.5
v-44.75c0 -35.25 -16.25 -68.25 -47.75 -80.75v25c16 9 24.5 29 24.5 51.75h-26.25z" />
    <glyph glyph-name="uni0157" unicode="&#x157;" horiz-adv-x="380" 
d="M320.5 541.5h46.5v-30.75h-48.5c-112.75 0 -188.25 -87.25 -188.25 -206.75v-304h-32v540h25.25l5.20996 -122.33c33.5898 75.79 100.59 123.83 191.79 123.83zM89.25 -117.75v48.75h49.5v-44.75c0 -35.25 -16.25 -68.25 -47.75 -80.75v25c16 9 24.5 29 24.5 51.75
h-26.25z" />
    <glyph glyph-name="uni0163" unicode="&#x163;" horiz-adv-x="385" 
d="M277.01 -58.6797c59.6504 -2.80957 101.49 -37.9502 101.49 -87.5703c0 -51 -44 -87.75 -106 -87.75h-64.5v22.25h61.75c48.75 0 82.75 27.25 82.75 66.25c0 38.25 -34.75 66 -84.25 66h-14.25l-4 4.75l20.8701 76.3604
c-83.0801 11.0303 -132.62 70.4307 -132.62 162.391v346.75h-124.5v28.25h124.5v159.75h32v-159.75h196v-28.25h-196v-345.5c0 -85.25 48.25 -135 132.5 -135h68v-30.5h-70.75c-1.94043 0 -3.87012 0.0195312 -5.78027 0.0693359z" />
    <glyph glyph-name="uni0219" unicode="&#x219;" horiz-adv-x="506" 
d="M253.25 -10.5c-121.5 0 -197.25 59.5 -205.75 157.5h31.5c8.5 -80.75 73 -127.25 175 -127.25c103 0 171.25 48.5 171.25 123.25c0 93.5 -88 110 -177 125c-93.5 16 -190 32.75 -190 138.75c0 85.75 77.5 143.75 191.5 143.75c114.75 0 187.75 -57.75 193 -151h-30.75
c-5.25 76.25 -65 121.5 -162.75 121.5c-96.25 0 -159.75 -45.5 -159.75 -113.5c0 -81 78 -94 166 -108.75c94.5 -15.75 201.5 -35 201.5 -154.75c0 -93 -81.5 -154.5 -203.75 -154.5zM240.25 -196.25v25c16 9 24.5 29 24.5 51.75h-26.25v48.75h49.5v-44.75
c0 -35.25 -16.25 -68.25 -47.75 -80.75z" />
    <glyph glyph-name="uni021B" unicode="&#x21b;" horiz-adv-x="383" 
d="M300 30.25h68v-30.5h-70.75c-100.5 0 -161.75 62 -161.75 164.25v346.75h-124.5v28.25h124.5v159.75h32v-159.75h196v-28.25h-196v-345.5c0 -85.25 48.25 -135 132.5 -135zM248.75 -117.75v48.75h49.5v-44.75c0 -35.25 -16.25 -68.25 -47.75 -80.75v25
c16 9 24.5 29 24.5 51.75h-26.25z" />
    <glyph glyph-name="uogonek" unicode="&#x173;" horiz-adv-x="630" 
d="M510.5 540h31.999v-313.25c0 -112.25 -52.5 -191.75 -146.5 -223.5c-56.5 -19 -100 -74.5 -100 -127.5c0 -45.25 34.5 -74 86.5 -74c16.25 0 31 2.5 45.25 7.75v-23.25c-16.5 -6.25 -34.5 -9.25 -51.25 -9.25c-62 0 -106.75 36.5 -106.75 93.5
c0 47.3096 27.9102 95.2598 64.1006 120.12c-7.45996 -0.540039 -15.0098 -0.870117 -21.8496 -0.870117c-135 0 -224.25 94.5 -224.25 237.5v312.75h32v-310c0 -129 74.75 -209 195.25 -209s195.5 80 195.5 209v310z" />
    <glyph glyph-name="uring" unicode="&#x16f;" horiz-adv-x="631" 
d="M315.25 594.25c-59 0 -99.5 39.25 -99.5 96.25c0 57.25 40.5 96.25 99.5 96.25s99.5 -39 99.5 -96.25c0 -57 -40.5 -96.25 -99.5 -96.25zM315.25 616.25c45.5 0 76.5 29.75 76.5 74.25c0 44.75 -31 74.5 -76.5 74.5s-76.5 -29.75 -76.5 -74.5
c0 -44.5 31 -74.25 76.5 -74.25zM315.25 -10.5c-139.25 0 -227.5 92.75 -227.5 237v313.5h32v-309.75c0 -129.25 75 -209.5 195.5 -209.5c120.75 0 195.5 80.5 195.5 209.5v309.75h32v-313.5c0 -144.25 -88 -237 -227.5 -237z" />
    <glyph glyph-name="utilde" unicode="&#x169;" horiz-adv-x="631" 
d="M389.5 620.25c-33 0 -55.5 15.25 -88 52.75c-29.75 34.5 -46.75 47 -71.25 47c-34.75 0 -59 -33 -59 -82.5v-11h-23v11.5c0 64.25 31.75 107 81.75 107c33.75 0 56.25 -15.5 88.5 -54.5c27.5 -32.75 45 -45.5 70.75 -45.5c35.75 0 58.75 32.25 58.75 82.75v9h23.25v-9.5
c0 -64.25 -32 -107 -81.75 -107zM315.25 -10.5c-139.25 0 -227.5 92.75 -227.5 237v313.5h32v-309.75c0 -129.25 75 -209.5 195.5 -209.5c120.75 0 195.5 80.5 195.5 209.5v309.75h32v-313.5c0 -144.25 -88 -237 -227.5 -237z" />
    <glyph glyph-name="v" unicode="v" horiz-adv-x="564" 
d="M504 540h33.25l-240.25 -540h-27l-245.5 540h33.75l225.18 -494.47z" />
    <glyph glyph-name="w" unicode="w" horiz-adv-x="848" 
d="M789 540h33l-191.25 -540h-24.75l-184.1 460.48l-182.65 -460.48h-24.75l-185.75 540h33.75l165.93 -483.89l186.32 466.39h14.25l188.26 -467.52z" />
    <glyph glyph-name="wacute" unicode="&#x1e83;" horiz-adv-x="848" 
d="M501.25 758.75l-84.5 -152h-28.5l78 152h35zM789 540h33l-191.25 -540h-24.75l-184.1 460.48l-182.65 -460.48h-24.75l-185.75 540h33.75l165.93 -483.89l186.32 466.39h14.25l188.26 -467.52z" />
    <glyph glyph-name="wcircumflex" unicode="&#x175;" horiz-adv-x="848" 
d="M421.07 736.91l-108.32 -130.16h-31.5l121 152h37.5l122 -152h-31.5zM789 540h33l-191.25 -540h-24.75l-184.1 460.48l-182.65 -460.48h-24.75l-185.75 540h33.75l165.93 -483.89l186.32 466.39h14.25l188.26 -467.52z" />
    <glyph glyph-name="wdieresis" unicode="&#x1e85;" horiz-adv-x="848" 
d="M313.25 660v55.75h48.5v-55.75h-48.5zM480.5 660v55.75h48.5v-55.75h-48.5zM789 540h33l-191.25 -540h-24.75l-184.1 460.49l-182.65 -460.49h-24.75l-185.75 540h33.75l165.94 -483.88l186.31 466.38h14.25l188.26 -467.52z" />
    <glyph glyph-name="wgrave" unicode="&#x1e81;" horiz-adv-x="848" 
d="M442.75 606.75h-28.5l-84.5 152h35zM789 540h33l-191.25 -540h-24.75l-184.1 460.48l-182.65 -460.48h-24.75l-185.75 540h33.75l165.93 -483.89l186.32 466.39h14.25l188.26 -467.52z" />
    <glyph glyph-name="x" unicode="x" horiz-adv-x="486" 
d="M474.25 0h-37l-194.19 261.19l-194.31 -261.19h-36.5l211.29 283.26l-190.79 256.74h37l173.5 -233.77l174.25 233.77h36.5l-191.38 -256.06z" />
    <glyph glyph-name="y" unicode="y" horiz-adv-x="573" 
d="M514.25 540h34.25l-275.25 -587.5c-52.25 -112 -99 -143.25 -185 -143.25h-42.25v29.75h40.25c74.25 0 111 22.75 157.75 122.25l32.6396 68.7803l-252.14 509.97h35.5l233.54 -474.13z" />
    <glyph glyph-name="yacute" unicode="&#xfd;" horiz-adv-x="573" 
d="M371.5 758.75l-84.5 -152h-28.5l78 152h35zM514.25 540h34.25l-275.25 -587.5c-52.25 -112 -99 -143.25 -185 -143.25h-42.25v29.75h40.25c74.25 0 111 22.75 157.75 122.25l32.6396 68.7803l-252.14 509.97h35.5l233.54 -474.13z" />
    <glyph glyph-name="ycircumflex" unicode="&#x177;" horiz-adv-x="573" 
d="M291.32 736.91l-108.32 -130.16h-31.5l121 152h37.5l122 -152h-31.5zM514.25 540h34.25l-275.25 -587.5c-52.25 -112 -99 -143.25 -185 -143.25h-42.25v29.75h40.25c74.25 0 111 22.75 157.75 122.25l32.6396 68.7803l-252.14 509.97h35.5l233.54 -474.13z" />
    <glyph glyph-name="ydieresis" unicode="&#xff;" horiz-adv-x="573" 
d="M183.5 660v55.75h48.5v-55.75h-48.5zM350.75 660v55.75h48.5v-55.75h-48.5zM514.25 540h34.25l-275.25 -587.5c-52.25 -112 -99 -143.25 -185 -143.25h-42.25v29.75h40.25c74.25 0 111 22.75 157.75 122.25l32.6396 68.79l-252.14 509.96h35.5l233.55 -474.12z" />
    <glyph glyph-name="ygrave" unicode="&#x1ef3;" horiz-adv-x="573" 
d="M313 606.75h-28.5l-84.5 152h35zM514.25 540h34.25l-275.25 -587.5c-52.25 -112 -99 -143.25 -185 -143.25h-42.25v29.75h40.25c74.25 0 111 22.75 157.75 122.25l32.6396 68.7803l-252.14 509.97h35.5l233.54 -474.13z" />
    <glyph glyph-name="z" unicode="z" horiz-adv-x="456" 
d="M76.75 30.5h352.5v-30.5h-403.5v9.25l345.76 500.5h-329.01v30.25h379.75v-9z" />
    <glyph glyph-name="zacute" unicode="&#x17a;" horiz-adv-x="456" 
d="M320.25 758.75l-84.5 -152h-28.5l78 152h35zM76.75 30.5h352.5v-30.5h-403.5v9.25l345.76 500.5h-329.01v30.25h379.75v-9z" />
    <glyph glyph-name="zcaron" unicode="&#x17e;" horiz-adv-x="456" 
d="M258.5 606.75h-37.5l-121 152h31.5l108.32 -130.16l109.18 130.16h31.5zM76.75 30.5h352.5v-30.5h-403.5v9.25l345.76 500.5h-329.01v30.25h379.75v-9z" />
    <glyph glyph-name="zdotaccent" unicode="&#x17c;" horiz-adv-x="456" 
d="M263.75 715.75v-55.75h-47v55.75h47zM76.75 30.5h352.5v-30.5h-403.5v9.25l345.76 500.5h-329.01v30.25h379.75v-9z" />
    <glyph glyph-name="germandbls.calt" horiz-adv-x="651" 
d="M375.86 438.71c136.75 -5.79004 224.89 -89.7695 224.89 -214.96c0 -129.75 -95 -223.75 -248.5 -223.75h-88.5v32h88.5c129.5 0 215.25 76.75 215.25 191.75c0 112.25 -85 186.75 -213 186.75h-27.25v10.75l163.78 247h-154.78c-132.25 0 -204.5 -71.25 -204.5 -203.5
v-464.75h-32.75v467.25c0 148 84.75 232.75 233.5 232.75h210v-10.25z" />
    <glyph glyph-name="i.loclTRK" horiz-adv-x="229" 
d="M90.75 660v55.75h47v-55.75h-47zM98.25 0v540h32v-540h-32z" />
    <glyph glyph-name="k.ss01" horiz-adv-x="491" 
d="M98.25 0v730.75h32v-730.75h-32zM216.99 282.06l275.26 -282.06h-42.25l-270 277.5v8.25l251.5 254.25h41.5z" />
    <glyph glyph-name="ordfeminine" unicode="&#xaa;" horiz-adv-x="463" 
d="M361.5 708.5l20.749 -0.00976562v-338.75h-21.25l-2.46973 84.8701c-27.2197 -52 -79.2695 -86.6104 -142.029 -86.6104c-92 0 -164.25 76 -164.25 172c0 94.25 72.25 170.25 164.25 170.25c62.8203 0 114.92 -34.6904 142.12 -86.25zM218.249 391.24
c78.75 0 139.5 64 139.5 148.75c0 83 -60.75 147.25 -139.5 147.25c-79.75 0 -142 -65.25 -142 -147.25c0 -83.75 62.5 -148.75 142 -148.75z" />
    <glyph glyph-name="ordmasculine" unicode="&#xba;" horiz-adv-x="454" 
d="M227.25 368c-100 0 -176 73 -176 171s76 171 176 171s175 -73 175 -171s-75 -171 -175 -171zM227.25 391.25c87.25 0 151 63 151 147.75s-63.75 147.75 -151 147.75s-151.75 -63 -151.75 -147.75s64.5 -147.75 151.75 -147.75z" />
    <glyph glyph-name="uni0410" unicode="&#x410;" horiz-adv-x="680" 
d="M619.75 0l-87.96 202.75h-385.31l-86.4805 -202.75h-35l297 700h28.25l305 -700h-35.5zM336.67 652.48l-177.39 -418.98h359.46z" />
    <glyph glyph-name="uni0411" unicode="&#x411;" horiz-adv-x="609" 
d="M346.75 410.5c128 0 219.5 -85.75 219.5 -204.25c0 -119.5 -93.5 -206.25 -222.25 -206.25h-236.5v700h411.5v-31.5h-378.75v-258h206.5zM342.25 32.25c110.5 0 190.75 73.25 190.75 174s-78.5 172 -188.25 172h-204.5v-346h202z" />
    <glyph glyph-name="uni0412" unicode="&#x412;" horiz-adv-x="644" 
d="M447.49 368.91c76.0303 -22.3496 131.01 -94.0596 131.01 -178.92c0 -105.25 -81.75 -190 -204.75 -190h-266.25v700h265.25c110.5 0 184.75 -74.75 184.75 -169.5c0 -73 -45.7002 -137.69 -110.01 -161.58zM379.489 667.74h-239.5v-283.25h244.75
c78.75 0 139.5 67.25 139.5 142.75c0 78.75 -64 140.5 -144.75 140.5zM380.739 32.4902c92.5 0 164.25 70 164.25 160.25c0 88.5 -71 159.5 -160.5 159.5h-244.5v-319.75h240.75z" />
    <glyph glyph-name="uni0413" unicode="&#x413;" horiz-adv-x="486" 
d="M464.5 700v-31.25h-324.25v-668.75h-32.75v700h357z" />
    <glyph glyph-name="uni0403" unicode="&#x403;" horiz-adv-x="486" 
d="M355 924.5l-93.25 -142h-28.5l86.75 142h35zM464.5 700v-31.25h-324.25v-668.75h-32.75v700h357z" />
    <glyph glyph-name="uni0490" unicode="&#x490;" horiz-adv-x="486" 
d="M433.25 805h31.25v-136.25h-324.25v-668.75h-32.75v700h325.75v105z" />
    <glyph glyph-name="uni0414" unicode="&#x414;" horiz-adv-x="738" 
d="M620.25 31.25h78v-183h-31v151.75h-624.25v-151.75h-31v183h50.6699c77.6201 37.1602 97.0898 129.95 145.83 668.75h411.75v-668.75zM238.21 668.75c-39.96 -461.96 -61.0195 -587.72 -130.92 -637.5h479.96v637.5h-349.04z" />
    <glyph glyph-name="uni0415" unicode="&#x415;" horiz-adv-x="542" 
d="M140.25 31.75h354.75v-31.75h-387.5v700h376.5v-31.5h-343.75v-287.25h317.75v-31h-317.75v-318.5z" />
    <glyph glyph-name="uni0401" unicode="&#x401;" horiz-adv-x="542" 
d="M166.75 818.5v55.75h48.5v-55.75h-48.5zM370 818.5v55.75h48.5v-55.75h-48.5zM140.25 31.75h354.75v-31.75h-387.5v700h376.5v-31.5h-343.75v-287.25h317.75v-31h-317.75v-318.5z" />
    <glyph glyph-name="uni0416" unicode="&#x416;" horiz-adv-x="899" 
d="M851 0l-283.25 348.5h-102v-348.5h-33v348.5h-102.01l-283.24 -348.5h-42l296.44 364.89l-269.69 335.11h41l257.6 -320.25h101.9v320.25h33v-320.25h101.9l257.6 320.25h40.75l-269.45 -335.11l296.45 -364.89h-42z" />
    <glyph glyph-name="uni0417" unicode="&#x417;" horiz-adv-x="566" 
d="M378.23 374.12c70.9004 -23.5098 120.021 -94.3506 120.021 -180.12c0 -117.75 -95.5 -203.5 -225.75 -203.5c-123 0 -213.5 77 -225.5 191h32.25c13 -95.25 88.5 -159.75 193.25 -159.75c111.75 0 193.25 72 193.25 173.25c0 93.25 -66 163.75 -153.25 163.75h-96.25
v29.75h96.25c80 0 139.25 59.5 139.25 139.75c0 89 -73 151 -179.25 151c-91.25 0 -163 -58.25 -178.75 -142h-31.75c15.5 103 103.75 172.5 210.5 172.5c122.25 0 211.25 -73.25 211.25 -180.75c0 -72.9102 -43.2002 -133.88 -105.521 -154.88z" />
    <glyph glyph-name="uni0418" unicode="&#x418;" horiz-adv-x="735" 
d="M603.75 700h23.25v-700h-32.75v634.76l-464.25 -634.76h-22.5v700h32.75v-633.67z" />
    <glyph glyph-name="uni0419" unicode="&#x419;" horiz-adv-x="735" 
d="M228 832.5v27h269.5v-27h-269.5zM603.75 700h23.25v-700h-32.75v634.76l-464.25 -634.76h-22.5v700h32.75v-633.67z" />
    <glyph glyph-name="uni041A" unicode="&#x41a;" horiz-adv-x="604" 
d="M558.5 0l-299.2 348.5h-119.05v-348.5h-32.75v700h32.75v-320.25h119l273.5 320.25h42.25l-286.5 -335.42l312.5 -364.58h-42.5z" />
    <glyph glyph-name="uni041B" unicode="&#x41b;" horiz-adv-x="722" 
d="M213.5 700h401v-700h-32.75v668.75h-338.31l-33.6904 -478.25c-9.25 -126.25 -70.75 -190.75 -181.25 -190.75h-16.5v32.5h16.25c90.75 0 140.25 52.5 148.25 158.25z" />
    <glyph glyph-name="uni041C" unicode="&#x41c;" horiz-adv-x="943" 
d="M890.25 0h-33.25l-112.05 637.2l-267.95 -605.45h-12.25l-267.24 604.69l-113.01 -636.44h-33.25l123.75 700h29l266.27 -608.07l267.98 608.07h29.5z" />
    <glyph glyph-name="uni041D" unicode="&#x41d;" horiz-adv-x="728" 
d="M588 700h32.75v-700h-32.75v349.25h-447.75v-349.25h-32.75v700h32.75v-319h447.75v319z" />
    <glyph glyph-name="uni041E" unicode="&#x41e;" horiz-adv-x="833" 
d="M416.25 -10.5c-210.5 0 -361 155 -361 359.75c0 205.5 150.5 361.25 361 361.25s361 -155 361 -361.25c0 -205.5 -150.5 -359.75 -361 -359.75zM416.25 21.75c191 0 327.75 140.5 327.75 327.5c0 187.75 -136.75 329 -327.75 329s-327.75 -142.25 -327.75 -329
c0 -186 136.75 -327.5 327.75 -327.5z" />
    <glyph glyph-name="uni041F" unicode="&#x41f;" horiz-adv-x="695" 
d="M107.5 700h479.5v-700h-33v668.75h-413.75v-668.75h-32.75v700z" />
    <glyph glyph-name="uni0420" unicode="&#x420;" horiz-adv-x="599" 
d="M343.25 700c124.75 0 219.75 -90 219.75 -210.25c0 -120.75 -94 -211 -219.75 -211h-203v-278.75h-32.75v700h235.75zM342 310.75c107.75 0 187.75 76.5 187.75 179c0 101.75 -80 178.25 -187.75 178.25h-201.75v-357.25h201.75z" />
    <glyph glyph-name="uni0421" unicode="&#x421;" horiz-adv-x="778" 
d="M412 -10.25c-208.75 0 -356.75 150.25 -356.75 359.5s148.75 361 356.75 361c154 0 274.5 -84.5 322.5 -221h-34c-46.5 117.75 -152.5 188.75 -288.5 188.75c-188 0 -323.5 -137.25 -323.5 -328.75s134.75 -327.25 323.5 -327.25c139.75 0 248.25 75 294.5 201h33.25
c-47.25 -145 -170 -233.25 -327.75 -233.25z" />
    <glyph glyph-name="uni0422" unicode="&#x422;" horiz-adv-x="533" 
d="M511 700v-31.25h-228.25v-668.75h-32.75v668.75h-228.25v31.25h489.25z" />
    <glyph glyph-name="uni0423" unicode="&#x423;" horiz-adv-x="583" 
d="M534 700h35.25l-232 -494.25c-79.5 -170.25 -121.25 -207.75 -226.5 -207.75h-36.5v31.25h38.5c84.7305 0 115.49 27.5898 182.28 161.96l-275.53 508.79h37.75l254.93 -472.37z" />
    <glyph glyph-name="uni040E" unicode="&#x40e;" horiz-adv-x="583" 
d="M173 832.5v27h269.5v-27h-269.5zM534 700h35.2402l-232 -494.25c-79.5 -170.25 -121.25 -207.75 -226.5 -207.75h-36.5v31.25h38.5c84.7402 0 115.5 27.5898 182.29 161.97l-275.53 508.78h37.75l254.93 -472.37z" />
    <glyph glyph-name="uni0424" unicode="&#x424;" horiz-adv-x="850" 
d="M794.5 349.5c0 -200.07 -145.92 -356.74 -352.75 -359.71v-106.29h-32.25v106.29c-206.49 3.12012 -354.25 160.46 -354.25 359.21c0 199.74 147.76 358.07 354.25 361.2v96.5498h32.25v-96.5498c206.83 -2.98047 352.75 -160.141 352.75 -360.7zM88.5 349.25
c0 -181.97 134.97 -324.569 321 -327.699v656.64c-185.31 -3.15039 -321 -146.49 -321 -328.94zM441.75 21.5498c185.4 3 319.5 144.91 319.5 327.7c0 183.28 -134.1 325.931 -319.5 328.95v-656.65z" />
    <glyph glyph-name="uni0425" unicode="&#x425;" horiz-adv-x="579" 
d="M566.75 0h-38.0098l-238.99 339.98l-239 -339.98h-38.25l256.88 365.86l-235.13 334.14h38l217.5 -309.27l217.75 309.27h38l-235.44 -335.15z" />
    <glyph glyph-name="uni0427" unicode="&#x427;" horiz-adv-x="622" 
d="M481.75 700l33.001 0.000976562v-700h-33v302.82c-69.4805 -26.4902 -133.961 -39.5703 -190.751 -39.5703c-144.75 0 -238 82.75 -238 232.5v204.25h33v-202.5c0 -128.75 75 -202 207.25 -202c54.8096 0 117.64 13.5195 188.5 39.8994v364.6z" />
    <glyph glyph-name="uni0426" unicode="&#x426;" horiz-adv-x="701" 
d="M583.25 31.25h77.75v-183h-31v151.75h-522.5v700h32.75v-668.75h410.25v668.75h32.75v-668.75z" />
    <glyph glyph-name="uni0428" unicode="&#x428;" horiz-adv-x="968" 
d="M827.25 700h32.75v-700h-752.5v700h32.75v-668.75h327.25v668.75h32.25v-668.75h327.5v668.75z" />
    <glyph glyph-name="uni0429" unicode="&#x429;" horiz-adv-x="978" 
d="M860 31.25h78.5v-183h-31v151.75h-800v700h32.75v-668.75h327.25v668.75h32.25v-668.75h327.5v668.75h32.75v-668.75z" />
    <glyph glyph-name="uni040F" unicode="&#x40f;" horiz-adv-x="731" 
d="M623 700v-700h-242.75v-151h-31v151h-241.75v700h32.75v-668.75h449.75v668.75h33z" />
    <glyph glyph-name="uni042C" unicode="&#x42c;" horiz-adv-x="607" 
d="M350.5 422c126.75 0 220.5 -89.75 220.5 -211.5c0 -120.5 -94.75 -210.5 -220.5 -210.5h-243v700h32.75v-278h210.25zM348.75 31.25c108.5 0 189 77 189 179.5c0 103.5 -80.5 180.25 -189 180.25h-208.5v-359.75h208.5z" />
    <glyph glyph-name="uni042A" unicode="&#x42a;" horiz-adv-x="694" 
d="M437 422c126.75 0 220.5 -89.75 220.5 -211.5c0 -120.5 -94.75 -210.5 -220.5 -210.5h-243v668.75h-174v31.25h206.75v-278h210.25zM435.25 31.25c108.5 0 189 77 189 179.5c0 103.5 -80.5 180.25 -189 180.25h-208.5v-359.75h208.5z" />
    <glyph glyph-name="uni042B" unicode="&#x42b;" horiz-adv-x="844" 
d="M350.5 422c126.75 0 220.5 -89.75 220.5 -211.5c0 -120.5 -94.75 -210.5 -220.5 -210.5h-243v700h32.75v-278h210.25zM703.5 700h32.75v-700h-32.75v700zM348.75 31.25c108.5 0 189 77 189 179.5c0 103.5 -80.5 180.25 -189 180.25h-208.5v-359.75h208.5z" />
    <glyph glyph-name="uni0409" unicode="&#x409;" horiz-adv-x="1081" 
d="M824.5 422c126.75 0 220.5 -89.75 220.5 -211.5c0 -120.5 -94.75 -210.5 -220.5 -210.5h-243.25v668.75h-338.31l-33.6904 -478.25c-9.5 -126.25 -70.75 -190.75 -181.25 -190.75h-16v32.5h16.25c90.75 0 140.25 52.5 148.25 158.25l37.5 509.5h400.25v-278h210.25z
M822.75 31.25c108.25 0 189 77 189 179.5c0 103.5 -80.75 180.25 -189 180.25h-208.5v-359.75h208.5z" />
    <glyph glyph-name="uni040A" unicode="&#x40a;" horiz-adv-x="1016" 
d="M762.75 394.5c135.75 0 216.75 -82 216.75 -196.75c0 -115 -80.25 -197.75 -216.75 -197.75h-234.25v361.75h-388.25v-361.75h-32.75v700h32.75v-306.75h388.25v306.75h32.75v-305.5h201.5zM761.5 31.5c113.25 0 184.75 64.5 184.75 166.25
c0 101 -71.5 165.25 -184.75 165.25h-200.25v-331.5h200.25z" />
    <glyph glyph-name="uni0405" unicode="&#x405;" horiz-adv-x="583" 
d="M298.25 -8.25c-147.5 0 -245.75 84.75 -245.75 214h33.25c0 -110.25 84.75 -181.75 212.25 -181.75c116.25 0 197.75 66.5 197.75 164.5c0 111 -98.25 132.25 -203 155.5c-108.75 23.75 -225 49.75 -225 179.5c0 112.25 88.75 184.75 225 184.75
c132 0 218 -77.25 218 -194.75h-32.5c0 99 -74.75 163 -186 163c-115.5 0 -191.75 -59.75 -191.75 -152c0 -106 99 -127.25 202 -149.75c110.75 -24.75 226.75 -51 226.75 -186c0 -119 -96.25 -197 -231 -197z" />
    <glyph glyph-name="uni0404" unicode="&#x404;" horiz-adv-x="787" 
d="M716.5 223.75l32.7607 -0.0195312c-49.75 -146 -176.5 -234.25 -335.5 -234.25c-206.25 0 -358.5 154.25 -358.5 360.5c0 206.5 153.5 360.5 358.5 360.5c154.25 0 275 -81.25 330.25 -222.5h-33.75c-53.25 121.5 -159.75 190 -296.5 190
c-180.17 0 -316.36 -131 -325.061 -309.74h393.81v-31h-394.04c6.08008 -182.24 142.28 -315.24 325.28 -315.24c141.5 0 254.25 75 302.75 201.75z" />
    <glyph glyph-name="uni042D" unicode="&#x42d;" horiz-adv-x="787" 
d="M372.75 710.5c205 0 358.512 -154 358.512 -360.5c0 -206.25 -152.25 -360.5 -358.5 -360.5c-159 0 -285.75 88.25 -335.5 234.25h32.75c48.5 -127 161.25 -202 302.75 -202c182.77 0 318.97 133.02 325.04 315.5h-393.79v31h393.56
c-8.69043 178.98 -144.881 310 -324.821 310c-136.75 0 -243.25 -68.5 -296.5 -190.25h-33.75c55.25 141.25 176 222.5 330.25 222.5z" />
    <glyph glyph-name="uni0406" unicode="&#x406;" horiz-adv-x="248" 
d="M107.5 0v700h32.75v-700h-32.75z" />
    <glyph glyph-name="uni0407" unicode="&#x407;" horiz-adv-x="248" 
d="M29.5 818.5v55.75h46v-55.75h-46zM171.75 818.5v55.75h46v-55.75h-46zM107.5 0v700h32.75v-700h-32.75z" />
    <glyph glyph-name="uni0408" unicode="&#x408;" horiz-adv-x="588" 
d="M261.25 -10.5c-128 0 -229 100.75 -229 235.25v6.75h32.5v-5.75c0 -115.75 85.5 -204 196.5 -204c109.5 0 195 89 195 204v474.25h32.5v-475.25c0 -134.5 -100.25 -235.25 -227.5 -235.25z" />
    <glyph glyph-name="uni040B" unicode="&#x40b;" horiz-adv-x="751" 
d="M465.5 452.75c140.25 0 230.499 -80.75 230.499 -231v-221.75h-33v219.25c0 131.5 -74.25 202 -200.5 202c-52.4902 0 -112.94 -12.8496 -179.5 -37.2998v-383.95h-33v668.75h-228.25v31.25h489.25v-31.25h-228v-253.84c66.1201 25.2197 128.021 37.8398 182.501 37.8398
z" />
    <glyph glyph-name="uni042E" unicode="&#x42e;" horiz-adv-x="1030" 
d="M617 711.25c205.5 0 357.749 -153.75 357.749 -361.25c0 -207.75 -152 -360.5 -357.75 -360.5c-198.43 0 -346.949 144.05 -354.219 345h-122.53v-334.5h-32.75v700h32.75v-334.25h122.54c7.37012 200.86 155.61 345.5 354.21 345.5zM616.249 22
c187.75 0 325.25 139.25 325.25 328s-138.25 329 -325.25 329c-184.75 0 -322.25 -139 -322.25 -329s136.75 -328 322.25 -328z" />
    <glyph glyph-name="uni042F" unicode="&#x42f;" horiz-adv-x="634" 
d="M272.25 700h253.989v-700h-33v303.25h-208.78l-189.47 -303.25h-38.5l191.5 305.56c-111.72 9.98047 -188.989 89.8008 -188.989 195.69c0 114.75 90 198.75 213.25 198.75zM273.239 334.5h220v334h-220c-105 0 -181 -70 -181 -167.25c0 -96.5 75.25 -166.75 181 -166.75
z" />
    <glyph glyph-name="uni0402" unicode="&#x402;" horiz-adv-x="733" 
d="M451 469.75c143.75 0 239.999 -96.248 239.999 -240.248c0 -143.25 -96.5 -239.25 -241.5 -239.25h-4.75v32.25h4.75c126 -0.25 208.5 83.25 208.5 207c0 124 -82.75 208 -208.75 208c-60.3799 0 -127.18 -25.1904 -167.75 -64.5205v-372.98h-32.75v668.75h-227v31.25
h487.75v-31.25h-228v-258.07c45.7002 36.2598 109.061 59.0693 169.501 59.0693z" />
    <glyph glyph-name="uni0414.loclBGR" horiz-adv-x="764" 
d="M666.81 31.25h60.9404v-181.5h-31v150.25h-629.25v-150.25h-31v181.5h61.8203l264.18 668.75h27.75zM376.51 649.45l-243.7 -618.2h499.41z" />
    <glyph glyph-name="uni041B.loclBGR" horiz-adv-x="651" 
d="M624.75 0h-35.5l-264.7 649.04l-260.3 -649.04h-34.75l280.5 700h28.25z" />
    <glyph glyph-name="uni0414.ss01" horiz-adv-x="764" 
d="M666.81 31.25h60.9404v-181.5h-31v150.25h-629.25v-150.25h-31v181.5h61.8203l264.18 668.75h27.75zM376.51 649.45l-243.7 -618.2h499.41z" />
    <glyph glyph-name="uni0416.ss01" horiz-adv-x="859" 
d="M27 700h43l303.5 -331.5v-7.25l-327.5 -361.25h-44.25l331.49 365.74zM413.25 0v700h32.75v-700h-32.75zM525.91 365.77l331.59 -365.77h-44.25l-327.5 361.25v7.25l303.5 331.5h43z" />
    <glyph glyph-name="uni041A.ss01" horiz-adv-x="591" 
d="M107.5 0v700h32.75v-700h-32.75zM221.92 364.22l369.83 -364.22h-45l-366.75 360.5v7.25l341.25 332.25h43.75z" />
    <glyph glyph-name="uni041B.ss01" horiz-adv-x="651" 
d="M624.75 0h-35.5l-264.7 649.04l-260.3 -649.04h-34.75l280.5 700h28.25z" />
    <glyph glyph-name="uni0424.ss01" horiz-adv-x="789" 
d="M411.5 677.25c190.5 -2.25 325.25 -145.25 325.25 -327.75c0 -181.5 -134.75 -323.25 -325.25 -325.75v-84.75h-32.75v84.75c-190.25 2.5 -326.75 145.25 -326.75 325.75c0 182.5 136.5 325.5 326.75 327.75v79.25h32.75v-79.25zM85.25 349.5
c0 -165.76 124.63 -293.38 293.75 -294.75v591.99c-169.12 -1.87012 -293.75 -130.74 -293.75 -297.24zM411.25 54.75c169.36 1.37012 292 128.24 292 294.75c0 167.5 -122.64 295.37 -292 297.24v-591.99z" />
    <glyph glyph-name="uni0430" unicode="&#x430;" horiz-adv-x="702" 
d="M576.5 540l27.2402 -0.0107422v-540h-28l-3.54004 140.98c-43.2803 -91.3496 -133.311 -151.479 -246.45 -151.479c-157 0 -275.5 121 -275.5 280.5c0 159.75 118.5 280.5 275.5 280.5c113.24 0 203.34 -60.1104 246.58 -151.62zM327.49 20.7393
c141 0 243.75 105.25 243.75 249.25s-102.75 249.25 -243.75 249.25c-139.5 0 -244.75 -107.75 -244.75 -249.25c0 -142.25 105.25 -249.25 244.75 -249.25z" />
    <glyph glyph-name="uni0431" unicode="&#x431;" horiz-adv-x="655" 
d="M340.75 510.5c150.5 0 263.001 -111.5 263.001 -259.5c0 -149.25 -113.75 -261.5 -266.25 -261.5c-155.25 0 -267.75 113 -267.75 269.75c0 297.5 93.25 426.75 351 487.25l141 33v-32.5l-138.25 -32c-202.51 -46.3799 -295.37 -142.32 -316.15 -340.29
c44.2695 83.96 128.43 135.79 233.399 135.79zM337.501 20.75c133.25 0 233.75 100 233.75 230.25s-100.5 230.5 -233.75 230.5c-135 0 -234.75 -100 -234.75 -230.5c0 -130.25 100.5 -230.25 234.75 -230.25z" />
    <glyph glyph-name="uni0432" unicode="&#x432;" horiz-adv-x="569" 
d="M401.63 284.16c64.4902 -17.6299 106.87 -69.6396 106.87 -136.909c0 -85.25 -68.25 -147.25 -160.25 -147.25h-250v540h248.5c86.25 0 143.75 -54 143.75 -132c0 -59.8203 -34.9199 -106.141 -88.8701 -123.841zM458.75 403.99c0 63.5 -45.75 105.5 -115.25 105.5
h-213.75v-210.75h213.75c69 0 115.25 42.75 115.25 105.25zM345.5 30.7402c75.75 0 130.25 49.75 130.25 119s-54.5 119 -131.25 119h-214.75v-238h215.75z" />
    <glyph glyph-name="uni0433" unicode="&#x433;" horiz-adv-x="435" 
d="M417.75 540v-29.5h-288v-510.5h-31.5v540h319.5z" />
    <glyph glyph-name="uni0453" unicode="&#x453;" horiz-adv-x="435" 
d="M345.75 758.75l-84.5 -152h-28.5l78 152h35zM417.75 540v-29.5h-288v-510.5h-31.5v540h319.5z" />
    <glyph glyph-name="uni0491" unicode="&#x491;" horiz-adv-x="435" 
d="M386.75 665.5h31v-155h-288v-510.5h-31.5v540h288.5v125.5z" />
    <glyph glyph-name="uni0434" unicode="&#x434;" horiz-adv-x="628" 
d="M514.75 30.75h78.001v-182.5h-30v151.75h-520.75v-151.75h-30v182.5h60.3096c50.5898 46.3604 60.7695 108.98 90.1895 510h352.25v-510zM191.741 511.5c-24.6201 -354.02 -37.8506 -431.8 -81.7207 -480.75h373.23v480.75h-291.51z" />
    <glyph glyph-name="uni0435" unicode="&#x435;" horiz-adv-x="634" 
d="M587.25 273.75c0 -4.25 -0.25 -9.25 -0.5 -13.5h-504.07c4.86035 -138.15 105.431 -239.25 239.07 -239.25c95.25 0 171.25 49.5 214.5 133h34c-51 -106.75 -138 -164.5 -248.5 -164.5c-154 0 -270.75 121 -270.75 281.25c0 158.75 116.75 279.75 270.75 279.75
c155.25 0 265.5 -121 265.5 -276.75zM321.75 519.75c-130.61 0 -229.63 -96.3496 -238.58 -229.25h472.56c-8.24023 136.72 -107.09 229.25 -233.979 229.25z" />
    <glyph glyph-name="uni0451" unicode="&#x451;" horiz-adv-x="634" 
d="M259.5 715.75v-55.75h-48.5v55.75h48.5zM426.75 715.75v-55.75h-48.5v55.75h48.5zM587.25 273.75c0 -4.25 -0.25 -9.25 -0.5 -13.5h-504.07c4.86035 -138.15 105.431 -239.25 239.07 -239.25c95.25 0 171.25 49.5 214.5 133h34c-51 -106.75 -138 -164.5 -248.5 -164.5
c-154 0 -270.75 121 -270.75 281.25c0 158.75 116.75 279.75 270.75 279.75c155.25 0 265.5 -121 265.5 -276.75zM321.75 519.75c-130.61 0 -229.63 -96.3496 -238.58 -229.25h472.56c-8.24023 136.72 -107.09 229.25 -233.979 229.25z" />
    <glyph glyph-name="uni0436" unicode="&#x436;" horiz-adv-x="752" 
d="M703.5 0l-219.89 266.75h-92.1104v-266.75h-31.25v266.75h-92.1396l-220.61 -266.75h-40.25l234.03 283.07l-214.03 256.93h38.75l202.28 -243.75h91.9697v243.75h31.25v-243.75h91.9297l201.57 243.75h38.75l-213.31 -256.93l233.31 -283.07h-40.25z" />
    <glyph glyph-name="uni0437" unicode="&#x437;" horiz-adv-x="479" 
d="M323.85 285.06c56.4199 -20.4502 94.6396 -72.0996 94.6396 -136.31c0 -92.75 -81.75 -159.25 -195.5 -159.25c-97.25 0 -172.25 53 -189.5 133.5h30c17.5 -61.75 78.5 -102.75 159.5 -102.75c95.5 0 164 54.5 164 130.25c0 64.75 -51.75 120 -125.75 120h-98.75v27.75
h98c69.75 0 116.25 45.5 116.25 104.5c0 68 -63.25 118.5 -150 118.5c-74.5 0 -132 -38.25 -147.75 -97.25h-30c15.5 76 87 126.5 178.25 126.5c103 0 180.25 -62.5 180.25 -146c0 -56.6504 -33.0996 -100.801 -83.6396 -119.44z" />
    <glyph glyph-name="uni0438" unicode="&#x438;" horiz-adv-x="617" 
d="M499.75 540h18.75v-540h-30.75v480.22l-370.25 -480.22h-19.25v540h31v-478.55z" />
    <glyph glyph-name="uni0439" unicode="&#x439;" horiz-adv-x="617" 
d="M434.25 702v-26.25h-250.5v26.25h250.5zM499.75 540h18.75v-540h-30.75v480.22l-370.25 -480.22h-19.25v540h31v-478.55z" />
    <glyph glyph-name="uni045D" unicode="&#x45d;" horiz-adv-x="617" 
d="M330.5 606.75h-28.5l-84.5 152h35zM499.75 540h18.75v-540h-30.75v480.22l-370.25 -480.22h-19.25v540h31v-478.55z" />
    <glyph glyph-name="uni043A" unicode="&#x43a;" horiz-adv-x="506" 
d="M462 0l-230.71 266.75h-101.04v-266.75h-32v540h32v-243h101.55l211.7 243h40l-224.5 -258.29l243.75 -281.71h-40.75z" />
    <glyph glyph-name="uni045C" unicode="&#x45c;" horiz-adv-x="506" 
d="M369.25 758.75l-84.5 -152h-28.5l78 152h35zM462 0l-230.71 266.75h-101.04v-266.75h-32v540h32v-243h101.55l211.7 243h40l-224.5 -258.29l243.75 -281.71h-40.75z" />
    <glyph glyph-name="uni043B" unicode="&#x43b;" horiz-adv-x="603" 
d="M181.5 540h323.5v-540h-31.75v511h-264.07l-37.6797 -342c-13.5 -124.5 -56.25 -169.75 -155 -169.75h-6.25v30.5h7.5c79 0 111.5 37.25 122.5 138.75z" />
    <glyph glyph-name="uni043C" unicode="&#x43c;" horiz-adv-x="787" 
d="M741.75 0h-31.25l-104.11 481.98l-207.39 -459.98h-11l-206.62 460.03l-104.63 -482.03h-31.25l115.5 540h25.25l207.52 -461.02l207.23 461.02h25.25z" />
    <glyph glyph-name="uni043D" unicode="&#x43d;" horiz-adv-x="626" 
d="M495.75 540h31.5v-540h-31.5v264.5h-366v-264.5h-31.5v540h31.5v-245h366v245z" />
    <glyph glyph-name="uni043E" unicode="&#x43e;" horiz-adv-x="663" 
d="M331.25 -10.5c-160.25 0 -281 120 -281 280.5c0 161.5 120.75 280.5 281 280.5c161 0 281 -120 281 -280.5s-120 -280.5 -281 -280.5zM331.25 20.75c142.75 0 248.5 106.5 248.5 249.25s-105.75 249.25 -248.5 249.25s-248.5 -105.75 -248.5 -249.25
c0 -142.75 106.5 -249.25 248.5 -249.25z" />
    <glyph glyph-name="uni043F" unicode="&#x43f;" horiz-adv-x="630" 
d="M98.25 540h433.5v-540h-31.75v510h-369.75v-510h-32v540z" />
    <glyph glyph-name="uni0440" unicode="&#x440;" horiz-adv-x="701" 
d="M375.75 550.5c160.25 0 274.239 -120.75 274.239 -280.5c0 -159.5 -114 -280.5 -274.25 -280.5c-109.95 0 -200.95 59.5303 -245.49 150.13v-330.38h-32v730.75h24.75l6.36035 -141.34c44.21 91.6299 135.7 151.84 246.391 151.84zM373.989 20.75
c141 0 243.75 105.25 243.75 249.25s-102.75 249.25 -243.75 249.25c-139.5 0 -244.75 -107 -244.75 -249.25c0 -141.5 105.25 -249.25 244.75 -249.25z" />
    <glyph glyph-name="uni0441" unicode="&#x441;" horiz-adv-x="619" 
d="M327.5 -10.5c-157 0 -277.25 121 -277.25 280.5c0 161 119.5 280.5 277.25 280.5c119.5 0 213.25 -67.5 251.25 -170h-32.5c-37.75 86.5 -120 138.75 -218.75 138.75c-140 0 -244.75 -107.25 -244.75 -249.25c0 -141.25 105.75 -249.25 244.75 -249.25
c98 0 179.75 51.5 220 140.25h33c-40.25 -105.25 -136 -171.5 -253 -171.5z" />
    <glyph glyph-name="uni0442" unicode="&#x442;" horiz-adv-x="510" 
d="M493.25 540v-29.75h-222.75v-510.25h-31.5v510.25h-222v29.75h476.25z" />
    <glyph glyph-name="uni0443" unicode="&#x443;" horiz-adv-x="573" 
d="M514.25 540h34.25l-275.25 -587.5c-52.25 -112 -99 -143.25 -185 -143.25h-42.25v29.75h40.25c74.25 0 111 22.75 157.75 122.25l32.6396 68.7803l-252.14 509.97h35.5l233.54 -474.13z" />
    <glyph glyph-name="uni045E" unicode="&#x45e;" horiz-adv-x="573" 
d="M166.25 675.75v26.25h250.5v-26.25h-250.5zM514.25 540h34.25l-275.25 -587.5c-52.25 -112 -99 -143.25 -185 -143.25h-42.25v29.75h40.25c74.25 0 111 22.75 157.75 122.25l32.6396 68.7803l-252.14 509.97h35.5l233.54 -474.13z" />
    <glyph glyph-name="uni0444" unicode="&#x444;" horiz-adv-x="716" 
d="M665.75 269.5c0 -167.51 -123.9 -278.359 -291.75 -279.979v-159.52h-32v159.52c-167.85 1.62012 -291.75 112.47 -291.75 279.979c0 167 124.14 279.33 291.75 280.98v150.27h32v-150.27c167.6 -1.65039 291.75 -113.73 291.75 -280.98zM82 269.75
c0 -145.82 106.27 -246.87 260 -248.48v497.46c-153.49 -1.63965 -260 -103.909 -260 -248.979zM374 21.2695c153.48 1.62012 260 102.91 260 248.48c0 145.07 -106.76 247.34 -260 248.979v-497.46z" />
    <glyph glyph-name="uni0445" unicode="&#x445;" horiz-adv-x="486" 
d="M474.25 0h-37l-194.19 261.19l-194.31 -261.19h-36.5l211.29 283.26l-190.79 256.74h37l173.5 -233.77l174.25 233.77h36.5l-191.38 -256.06z" />
    <glyph glyph-name="uni0447" unicode="&#x447;" horiz-adv-x="531" 
d="M401.75 540l31.249 -0.000976562v-540h-31.25v235.81c-50.5303 -21.0898 -104.17 -32.5596 -153.5 -32.5596c-116.5 0 -203 65 -203 195.75v141h31.5v-139.25c0 -105 63.5 -166.25 173.25 -166.25c48.1104 0 101.771 12.5303 151.751 34.7607v270.74z" />
    <glyph glyph-name="uni0446" unicode="&#x446;" horiz-adv-x="624" 
d="M511.5 30.25h78.5v-182h-30v151.75h-461.75v540h31.5v-509.75h350.25v509.75h31.5v-509.75z" />
    <glyph glyph-name="uni0448" unicode="&#x448;" horiz-adv-x="843" 
d="M712.5 540h31.75v-540h-646v540h31.5v-509.75h276v509.75h31v-509.75h275.75v509.75z" />
    <glyph glyph-name="uni0449" unicode="&#x449;" horiz-adv-x="857" 
d="M744.25 30.25h78.5v-182h-30v151.75h-694.5v540h31.5v-509.75h276v509.75h31v-509.75h275.75v509.75h31.75v-509.75z" />
    <glyph glyph-name="uni045F" unicode="&#x45f;" horiz-adv-x="641" 
d="M542.75 540v-540h-206.25v-151h-31v151h-207.25v540h31.5v-509.75h381.5v509.75h31.5z" />
    <glyph glyph-name="uni044C" unicode="&#x44c;" horiz-adv-x="518" 
d="M303.75 345.25c102.25 0 179.25 -70.75 179.25 -172.75c0 -102.5 -77 -172.5 -179.25 -172.5h-205.5v540h31.5v-194.75h174zM300.75 29.5c87.5 0 149.75 59.25 149.75 143c0 83 -62.25 143.25 -149.75 143.25h-171v-286.25h171z" />
    <glyph glyph-name="uni044A" unicode="&#x44a;" horiz-adv-x="615" 
d="M400.25 345.25c102.25 0 179.25 -70.75 179.25 -172.75c0 -102.5 -77 -172.5 -179.25 -172.5h-205.5v511h-177.5v29h209v-194.75h174zM397.25 29.5c87.5 0 149.75 59.25 149.75 143c0 83 -62.25 143.25 -149.75 143.25h-171v-286.25h171z" />
    <glyph glyph-name="uni044B" unicode="&#x44b;" horiz-adv-x="724" 
d="M303.75 345.25c102.25 0 179.25 -70.75 179.25 -172.75c0 -102.5 -77 -172.5 -179.25 -172.5h-205.5v540h31.5v-194.75h174zM593.25 540h32v-540h-32v540zM300.75 29.5c87.5 0 149.75 59.25 149.75 143c0 83 -62.25 143.25 -149.75 143.25h-171v-286.25h171z" />
    <glyph glyph-name="uni0459" unicode="&#x459;" horiz-adv-x="868" 
d="M654.25 344.25c102 0 178.99 -70.5 178.99 -172.25c0 -102.25 -77 -172 -179 -172h-205.75v511h-239l-37.4902 -341.75c-13.5 -124.5 -56.25 -169.75 -155 -169.75h-6.75v30h8c78.25 0 111.5 36.5 122.5 138.75l41.25 371.75h297.25v-195.75h175zM651.99 28.25
c87.25 0 149.75 59.5 149.75 143.75c0 83.5 -62.5 144 -149.75 144h-172.75v-287.75h172.75z" />
    <glyph glyph-name="uni045A" unicode="&#x45a;" horiz-adv-x="844" 
d="M641.25 318.25c103 0 167.75 -64 167.75 -159c0 -95.25 -64.75 -159.25 -167.75 -159.25h-198v280.5h-313.5v-280.5h-31.5v540h31.5v-229h313.5v229h31.5v-221.75h166.5zM638 30c84.75 0 138.5 49.75 138.5 129.25c0 79.25 -53.75 129 -138.5 129h-163.25v-258.25h163.25
z" />
    <glyph glyph-name="uni0455" unicode="&#x455;" horiz-adv-x="506" 
d="M253.25 -10.5c-121.5 0 -197.25 59.5 -205.75 157.5h31.5c8.5 -80.75 73 -127.25 175 -127.25c103 0 171.25 48.5 171.25 123.25c0 93.5 -88 110 -177 125c-93.5 16 -190 32.75 -190 138.75c0 85.75 77.5 143.75 191.5 143.75c114.75 0 187.75 -57.75 193 -151h-30.75
c-5.25 76.25 -65 121.5 -162.75 121.5c-96.25 0 -159.75 -45.5 -159.75 -113.5c0 -81 78 -94 166 -108.75c94.5 -15.75 201.5 -35 201.5 -154.75c0 -93 -81.5 -154.5 -203.75 -154.5z" />
    <glyph glyph-name="uni0454" unicode="&#x454;" horiz-adv-x="627" 
d="M554.25 185.75h32.4795c-33.25 -115.75 -134.75 -196.25 -259.75 -196.25c-156.25 0 -276.75 123 -276.75 282.5c0 158.25 119.5 278.5 276.75 278.5c124 0 224.5 -76.5 257.75 -190h-32c-32.5 96.75 -120.25 160.5 -226 160.5
c-135.75 0 -238.01 -99.7598 -245.1 -234.25h284.36v-28h-284.45c6.25 -136.36 110.46 -239.5 245.21 -239.5c106.75 0 196 67 227.5 166.5z" />
    <glyph glyph-name="uni044D" unicode="&#x44d;" horiz-adv-x="627" 
d="M299.75 550.5c157.25 0 276.739 -120.25 276.739 -278.5c0 -159.5 -120.5 -282.5 -276.75 -282.5c-125 0 -226.5 80.5 -259.75 196.25h32.5c31.5 -99.5 120.75 -166.5 227.5 -166.5c134.75 0 238.96 103.14 245.21 239.5h-284.45v28h284.36
c-7.09961 134.49 -109.359 234.25 -245.109 234.25c-105.75 0 -193.5 -63.75 -226 -160.5h-32c33.25 113.5 133.75 190 257.75 190z" />
    <glyph glyph-name="uni0456" unicode="&#x456;" horiz-adv-x="229" 
d="M90.75 660v55.75h47v-55.75h-47zM98.25 0v540h32v-540h-32z" />
    <glyph glyph-name="uni0457" unicode="&#x457;" horiz-adv-x="229" 
d="M37.25 659.25v55.75h44.3701v-55.75h-44.3701zM147 659v55.75h44.3701v-55.75h-44.3701zM98.25 0v540h32v-540h-32z" />
    <glyph glyph-name="uni0458" unicode="&#x458;" horiz-adv-x="241" 
d="M103 660v55.75h47v-55.75h-47zM-41.25 -190.75v30h19c83.5 0 132.5 49.25 132.5 132v568.75h32v-570.5c0 -98.5 -62.5 -160.25 -161.25 -160.25h-22.25z" />
    <glyph glyph-name="uni045B" unicode="&#x45b;" horiz-adv-x="641" 
d="M340.75 550.5c130.25 0 211.75 -89.5 211.75 -231v-319.5h-32v314c0 128.75 -70 206.5 -185.75 206.5c-110.25 0 -204.5 -94.75 -204.5 -206v-314.5h-32v609.25h-100.5v28.25h100.5v93.25h32v-93.25h206.25v-28.25h-206.25v-191.43
c37.3398 78.3496 118.53 132.68 210.5 132.68z" />
    <glyph glyph-name="uni044E" unicode="&#x44e;" horiz-adv-x="846" 
d="M522 550.5c156 0 273.25 -120.75 273.25 -280.75c0 -160.5 -117 -280.25 -273.25 -280.25c-152.07 0 -267.32 112.34 -274.41 265.25h-117.34v-256.5h-32v541.75h32v-254.75h117.37c7.32031 152.9 122.71 265.25 274.38 265.25zM522 20.75
c138 0 240.75 106.75 240.75 249c0 142.5 -103.75 249.5 -240.75 249.5c-138.75 0 -242.25 -107 -242.25 -249.5c0 -142.25 103.5 -249 242.25 -249z" />
    <glyph glyph-name="uni044F" unicode="&#x44f;" horiz-adv-x="547" 
d="M224.75 540h223.999v-539.25h-31.5v225.75h-184.67l-151.08 -226.5h-36l152.2 229.37c-82.7695 9.66992 -140.199 71.2295 -140.199 153.88c0 91 68.75 156.75 167.25 156.75zM222.249 257.75h195v251h-190.5c-80.75 0 -136.75 -51.5 -136.75 -125.5
c0 -73.25 54.5 -125.5 132.25 -125.5z" />
    <glyph glyph-name="uni0452" unicode="&#x452;" horiz-adv-x="641" 
d="M340.75 550.25c130.25 0 211.75 -89.5 211.75 -231v-320.5c0 -114.75 -74 -188.75 -188.75 -188.75h-16.25v30.25h13c98 0 160 62 160 160v313.5c0 129 -70 206.75 -185.75 206.75c-110.25 0 -204.5 -95 -204.5 -206.25v-314.25h-32v609.25h-101v28.25h101v93.25h32
v-93.25h205.75v-28.25h-205.75v-190.17c37.3398 77.3799 118.53 131.17 210.5 131.17z" />
    <glyph glyph-name="uni0432.loclBGR" horiz-adv-x="619" 
d="M429.5 385.02c83 -24.8096 137.74 -98.1406 137.74 -186.021c0 -125.75 -98.75 -209.25 -239.75 -209.25c-156 0 -243.5 105 -243.5 292.5v177.5c0 185.5 84.25 286 238 286c131.75 0 223.75 -77.5 223.75 -192.25c0 -76.4902 -46.5898 -143.34 -116.24 -168.479z
M321.98 714.499c-134.5 0 -206.5 -86 -206.5 -254.75v-61h240.75c90.75 0 159.25 65.75 159.25 153.25c0 97.25 -77.25 162.5 -193.5 162.5zM327.48 20.999c125.5 0 207.75 71.75 207.75 179.75c0 97.5 -73.75 167.25 -177.75 167.25h-242v-85.75
c0 -169.75 74.75 -261.25 212 -261.25z" />
    <glyph glyph-name="uni0433.loclBGR" horiz-adv-x="512" 
d="M255 -5c-124.25 0 -206.75 58.75 -206.75 148.5c0 114.25 106.25 134.5 201.75 151.5c89.25 16.25 169.5 31.25 169.5 112.75c0 66.25 -63.75 111 -161 111c-103.5 0 -164.5 -47.75 -164.5 -131.5h-29.75c0 102.75 77 160.5 194 160.5c114.5 0 192 -56.75 192 -140
c0 -105.5 -97.75 -123.75 -191.75 -140.75c-90.25 -16 -178.5 -32.5 -178.5 -123.5c0 -71.5 69 -117.5 175 -117.5c111.5 0 177.5 51.5 177.5 141h31c0 -110.75 -81.75 -172 -208.5 -172z" />
    <glyph glyph-name="uni0434.loclBGR" horiz-adv-x="676" 
d="M553.75 540h24.2402v-460.5c0 -174.75 -96.5 -280.75 -255.5 -280.75c-120.5 0 -205.75 61 -239.25 165h32c32 -86.75 108 -135 207.25 -135c138.5 0 224 92.25 224 247.75v82.29c-42.4404 -84.8301 -128.19 -139.54 -232.5 -139.54c-149.25 0 -263 114.5 -263 265.5
c0 150.25 114.5 265.75 263 265.75c105.93 0 193.479 -58.0703 235.109 -146.12zM316.49 50.25c132.75 0 229.75 99.25 229.75 234.5c0 134.75 -97.75 234.75 -229.75 234.75c-132.75 0 -233 -101.75 -233 -234.75c0 -133.5 100.25 -234.5 233 -234.5z" />
    <glyph glyph-name="uni0436.loclBGR" horiz-adv-x="733" 
d="M684.5 0l-210.28 266.75h-91.7197v-266.75h-31.25v266.75h-91.7598l-210.99 -266.75h-40.5l224.11 282.5l-204.11 257.5h39l192.7 -243.75h91.5498v438.75h31.25v-438.75h91.5195l191.98 243.75h39l-203.39 -257.5l223.39 -282.5h-40.5z" />
    <glyph glyph-name="uni0437.loclBGR" horiz-adv-x="559" 
d="M390.51 192.93c70.4102 -24.4404 120.74 -97.7402 120.74 -180.931c0 -126.5 -95.75 -213.5 -234.5 -213.5c-127.5 0 -225.75 75.75 -243 187.25h32c17.25 -93 102 -156 211 -156c117.75 0 202.25 72.75 202.25 184c0 86.5 -65 162 -152.75 162h-121.75l-0.25 31h120.5
c76.25 0 131.25 73.25 131.25 150.5c0 97.25 -77 161.75 -185.25 161.75c-99.25 0 -174.75 -58.75 -189.5 -147.5h-31.25c14.5 107.25 103 178.75 220.75 178.75c128 0 217.5 -78.75 217.5 -191.5c0 -74.5195 -41.2998 -138.72 -97.7402 -165.819z" />
    <glyph glyph-name="uni0438.loclBGR" horiz-adv-x="641" 
d="M510.25 540h32.001v-540h-26l-5.32031 123.62c-37.0303 -79.1299 -118.65 -134.12 -211.181 -134.12c-130.25 0 -211.75 91.75 -211.75 231v319.5h32v-314c0 -128.75 69.75 -206.5 185.75 -206.5c110.25 0 204.5 94.75 204.5 206v314.5z" />
    <glyph glyph-name="uni0439.loclBGR" horiz-adv-x="641" 
d="M445.75 702v-26.25h-250.5v26.25h250.5zM510.25 540h32.001v-540h-26l-5.32031 123.62c-37.0303 -79.1299 -118.65 -134.12 -211.181 -134.12c-130.25 0 -211.75 91.75 -211.75 231v319.5h32v-314c0 -128.75 69.75 -206.5 185.75 -206.5c110.25 0 204.5 94.75 204.5 206
v314.5z" />
    <glyph glyph-name="uni043A.loclBGR" horiz-adv-x="510" 
d="M464.5 0l-230.71 266.75h-101.04v-266.75h-32v730.75h32v-433.75h101.52l210.98 243h40l-223.76 -258.28l243.76 -281.72h-40.75z" />
    <glyph glyph-name="uni043B.loclBGR" horiz-adv-x="521" 
d="M491 0h-33.25l-196.74 491.85l-200.51 -491.85h-32.75l220.25 540h25.25z" />
    <glyph glyph-name="uni043F.loclBGR" horiz-adv-x="641" 
d="M340.75 550.5c130.25 0 211.75 -91.751 211.75 -231.001v-319.5h-32v314c0 128.75 -70 206.5 -185.75 206.5c-110.25 0 -204.5 -94.75 -204.5 -206v-314.5h-32v540h25.25l5.66016 -124.51c36.8301 79.6104 118.71 135.011 211.59 135.011z" />
    <glyph glyph-name="uni0442.loclBGR" horiz-adv-x="956" 
d="M685.75 550.5c109 0 181.249 -84.501 181.249 -209.751v-340.75h-31.25l-0.75 333.5c0 113 -61 187 -154 187c-107.25 0 -181.75 -83.25 -182.5 -204.75v-315.75h-31.5v333.5c0 114.5 -60.25 187 -154.25 187c-107.25 0 -181.75 -83.25 -182.5 -204.75v-315.75h-32v540
h25.5l5.03027 -110.02c33.8604 74.8203 103.091 120.521 189.221 120.521c86.3896 0 149.64 -53.4102 171.83 -138.28c30.4102 85.2803 103.37 138.28 195.92 138.28z" />
    <glyph glyph-name="uni0446.loclBGR" horiz-adv-x="662" 
d="M542.25 142.25c0 -81.5 32.5 -118 106.25 -118v-176h-30.25v153.15c-70.4502 5.79004 -99.3105 46.4805 -103.82 128.15c-36.1797 -80.6904 -119.77 -140.051 -214.68 -140.051c-130.25 0 -211.75 91.5 -211.75 230.75v319.75h32v-313.75
c0 -129 70 -206.75 185.75 -206.75c110.25 0 204.5 95 204.5 206.25v314.25h32v-397.75z" />
    <glyph glyph-name="uni0448.loclBGR" horiz-adv-x="955" 
d="M824.5 540h32v-540h-26l-4.62012 109.28c-33.9805 -74.3799 -103.04 -119.78 -188.88 -119.78c-86.3896 0 -149.64 53.4102 -171.83 138.271c-30.4102 -85.2803 -103.37 -138.271 -195.92 -138.271c-109 0 -181.25 84.5 -181.25 209.75v340.75h31.25l0.75 -333.5
c0.75 -113 61 -187 154 -187c107.25 0 181.75 83.25 182.5 204.75v315.75h31.5v-333.5c0 -114.5 60.25 -187 154.25 -187c107 0 181.5 83.25 182.25 204.75v315.75z" />
    <glyph glyph-name="uni0449.loclBGR" horiz-adv-x="977" 
d="M856.75 142.25c0 -82 33.001 -118.01 106.001 -118.01v-176h-30v153.55c-63.5303 5.25 -96.7705 38.7197 -104.221 111.33c-32.9902 -76.6201 -103.681 -123.62 -191.53 -123.62c-86.3896 0 -149.64 53.4102 -171.83 138.271
c-30.4102 -85.2803 -103.37 -138.271 -195.92 -138.271c-109 0 -181.25 84.5 -181.25 209.75v340.75h31.25l0.75 -333.5c0.75 -113 61 -187 154 -187c107.25 0 181.75 83.25 182.5 204.75v315.75h31.5v-333.5c0 -114.5 60.25 -187 154.25 -187
c107.25 0 182.5 83.25 182.5 204.75v315.75h32v-397.75z" />
    <glyph glyph-name="uni044E.loclBGR" horiz-adv-x="843" 
d="M518.25 550.5c156.25 0 273.498 -120.75 273.498 -280.75c0 -160.5 -117 -280.25 -273.5 -280.25c-152.31 0 -267.569 112.34 -274.659 265.25h-113.34v-256.5h-32v732.5h32v-445.5h113.37c7.32031 152.9 122.721 265.25 274.631 265.25zM518.248 20.75
c138.25 0 241 106.75 241 249c0 142.5 -103.75 249.5 -241 249.5c-139 0 -242.5 -107 -242.5 -249.5c0 -142.25 103.5 -249 242.5 -249z" />
    <glyph glyph-name="uni0436.ss01" horiz-adv-x="741" 
d="M21.5 540h39.25l244.75 -254.75v-8.25l-264.75 -277h-39.25l266.73 281.46zM355 0v540h31.25v-540h-31.25zM472.69 281.85l267.06 -281.85h-39.25l-264.75 277v8.25l244.75 254.75h39.25z" />
    <glyph glyph-name="uni043A.ss01" horiz-adv-x="491" 
d="M98.25 0v540h32v-540h-32zM216.99 282.3l276.01 -282.3h-40.5l-271 277.5v8.25l252.5 254.25h39z" />
    <glyph glyph-name="uni0432.ss02" horiz-adv-x="619" 
d="M429.5 385.02c83 -24.8096 137.74 -98.1406 137.74 -186.021c0 -125.75 -98.75 -209.25 -239.75 -209.25c-156 0 -243.5 105 -243.5 292.5v177.5c0 185.5 84.25 286 238 286c131.75 0 223.75 -77.5 223.75 -192.25c0 -76.4902 -46.5898 -143.34 -116.24 -168.479z
M321.98 714.499c-134.5 0 -206.5 -86 -206.5 -254.75v-61h240.75c90.75 0 159.25 65.75 159.25 153.25c0 97.25 -77.25 162.5 -193.5 162.5zM327.48 20.999c125.5 0 207.75 71.75 207.75 179.75c0 97.5 -73.75 167.25 -177.75 167.25h-242v-85.75
c0 -169.75 74.75 -261.25 212 -261.25z" />
    <glyph glyph-name="uni0433.ss02" horiz-adv-x="512" 
d="M255 -5c-124.25 0 -206.75 58.75 -206.75 148.5c0 114.25 106.25 134.5 201.75 151.5c89.25 16.25 169.5 31.25 169.5 112.75c0 66.25 -63.75 111 -161 111c-103.5 0 -164.5 -47.75 -164.5 -131.5h-29.75c0 102.75 77 160.5 194 160.5c114.5 0 192 -56.75 192 -140
c0 -105.5 -97.75 -123.75 -191.75 -140.75c-90.25 -16 -178.5 -32.5 -178.5 -123.5c0 -71.5 69 -117.5 175 -117.5c111.5 0 177.5 51.5 177.5 141h31c0 -110.75 -81.75 -172 -208.5 -172z" />
    <glyph glyph-name="uni0434.ss02" horiz-adv-x="676" 
d="M553.75 540h24.2402v-460.5c0 -174.75 -96.5 -280.75 -255.5 -280.75c-120.5 0 -205.75 61 -239.25 165h32c32 -86.75 108 -135 207.25 -135c138.5 0 224 92.25 224 247.75v82.29c-42.4404 -84.8301 -128.19 -139.54 -232.5 -139.54c-149.25 0 -263 114.5 -263 265.5
c0 150.25 114.5 265.75 263 265.75c105.93 0 193.479 -58.0703 235.109 -146.12zM316.49 50.25c132.75 0 229.75 99.25 229.75 234.5c0 134.75 -97.75 234.75 -229.75 234.75c-132.75 0 -233 -101.75 -233 -234.75c0 -133.5 100.25 -234.5 233 -234.5z" />
    <glyph glyph-name="uni0436.ss02" horiz-adv-x="733" 
d="M684.5 0l-210.28 266.75h-91.7197v-266.75h-31.25v266.75h-91.7598l-210.99 -266.75h-40.5l224.11 282.5l-204.11 257.5h39l192.7 -243.75h91.5498v438.75h31.25v-438.75h91.5195l191.98 243.75h39l-203.39 -257.5l223.39 -282.5h-40.5z" />
    <glyph glyph-name="uni0437.ss02" horiz-adv-x="559" 
d="M390.51 192.93c70.4102 -24.4404 120.74 -97.7402 120.74 -180.931c0 -126.5 -95.75 -213.5 -234.5 -213.5c-127.5 0 -225.75 75.75 -243 187.25h32c17.25 -93 102 -156 211 -156c117.75 0 202.25 72.75 202.25 184c0 86.5 -65 162 -152.75 162h-121.75l-0.25 31h120.5
c76.25 0 131.25 73.25 131.25 150.5c0 97.25 -77 161.75 -185.25 161.75c-99.25 0 -174.75 -58.75 -189.5 -147.5h-31.25c14.5 107.25 103 178.75 220.75 178.75c128 0 217.5 -78.75 217.5 -191.5c0 -74.5195 -41.2998 -138.72 -97.7402 -165.819z" />
    <glyph glyph-name="uni0438.ss02" horiz-adv-x="641" 
d="M510.25 540h32.001v-540h-26l-5.32031 123.62c-37.0303 -79.1299 -118.65 -134.12 -211.181 -134.12c-130.25 0 -211.75 91.75 -211.75 231v319.5h32v-314c0 -128.75 69.75 -206.5 185.75 -206.5c110.25 0 204.5 94.75 204.5 206v314.5z" />
    <glyph glyph-name="uni0439.ss02" horiz-adv-x="641" 
d="M445.75 702v-26.25h-250.5v26.25h250.5zM510.25 540h32.001v-540h-26l-5.32031 123.62c-37.0303 -79.1299 -118.65 -134.12 -211.181 -134.12c-130.25 0 -211.75 91.75 -211.75 231v319.5h32v-314c0 -128.75 69.75 -206.5 185.75 -206.5c110.25 0 204.5 94.75 204.5 206
v314.5z" />
    <glyph glyph-name="uni043A.ss02" horiz-adv-x="510" 
d="M464.5 0l-230.71 266.75h-101.04v-266.75h-32v730.75h32v-433.75h101.52l210.98 243h40l-223.76 -258.28l243.76 -281.72h-40.75z" />
    <glyph glyph-name="uni043B.ss02" horiz-adv-x="521" 
d="M491 0h-33.25l-196.74 491.85l-200.51 -491.85h-32.75l220.25 540h25.25z" />
    <glyph glyph-name="uni043F.ss02" horiz-adv-x="641" 
d="M340.75 550.5c130.25 0 211.75 -91.751 211.75 -231.001v-319.5h-32v314c0 128.75 -70 206.5 -185.75 206.5c-110.25 0 -204.5 -94.75 -204.5 -206v-314.5h-32v540h25.25l5.66016 -124.51c36.8301 79.6104 118.71 135.011 211.59 135.011z" />
    <glyph glyph-name="uni0442.ss02" horiz-adv-x="956" 
d="M685.75 550.5c109 0 181.249 -84.501 181.249 -209.751v-340.75h-31.25l-0.75 333.5c0 113 -61 187 -154 187c-107.25 0 -181.75 -83.25 -182.5 -204.75v-315.75h-31.5v333.5c0 114.5 -60.25 187 -154.25 187c-107.25 0 -181.75 -83.25 -182.5 -204.75v-315.75h-32v540
h25.5l5.03027 -110.02c33.8604 74.8203 103.091 120.521 189.221 120.521c86.3896 0 149.64 -53.4102 171.83 -138.28c30.4102 85.2803 103.37 138.28 195.92 138.28z" />
    <glyph glyph-name="uni0446.ss02" horiz-adv-x="662" 
d="M542.25 142.25c0 -81.5 32.5 -118 106.25 -118v-176h-30.25v153.15c-70.4502 5.79004 -99.3105 46.4805 -103.82 128.15c-36.1797 -80.6904 -119.77 -140.051 -214.68 -140.051c-130.25 0 -211.75 91.5 -211.75 230.75v319.75h32v-313.75
c0 -129 70 -206.75 185.75 -206.75c110.25 0 204.5 95 204.5 206.25v314.25h32v-397.75z" />
    <glyph glyph-name="uni0448.ss02" horiz-adv-x="955" 
d="M824.5 540h32v-540h-26l-4.62012 109.28c-33.9805 -74.3799 -103.04 -119.78 -188.88 -119.78c-86.3896 0 -149.64 53.4102 -171.83 138.271c-30.4102 -85.2803 -103.37 -138.271 -195.92 -138.271c-109 0 -181.25 84.5 -181.25 209.75v340.75h31.25l0.75 -333.5
c0.75 -113 61 -187 154 -187c107.25 0 181.75 83.25 182.5 204.75v315.75h31.5v-333.5c0 -114.5 60.25 -187 154.25 -187c107 0 181.5 83.25 182.25 204.75v315.75z" />
    <glyph glyph-name="uni0449.ss02" horiz-adv-x="977" 
d="M856.75 142.25c0 -82 33.001 -118.01 106.001 -118.01v-176h-30v153.55c-63.5303 5.25 -96.7705 38.7197 -104.221 111.33c-32.9902 -76.6201 -103.681 -123.62 -191.53 -123.62c-86.3896 0 -149.64 53.4102 -171.83 138.271
c-30.4102 -85.2803 -103.37 -138.271 -195.92 -138.271c-109 0 -181.25 84.5 -181.25 209.75v340.75h31.25l0.75 -333.5c0.75 -113 61 -187 154 -187c107.25 0 181.75 83.25 182.5 204.75v315.75h31.5v-333.5c0 -114.5 60.25 -187 154.25 -187
c107.25 0 182.5 83.25 182.5 204.75v315.75h32v-397.75z" />
    <glyph glyph-name="uni044E.ss02" horiz-adv-x="843" 
d="M518.25 550.5c156.25 0 273.498 -120.75 273.498 -280.75c0 -160.5 -117 -280.25 -273.5 -280.25c-152.31 0 -267.569 112.34 -274.659 265.25h-113.34v-256.5h-32v732.5h32v-445.5h113.37c7.32031 152.9 122.721 265.25 274.631 265.25zM518.248 20.75
c138.25 0 241 106.75 241 249c0 142.5 -103.75 249.5 -241 249.5c-139 0 -242.5 -107 -242.5 -249.5c0 -142.25 103.5 -249 242.5 -249z" />
    <glyph glyph-name="uni0436.ss03" horiz-adv-x="742" 
d="M355.25 0v730.75h31.25v-730.75h-31.25zM21.75 540h39.25l244.75 -254.75v-8.25l-264.75 -277h-39.5l266.85 281.59zM473.07 281.98l267.18 -281.98h-39.5l-264.75 277v8.25l244.75 254.75h39.25z" />
    <glyph glyph-name="uni043A.ss03" horiz-adv-x="491" 
d="M98.25 0v730.75h32v-730.75h-32zM216.99 282.06l275.26 -282.06h-42.25l-270 277.5v8.25l251.5 254.25h41.5z" />
    <glyph glyph-name="Alpha" unicode="&#x391;" horiz-adv-x="680" 
d="M619.75 0l-87.96 202.75h-385.31l-86.4805 -202.75h-35l297 700h28.25l305 -700h-35.5zM336.67 652.48l-177.39 -418.98h359.46z" />
    <glyph glyph-name="Beta" unicode="&#x392;" horiz-adv-x="644" 
d="M447.49 368.91c76.0303 -22.3496 131.01 -94.0596 131.01 -178.92c0 -105.25 -81.75 -190 -204.75 -190h-266.25v700h265.25c110.5 0 184.75 -74.75 184.75 -169.5c0 -73 -45.7002 -137.69 -110.01 -161.58zM379.489 667.74h-239.5v-283.25h244.75
c78.75 0 139.5 67.25 139.5 142.75c0 78.75 -64 140.5 -144.75 140.5zM380.739 32.4902c92.5 0 164.25 70 164.25 160.25c0 88.5 -71 159.5 -160.5 159.5h-244.5v-319.75h240.75z" />
    <glyph glyph-name="Gamma" unicode="&#x393;" horiz-adv-x="486" 
d="M464.5 700v-31.25h-324.25v-668.75h-32.75v700h357z" />
    <glyph glyph-name="uni0394" unicode="&#x394;" horiz-adv-x="677" 
d="M349.75 700l304 -700h-626.75l293 700h29.75zM335.08 653.28l-258.94 -622.03h526.7z" />
    <glyph glyph-name="Epsilon" unicode="&#x395;" horiz-adv-x="542" 
d="M140.25 31.75h354.75v-31.75h-387.5v700h376.5v-31.5h-343.75v-287.25h317.75v-31h-317.75v-318.5z" />
    <glyph glyph-name="Zeta" unicode="&#x396;" horiz-adv-x="538" 
d="M75.5703 31.25h443.93v-31.25h-495v8.5l425.83 660.25h-411.33v31.25h463.75v-7.5z" />
    <glyph glyph-name="Eta" unicode="&#x397;" horiz-adv-x="728" 
d="M588 700h32.75v-700h-32.75v349.25h-447.75v-349.25h-32.75v700h32.75v-319h447.75v319z" />
    <glyph glyph-name="Theta" unicode="&#x398;" horiz-adv-x="833" 
d="M416.25 -10.5c-209.75 0 -361 155 -361 359.5c0 205.5 151.25 361.5 361 361.5c210 0 361 -155 361 -361.5c0 -205.5 -151 -359.5 -361 -359.5zM416.25 21.75c190.5 0 327.75 140.5 327.75 327.5c0 187.75 -137.25 329 -327.75 329s-327.75 -142.25 -327.75 -329
c0 -186.25 135 -327.5 327.75 -327.5zM180.5 334.25v32h467v-32h-467z" />
    <glyph glyph-name="Iota" unicode="&#x399;" horiz-adv-x="248" 
d="M107.5 0v700h32.75v-700h-32.75z" />
    <glyph glyph-name="Kappa" unicode="&#x39a;" horiz-adv-x="604" 
d="M558.5 0l-299.2 348.5h-119.05v-348.5h-32.75v700h32.75v-320.25h119l273.5 320.25h42.25l-286.5 -335.42l312.5 -364.58h-42.5z" />
    <glyph glyph-name="Lambda" unicode="&#x39b;" horiz-adv-x="651" 
d="M624.75 0h-35.5l-264.7 649.04l-260.3 -649.04h-34.75l280.5 700h28.25z" />
    <glyph glyph-name="Mu" unicode="&#x39c;" horiz-adv-x="943" 
d="M890.25 0h-33.25l-112.05 637.2l-267.95 -605.45h-12.25l-267.24 604.69l-113.01 -636.44h-33.25l123.75 700h29l266.27 -608.07l267.98 608.07h29.5z" />
    <glyph glyph-name="Nu" unicode="&#x39d;" horiz-adv-x="745" 
d="M605 700h32.25v-700h-28.25l-469.25 641.78v-641.78h-32.25v700h29.75l467.75 -640.49v640.49z" />
    <glyph glyph-name="Xi" unicode="&#x39e;" horiz-adv-x="548" 
d="M53.25 667.75v32.25h441.75v-32.25h-441.75zM92.25 350.25v31.75h363.75v-31.75h-363.75zM45.25 0v32.5h456.75v-32.5h-456.75z" />
    <glyph glyph-name="Omicron" unicode="&#x39f;" horiz-adv-x="833" 
d="M416.25 -10.5c-210.5 0 -361 155 -361 359.75c0 205.5 150.5 361.25 361 361.25s361 -155 361 -361.25c0 -205.5 -150.5 -359.75 -361 -359.75zM416.25 21.75c191 0 327.75 140.5 327.75 327.5c0 187.75 -136.75 329 -327.75 329s-327.75 -142.25 -327.75 -329
c0 -186 136.75 -327.5 327.75 -327.5z" />
    <glyph glyph-name="Pi" unicode="&#x3a0;" horiz-adv-x="695" 
d="M107.5 700h479.5v-700h-33v668.75h-413.75v-668.75h-32.75v700z" />
    <glyph glyph-name="Rho" unicode="&#x3a1;" horiz-adv-x="599" 
d="M343.25 700c124.75 0 219.75 -90 219.75 -210.25c0 -120.75 -94 -211 -219.75 -211h-203v-278.75h-32.75v700h235.75zM342 310.75c107.75 0 187.75 76.5 187.75 179c0 101.75 -80 178.25 -187.75 178.25h-201.75v-357.25h201.75z" />
    <glyph glyph-name="Sigma" unicode="&#x3a3;" horiz-adv-x="548" 
d="M79.9502 31.25h439.05v-31.25h-492v14.25l253.35 340.72l-247.35 330.78v14.25h477v-31.25h-424.01l231.51 -309v-9.75z" />
    <glyph glyph-name="Tau" unicode="&#x3a4;" horiz-adv-x="533" 
d="M511 700v-31.25h-228.25v-668.75h-32.75v668.75h-228.25v31.25h489.25z" />
    <glyph glyph-name="Upsilon" unicode="&#x3a5;" horiz-adv-x="640" 
d="M606 700l-269.75 -423.48v-276.52h-33.5v275.91l-267 424.09h36.5l247.54 -391.98l249.71 391.98h36.5z" />
    <glyph glyph-name="Phi" unicode="&#x3a6;" horiz-adv-x="789" 
d="M411.5 677.25c190.5 -2.25 325.25 -145.25 325.25 -327.75c0 -181.5 -134.75 -323.25 -325.25 -325.75v-84.75h-32.75v84.75c-190.25 2.5 -326.75 145.25 -326.75 325.75c0 182.5 136.5 325.5 326.75 327.75v79.25h32.75v-79.25zM85.25 349.5
c0 -165.76 124.63 -293.38 293.75 -294.75v591.99c-169.12 -1.87012 -293.75 -130.74 -293.75 -297.24zM411.25 54.75c169.36 1.37012 292 128.24 292 294.75c0 167.5 -122.64 295.37 -292 297.24v-591.99z" />
    <glyph glyph-name="Chi" unicode="&#x3a7;" horiz-adv-x="579" 
d="M566.75 0h-38.0098l-238.99 339.98l-239 -339.98h-38.25l256.88 365.86l-235.13 334.14h38l217.5 -309.27l217.75 309.27h38l-235.44 -335.15z" />
    <glyph glyph-name="Psi" unicode="&#x3a8;" horiz-adv-x="781" 
d="M694.75 699.25h32.75v-218.75c0 -179.5 -120.5 -300.25 -299.25 -300.25h-21.25v-180.25h-33v180.25h-21.25c-178.75 0 -299.25 120.75 -299.25 300.25v218.75h32.75v-216c0 -162.5 106.25 -269.5 266.75 -269.5h21.5v486.25h32v-486.25h21.5
c160.5 0 266.75 107 266.75 269.5v216z" />
    <glyph glyph-name="uni03A9" unicode="&#x3a9;" horiz-adv-x="848" 
d="M577.86 31.25h209.64v-31.25h-301.75v30.75c157.25 34.5 265.5 168 265.5 326.5c0 181 -142.75 321 -327.5 321c-184.5 0 -327.25 -140 -327.25 -321c0 -158.5 107.5 -292 263.75 -326.5v-30.75h-301.75v31.25h210.35c-124 60.21 -205.6 181.9 -205.6 327.75
c0 198.5 157 351.5 360.5 351.5c202.75 0 360.75 -153 360.75 -351.5c0 -145.85 -81.7695 -267.54 -206.64 -327.75z" />
    <glyph glyph-name="Alphatonos" unicode="&#x386;" horiz-adv-x="680" 
d="M619.75 0l-87.96 202.75h-385.31l-86.4805 -202.75h-35l297 700h28.25l305 -700h-35.5zM109.5 558l86.5 142h35.25l-93.25 -142h-28.5zM336.67 652.48l-177.39 -418.98h359.46z" />
    <glyph glyph-name="Epsilontonos" unicode="&#x388;" horiz-adv-x="542" 
d="M-63.75 558l86.5 142h35.25l-93.25 -142h-28.5zM140.25 31.75h354.75v-31.75h-387.5v700h376.5v-31.5h-343.75v-287.25h317.75v-31h-317.75v-318.5z" />
    <glyph glyph-name="Etatonos" unicode="&#x389;" horiz-adv-x="728" 
d="M-64.5 558l86.5 142h35.25l-93.25 -142h-28.5zM588 700h32.75v-700h-32.75v349.25h-447.75v-349.25h-32.75v700h32.75v-319h447.75v319z" />
    <glyph glyph-name="Iotatonos" unicode="&#x38a;" horiz-adv-x="248" 
d="M-65 558l86.5 142h35.25l-93.25 -142h-28.5zM107.5 0v700h32.75v-700h-32.75z" />
    <glyph glyph-name="Omicrontonos" unicode="&#x38c;" horiz-adv-x="833" 
d="M416.25 -10.5c-210.5 0 -361 155 -361 359.75c0 205.5 150.5 361.25 361 361.25s361 -155 361 -361.25c0 -205.5 -150.5 -359.75 -361 -359.75zM-15.25 558l86.5 142h35.25l-93.25 -142h-28.5zM416.25 21.75c191 0 327.75 140.5 327.75 327.5
c0 187.75 -136.75 329 -327.75 329s-327.75 -142.25 -327.75 -329c0 -186 136.75 -327.5 327.75 -327.5z" />
    <glyph glyph-name="Upsilontonos" unicode="&#x38e;" horiz-adv-x="640" 
d="M569.5 700h36.5l-269.75 -423.48v-276.52h-33.5v275.91l-266.76 423.7l-92.9902 -141.61h-28.5l86.5 142h71.25l247.54 -391.98z" />
    <glyph glyph-name="Omegatonos" unicode="&#x38f;" horiz-adv-x="848" 
d="M577.86 31.25h209.64v-31.25h-301.75v30.75c157.25 34.5 265.5 168 265.5 326.5c0 181 -142.75 321 -327.5 321c-184.5 0 -327.25 -140 -327.25 -321c0 -158.5 107.5 -292 263.75 -326.5v-30.75h-301.75v31.25h210.35c-124 60.21 -205.6 181.9 -205.6 327.75
c0 198.5 157 351.5 360.5 351.5c202.75 0 360.75 -153 360.75 -351.5c0 -145.85 -81.7695 -267.54 -206.64 -327.75zM77.25 700h35.25l-93.25 -142h-28.5z" />
    <glyph glyph-name="Iotadieresis" unicode="&#x3aa;" horiz-adv-x="248" 
d="M29.5 818.5v55.75h46v-55.75h-46zM171.75 818.5v55.75h46v-55.75h-46zM107.5 0v700h32.75v-700h-32.75z" />
    <glyph glyph-name="Upsilondieresis" unicode="&#x3ab;" horiz-adv-x="640" 
d="M195.25 818.5v55.75h48.5v-55.75h-48.5zM398.5 818.5v55.75h48.5v-55.75h-48.5zM606 700l-269.75 -423.48v-276.52h-33.5v275.91l-267 424.09h36.5l247.54 -391.98l249.71 391.98h36.5z" />
    <glyph glyph-name="alpha" unicode="&#x3b1;" horiz-adv-x="702" 
d="M576.5 540l27.2402 -0.0107422v-540h-28l-3.54004 140.98c-43.2803 -91.3496 -133.311 -151.479 -246.45 -151.479c-157 0 -275.5 121 -275.5 280.5c0 159.75 118.5 280.5 275.5 280.5c113.24 0 203.34 -60.1104 246.58 -151.62zM327.49 20.7393
c141 0 243.75 105.25 243.75 249.25s-102.75 249.25 -243.75 249.25c-139.5 0 -244.75 -107.75 -244.75 -249.25c0 -142.25 105.25 -249.25 244.75 -249.25z" />
    <glyph glyph-name="beta" unicode="&#x3b2;" horiz-adv-x="622" 
d="M435.07 383.37c83.0596 -22.5498 134.93 -89.5303 134.93 -184.12c0 -124.25 -95.25 -209.75 -233.5 -209.75c-88.0098 0 -157.31 29.6904 -207 88.6406v-265.89h-32v644c0 184.5 82.25 285 235.5 285c127.75 0 215.75 -77.5 215.75 -191
c0 -80.8701 -44.5801 -143.69 -113.68 -166.881zM334.25 20.75c124.25 0 204.5 71.5 204.5 180.5c0 99.5 -69.5 165.25 -174.75 165.25h-130.75v29.75h130c91.75 0 155.75 61.25 155.75 150.75c0 98.25 -74.5 164.25 -185.5 164.25c-134 0 -204 -88 -204 -255v-338.09
c46.79 -66.2197 116.69 -97.4102 204.75 -97.4102z" />
    <glyph glyph-name="gamma" unicode="&#x3b3;" horiz-adv-x="558" 
d="M531.5 540l-232.75 -512.4v-217.6h-31.5v217.36l-241.75 512.64h34.25l223.08 -471.92l214.42 471.92h34.25z" />
    <glyph glyph-name="delta" unicode="&#x3b4;" horiz-adv-x="606" 
d="M138.78 673.25c215.31 -84.0898 416.721 -242.381 416.721 -435.001c0 -139 -107.25 -248.75 -253 -248.75c-144 0 -253.25 107 -253.25 249c0 139.75 108.75 247.25 248 247.25c56.7998 0 105.67 -17.2695 144.39 -46.7891
c-77.7803 91.4199 -208.471 175.33 -369.891 231.54v32.5h457.75v-29.75h-390.72zM302.501 19.749c126.75 0 221.75 95 221.75 218.75c0 125.5 -96 219 -221.75 219c-128.25 0 -221.5 -95 -221.5 -219c0 -123.75 94 -218.75 221.5 -218.75z" />
    <glyph glyph-name="epsilon" unicode="&#x3b5;" horiz-adv-x="479" 
d="M414.25 121.75h30.75c-17.25 -80 -92.25 -132.25 -189.25 -132.25c-114 0 -195.75 67 -195.75 160.75c0 63.96 38.4297 115.47 95.4102 135.59c-51.0801 18.8799 -84.4102 62.6104 -84.4102 119.16c0 83.25 77.5 145.5 180.25 145.5c91.5 0 163 -50.25 178.5 -126h-30.25
c-15.5 59.5 -73 98.25 -147.5 98.25c-86.5 0 -150 -50.75 -150 -119.25c0 -59.5 46.5 -105.5 116.25 -105.5h98v-26.25h-98.75c-74.25 0 -125.75 -55.5 -125.75 -120c0 -77.25 68.5 -132.25 164 -132.25c81 0 142 41 158.5 102.25z" />
    <glyph glyph-name="zeta" unicode="&#x3b6;" horiz-adv-x="494" 
d="M489 708.75c-269.5 -217 -407.75 -342.5 -407.75 -484.25c0 -214 385.25 -158.75 385.25 -332.5c0 -21.25 -5 -56.25 -12.75 -82.75h-31.25c6.75 22 12.25 58.5 12.25 77.5c0 148.75 -386 98.25 -386 334.75c0 144.23 120.67 262.29 382.54 478h-354.54v31.25h412.25v-22
z" />
    <glyph glyph-name="eta" unicode="&#x3b7;" horiz-adv-x="641" 
d="M340.75 550.5c130.25 0 211.75 -89.501 211.75 -231.001v-510.25h-32v504.75c0 128.75 -70 206.5 -185.75 206.5c-110.25 0 -204.5 -94.75 -204.5 -206v-314.5h-32v540h25.25l5.99023 -123.8c36.9902 79.2305 118.66 134.301 211.26 134.301z" />
    <glyph glyph-name="theta" unicode="&#x3b8;" horiz-adv-x="693" 
d="M346.5 739.5c179 0 284.5 -160 284.5 -375s-105.5 -375 -284.5 -375c-180.75 0 -284.25 161 -284.25 375s103.5 375 284.25 375zM346.5 708.25c-150.39 0 -247.311 -128.8 -252.07 -328.25h504.38c-4.7998 199.45 -102.649 328.25 -252.31 328.25zM346.499 20.75
c148.8 0 247.61 129.48 252.32 328.75h-504.4c4.62988 -199.97 102.05 -328.75 252.08 -328.75z" />
    <glyph glyph-name="iota" unicode="&#x3b9;" horiz-adv-x="334" 
d="M256.5 -3c-104 0 -166 61.5 -166 165v378h32v-375.75c0 -86.5 50.5 -136.75 137.5 -136.75h62.5v-30.5h-66z" />
    <glyph glyph-name="kappa" unicode="&#x3ba;" horiz-adv-x="506" 
d="M462 0l-230.71 266.75h-101.04v-266.75h-32v540h32v-243h101.55l211.7 243h40l-224.5 -258.29l243.75 -281.71h-40.75z" />
    <glyph glyph-name="lambda" unicode="&#x3bb;" horiz-adv-x="556" 
d="M520.25 0h-34.75l-198.91 480.66l-234.59 -480.66h-35l253.24 519.69l-27.7402 65.5596c-29.5 71.25 -58 94.75 -115.75 94.75h-27.25v30.5h29.75c70.5 0 107.5 -31 143 -115.75z" />
    <glyph glyph-name="uni03BC" unicode="&#x3bc;" horiz-adv-x="642" 
d="M511.75 540h31.999v-540h-24.5l-5.54004 129.59c-34.3096 -80.0303 -117.159 -139.84 -206.459 -139.84c-84.5898 0 -149.2 38.2197 -177.5 105.42v-285.92h-31.5v730.75h32v-322.25c0 -123.75 67.25 -196.75 179.5 -196.75c108.25 0 202 94.25 202 203.25v315.75z" />
    <glyph glyph-name="nu" unicode="&#x3bd;" horiz-adv-x="564" 
d="M504 540h33.25l-240.25 -540h-27l-245.5 540h33.75l225.18 -494.47z" />
    <glyph glyph-name="xi" unicode="&#x3be;" horiz-adv-x="506" 
d="M279.25 708c-104.25 0 -177.01 -64.25 -177.01 -157.25c0 -83 62 -144.25 144 -144.25h123.75v-29.5h-124c-89.75 0 -158.25 -73.75 -158.25 -170c0 -133.25 108.25 -164.25 206.25 -194c79.75 -23.25 157.5 -46.75 157.5 -120.25c0 -20.75 -5.25 -58.5 -13 -83.5h-32.25
c6.5 20.75 12.25 58.5 12.25 78.5c0 52.75 -56.75 72.5 -140.25 96.75c-115.5 35 -224.25 76 -224.25 220.25c0 90.5898 52.1699 164.05 128.26 187.33c-67 21.3203 -113 82.79 -113 159.42c0 109.25 87 186 210 186c111.5 0 199.25 -70.5 215.5 -173.75h-31.75
c-17.25 86 -90.75 144.25 -183.75 144.25z" />
    <glyph glyph-name="omicron" unicode="&#x3bf;" horiz-adv-x="663" 
d="M331.25 -10.5c-160.25 0 -281 120 -281 280.5c0 161.5 120.75 280.5 281 280.5c161 0 281 -120 281 -280.5s-120 -280.5 -281 -280.5zM331.25 20.75c142.75 0 248.5 106.5 248.5 249.25s-105.75 249.25 -248.5 249.25s-248.5 -105.75 -248.5 -249.25
c0 -142.75 106.5 -249.25 248.5 -249.25z" />
    <glyph glyph-name="pi" unicode="&#x3c0;" horiz-adv-x="630" 
d="M98.25 540h433.5v-540h-31.75v510h-369.75v-510h-32v540z" />
    <glyph glyph-name="rho" unicode="&#x3c1;" horiz-adv-x="677" 
d="M354 550.25c155.5 0 271.501 -120.999 271.501 -280.249c0 -160 -116 -280.5 -270.75 -280.5c-110.86 0 -205.341 65.3096 -241.751 160.369v-340.62h-32.5v459c0 162 116 282 273.5 282zM353.751 20.751c138.5 0 239.75 106.5 239.75 249.25
c0 142.5 -102 249 -239.75 249c-139.25 0 -241.25 -106.5 -241.25 -249c0 -142.75 102.25 -249.25 241.25 -249.25z" />
    <glyph glyph-name="uni03C2" unicode="&#x3c2;" horiz-adv-x="602" 
d="M485.5 -190.75c6.5 22 12.25 59.5 12.25 78.5c0 73.25 -78 92.5 -168.25 115.5c-126.25 33 -278.25 73.25 -278.25 284.25c0 150.5 118.75 262.75 277.5 262.75c117 0 214.5 -65.5 253.25 -172h-32.5c-39 88.75 -121.75 140.5 -221 140.5
c-140 0 -244.75 -98 -244.75 -231.25c0 -187.75 136.25 -223 259.5 -255.25c94.5 -24.25 186 -46.75 186 -139.5c0 -20.75 -5.25 -58.5 -12.75 -83.5h-31z" />
    <glyph glyph-name="sigma" unicode="&#x3c3;" horiz-adv-x="692" 
d="M674.25 540.25v-30h-232.51c97.3799 -37.71 162.01 -131.02 162.01 -245.25c0 -158.5 -116.5 -275.5 -276 -275.5c-158.75 0 -276.75 117.5 -276.75 275.5c0 158.75 118 275.25 277.5 275.25h345.75zM571.75 265.25c0 140.25 -103 243.75 -244.25 243.75
s-244.25 -102.75 -244.25 -243.75s103 -244.5 244.25 -244.5s244.25 103.5 244.25 244.5z" />
    <glyph glyph-name="tau" unicode="&#x3c4;" horiz-adv-x="476" 
d="M440.75 510.25h-203.5v-346c0 -86.5 50.5 -136.75 137.5 -136.75h62.5v-30.5h-66c-104 0 -166 61.5 -166 165v348.25h-190.25v29.75h425.75v-29.75z" />
    <glyph glyph-name="upsilon" unicode="&#x3c5;" horiz-adv-x="631" 
d="M315.25 -10.5c-139.25 0 -227.5 92.75 -227.5 237v313.5h32v-309.75c0 -129.25 75 -209.5 195.5 -209.5c120.75 0 195.5 80.5 195.5 209.5v309.75h32v-313.5c0 -144.25 -88 -237 -227.5 -237z" />
    <glyph glyph-name="phi" unicode="&#x3c6;" horiz-adv-x="715" 
d="M664.5 267.5c0 -160.93 -119.28 -275.86 -291 -277.73v-180.52h-31.5v180.51c-167.49 1.63965 -291.75 120.83 -291.75 277.74c0 123.25 76 226.25 197.25 266.5l9.5 -27.75c-108.25 -37.25 -175 -128 -175 -238.75c0 -140.16 110.52 -244.87 260 -246.48v518.98h27.25
c174.5 0 295.25 -110.5 295.25 -272.5zM373.5 21.0186c152.24 1.86035 259.25 103.312 259.25 246.481c0 141.85 -105.78 239.909 -259.75 241.479v-415.98l0.5 -58v-13.9805z" />
    <glyph glyph-name="chi" unicode="&#x3c7;" horiz-adv-x="486" 
d="M474.25 0h-37l-194.19 261.19l-194.31 -261.19h-36.5l211.29 283.26l-190.79 256.74h37l173.5 -233.77l174.25 233.77h36.5l-191.38 -256.06z" />
    <glyph glyph-name="psi" unicode="&#x3c8;" horiz-adv-x="768" 
d="M653 540h32v-279.75c0 -156.25 -109 -270.5 -260 -270.5h-24.25v-180.5h-33.5v180.5h-24c-151 0 -260 115.25 -260 270.5v279.75h32v-278.75c0 -137 97.25 -238.5 229 -238.5h24v516.25h31.75v-516.25h24.25c132.25 0 228.75 100.5 228.75 238.5v278.75z" />
    <glyph glyph-name="omega" unicode="&#x3c9;" horiz-adv-x="898" 
d="M774.5 540c38.25 -89.5 59.25 -187.75 59.25 -276.25c0 -155 -64.25 -273.25 -197.5 -273.25c-90.5098 0 -164.399 52.4199 -187.539 129.28c-23.3604 -76.8604 -97.4307 -129.28 -187.711 -129.28c-134 0 -197.25 117 -197.25 272.25c0 88.5 20.75 186.25 59 277.25h34
c-38.75 -88 -61 -188.75 -61 -274.75c0 -153.75 62.75 -243.75 169.75 -243.75c94.5 0 168 70.75 168 162.5v186.5h30.25v-186.5c0 -91.75 73.5 -162.5 167.75 -162.5c106.5 0 169.75 91.25 169.75 244.75c0 86 -22.25 187.5 -60.5 273.75h33.75z" />
    <glyph glyph-name="iotatonos" unicode="&#x3af;" horiz-adv-x="334" 
d="M86 606l78 152h35l-84.5 -152h-28.5zM256.5 -3c-104 0 -166 61.5 -166 165v378h32v-375.75c0 -86.5 50.5 -136.75 137.5 -136.75h62.5v-30.5h-66z" />
    <glyph glyph-name="iotadieresis" unicode="&#x3ca;" horiz-adv-x="334" 
d="M-1 660v55.75h48.5v-55.75h-48.5zM166.25 660v55.75h48.5v-55.75h-48.5zM256.5 -3c-104 0 -166 61.5 -166 165v378h32v-375.75c0 -86.5 50.5 -136.75 137.5 -136.75h62.5v-30.5h-66z" />
    <glyph glyph-name="iotadieresistonos" unicode="&#x390;" horiz-adv-x="334" 
d="M89.25 606.75l40.5 152h29.25l-45.75 -152h-24zM0.75 662.25v51.25h42.75v-51.25h-42.75zM206.5 662.25v51.25h42.75v-51.25h-42.75zM256.5 -3c-104 0 -166 61.5 -166 165v378h32v-375.75c0 -86.5 50.5 -136.75 137.5 -136.75h62.5v-30.5h-66z" />
    <glyph glyph-name="upsilontonos" unicode="&#x3cd;" horiz-adv-x="631" 
d="M294.25 606l78 152h35l-84.5 -152h-28.5zM315.25 -10.5c-139.25 0 -227.5 92.75 -227.5 237v313.5h32v-309.75c0 -129.25 75 -209.5 195.5 -209.5c120.75 0 195.5 80.5 195.5 209.5v309.75h32v-313.5c0 -144.25 -88 -237 -227.5 -237z" />
    <glyph glyph-name="upsilondieresis" unicode="&#x3cb;" horiz-adv-x="631" 
d="M207.25 660v55.75h48.5v-55.75h-48.5zM374.5 660v55.75h48.5v-55.75h-48.5zM315.25 -10.5c-139.25 0 -227.5 92.75 -227.5 237v313.5h32v-309.75c0 -129.25 75 -209.5 195.5 -209.5c120.75 0 195.5 80.5 195.5 209.5v309.75h32v-313.5c0 -144.25 -88 -237 -227.5 -237z
" />
    <glyph glyph-name="upsilondieresistonos" unicode="&#x3b0;" horiz-adv-x="631" 
d="M270 606.75l58.25 152h32.25l-62.5 -152h-28zM185 661.5v51.25h42.75v-51.25h-42.75zM410 661.5v51.25h42.75v-51.25h-42.75zM315.25 -10.5c-139.25 0 -227.5 92.75 -227.5 237v313.5h32v-309.75c0 -129.25 75 -209.5 195.5 -209.5c120.75 0 195.5 80.5 195.5 209.5
v309.75h32v-313.5c0 -144.25 -88 -237 -227.5 -237z" />
    <glyph glyph-name="omicrontonos" unicode="&#x3cc;" horiz-adv-x="663" 
d="M310.25 606l78 152h35l-84.5 -152h-28.5zM331.25 -10.5c-160.25 0 -281 120 -281 280.5c0 161.5 120.75 280.5 281 280.5c161 0 281 -120 281 -280.5s-120 -280.5 -281 -280.5zM331.25 20.75c142.75 0 248.5 106.5 248.5 249.25s-105.75 249.25 -248.5 249.25
s-248.5 -105.75 -248.5 -249.25c0 -142.75 106.5 -249.25 248.5 -249.25z" />
    <glyph glyph-name="omegatonos" unicode="&#x3ce;" horiz-adv-x="898" 
d="M536.5 758l-84.5 -152h-28.5l78 152h35zM774.5 540c38.25 -89.5 59.25 -187.75 59.25 -276.25c0 -155 -64.25 -273.25 -197.5 -273.25c-90.5098 0 -164.399 52.4199 -187.539 129.28c-23.3604 -76.8604 -97.4307 -129.28 -187.711 -129.28
c-134 0 -197.25 117 -197.25 272.25c0 88.5 20.75 186.25 59 277.25h34c-38.75 -88 -61 -188.75 -61 -274.75c0 -153.75 62.75 -243.75 169.75 -243.75c94.5 0 168 70.75 168 162.5v186.5h30.25v-186.5c0 -91.75 73.5 -162.5 167.75 -162.5
c106.5 0 169.75 91.25 169.75 244.75c0 86 -22.25 187.5 -60.5 273.75h33.75z" />
    <glyph glyph-name="alphatonos" unicode="&#x3ac;" horiz-adv-x="702" 
d="M424.25 758l-84.5 -152h-28.5l78 152h35zM576.5 540l27.2402 -0.0107422v-540h-28l-3.54004 140.98c-43.2803 -91.3496 -133.311 -151.479 -246.45 -151.479c-157 0 -275.5 121 -275.5 280.5c0 159.75 118.5 280.5 275.5 280.5c113.24 0 203.34 -60.1104 246.58 -151.62z
M327.49 20.7393c141 0 243.75 105.25 243.75 249.25s-102.75 249.25 -243.75 249.25c-139.5 0 -244.75 -107.75 -244.75 -249.25c0 -142.25 105.25 -249.25 244.75 -249.25z" />
    <glyph glyph-name="epsilontonos" unicode="&#x3ad;" horiz-adv-x="479" 
d="M321.75 758l-84.5 -152h-28.5l78 152h35zM414.25 121.75h30.75c-17.25 -80 -92.25 -132.25 -189.25 -132.25c-114 0 -195.75 67 -195.75 160.75c0 63.96 38.4297 115.47 95.4102 135.59c-51.0801 18.8799 -84.4102 62.6104 -84.4102 119.16
c0 83.25 77.5 145.5 180.25 145.5c91.5 0 163 -50.25 178.5 -126h-30.25c-15.5 59.5 -73 98.25 -147.5 98.25c-86.5 0 -150 -50.75 -150 -119.25c0 -59.5 46.5 -105.5 116.25 -105.5h98v-26.25h-98.75c-74.25 0 -125.75 -55.5 -125.75 -120
c0 -77.25 68.5 -132.25 164 -132.25c81 0 142 41 158.5 102.25z" />
    <glyph glyph-name="etatonos" unicode="&#x3ae;" horiz-adv-x="641" 
d="M416.5 758l-84.5 -152h-28.5l78 152h35zM340.75 550.5c130.25 0 211.75 -89.501 211.75 -231.001v-510.25h-32v504.75c0 128.75 -70 206.5 -185.75 206.5c-110.25 0 -204.5 -94.75 -204.5 -206v-314.5h-32v540h25.25l5.99023 -123.8
c36.9902 79.2305 118.66 134.301 211.26 134.301z" />
    <glyph glyph-name="zero" unicode="0" horiz-adv-x="613" 
d="M306.75 -10.5c-150.66 0 -245.641 132.25 -245.641 343.06c0 211.65 94.7305 342.811 245.641 342.811c150.66 0 245.38 -131.16 245.38 -342.811c0 -210.81 -94.9697 -343.06 -245.38 -343.06zM306.75 19.75c131.62 0 213.88 119.23 213.88 312.811
c0 193.79 -82 312.56 -213.88 312.56c-132.13 0 -214.14 -118.77 -214.14 -312.56c0 -193.58 82.0195 -312.811 214.14 -312.811z" />
    <glyph glyph-name="one" unicode="1" horiz-adv-x="309" 
d="M23.75 665h178.5v-665h-31v635.5h-147.5v29.5z" />
    <glyph glyph-name="two" unicode="2" horiz-adv-x="506" 
d="M95.04 30.25h374.21v-30.25h-430.25v17.5c327.75 324.57 362.75 384.5 362.75 481.25c0 87.5 -61.5 146.5 -154.25 146.5c-94.25 0 -159.25 -60.75 -159.25 -146.75v-18.25h-31.25v18.25c0 106 80.25 177 190.5 177s185.75 -71.75 185.75 -176.75
c0 -100.93 -36.0498 -167.14 -338.21 -468.5z" />
    <glyph glyph-name="three" unicode="3" horiz-adv-x="515" 
d="M249 405.75c124.25 -1.5 214.25 -92.5 214.25 -206.5c0 -122.5 -93.25 -209.75 -210.75 -209.75c-115.75 0 -201.25 80 -209.5 192.25h31c8 -95.75 79.75 -162 178.5 -162c102.75 0 179.25 77.25 179.25 180.25c0 100.75 -82 178.5 -190 178.5h-55.25v11.75l203.13 246
h-320.38v29.5h369.5v-12.5l-204.87 -247.5h15.1201z" />
    <glyph glyph-name="four" unicode="4" horiz-adv-x="522" 
d="M494 179.75v-28.75h-83.75v-151h-30.75v151h-359v14l247.75 503.75h33l-239.89 -489h318.14v246.5h30.75v-246.5h83.75z" />
    <glyph glyph-name="five" unicode="5" horiz-adv-x="512" 
d="M245.5 407c127.25 0 220.251 -92.5 220.251 -207.75c0 -122.25 -93.25 -209.75 -210.25 -209.75c-116.25 0 -202.25 80.5 -210 192.25h31c7.75 -95.5 80 -162 179 -162c102.25 0 178.75 77 178.75 179.5c0 100.5 -82 178.75 -189.5 178.75h-156l-7.5 8l30.25 279.75
h310.5v-29.5h-284.03l-24.7803 -229.25h132.31z" />
    <glyph glyph-name="six" unicode="6" horiz-adv-x="538" 
d="M281.25 414c124 0 221.75 -88.25 221.75 -210.75c0 -124 -94.75 -213.75 -224.75 -213.75c-129.75 0 -225.25 90.5 -225.25 213.75c0 61 27.5 146.75 73.75 230.5l134.5 240.25h34.25c-135.6 -244.42 -153.96 -276.77 -172.979 -323.89
c38.7695 39.8301 97.4297 63.8896 158.729 63.8896zM278 19.75c111 0 193.5 78 193.5 183.5c0 105.75 -82.5 182.75 -193.5 182.75s-193.5 -77.25 -193.5 -182.75c0 -105.25 82.5 -183.5 193.5 -183.5z" />
    <glyph glyph-name="seven" unicode="7" horiz-adv-x="477" 
d="M24.5 665.75h426.75v-10.5l-268.5 -655.25h-35l262.6 636.25h-385.85v29.5z" />
    <glyph glyph-name="eight" unicode="8" horiz-adv-x="561" 
d="M366.4 359.49c84.0703 -23.75 137.361 -91.0801 137.361 -179.36c0 -112.95 -90.9004 -190.7 -223.261 -190.7c-132.86 0 -223.011 77 -223.011 190.7c0 87.7598 53.29 154.91 137.64 179.36c-66.0898 23.3799 -108.08 80.7598 -108.08 153.08
c0 96.7305 78.3799 162.631 193.45 162.631s193.2 -65.6504 193.2 -162.631c0 -72.7998 -41.9502 -130.53 -107.3 -153.08zM118.052 512.57c0 -86.7598 69.1104 -140.02 162.45 -140.02c93.0498 0 162.2 53.2197 162.2 140.02c0 79.9805 -64.8301 134.631 -162.2 134.631
c-97.6201 0 -162.45 -54.6504 -162.45 -134.631zM280.502 18.1709c115 0 191.77 65.5801 191.77 161.21c0 103.26 -80.9902 165.109 -191.76 165.109c-110.52 0 -191.51 -61.8496 -191.51 -165.109c0 -95.6299 76.75 -161.21 191.5 -161.21z" />
    <glyph glyph-name="nine" unicode="9" horiz-adv-x="537" 
d="M259 675.5c129.5 0 224.75 -90.5 224.75 -213.75c0 -61 -26.75 -147 -73.25 -230.5l-134.5 -238.75h-34.25c135.11 242.17 153.62 274.27 172.91 322.13c-38.4102 -39.5498 -96.7305 -63.6299 -158.66 -63.6299c-126.25 0 -221.5 90.75 -221.5 210.75
c0 124 94.75 213.75 224.5 213.75zM259.25 279.25c110.75 0 193 77.25 193 182.5s-82.25 183.5 -193 183.5s-193.25 -78 -193.25 -183.5s82.5 -182.5 193.25 -182.5z" />
    <glyph glyph-name="zero.sinf" horiz-adv-x="357" 
d="M178.5 -98.5c-85.25 0 -137.25 74.75 -137.25 191.25c0 118.25 52 191 137.25 191s137.25 -72.75 137.25 -191c0 -116.5 -52 -191.25 -137.25 -191.25zM178.5 -71.25c67.75 0 109.75 61.75 109.75 164c0 103 -41.25 163.75 -109.75 163.75s-109.5 -60.75 -109.5 -163.75
c0 -102 41.5 -164 109.5 -164z" />
    <glyph glyph-name="one.sinf" horiz-adv-x="184" 
d="M21.75 276h100.5v-366.5h-26.75v342h-73.75v24.5z" />
    <glyph glyph-name="two.sinf" horiz-adv-x="304" 
d="M85.5 -63.75h184.75v-26.5h-236.25v10.25c175 177.5 194.5 210.5 194.5 262c0 45.25 -32 76.5 -79.75 76.5c-48.25 0 -82 -32.25 -82 -76.75v-10.25h-27v10.25c0 60 45.25 102.25 108.75 102.25c63.25 0 107.5 -42 107.5 -102c0 -58.25 -28.5098 -100.33 -170.5 -245.75z
" />
    <glyph glyph-name="three.sinf" horiz-adv-x="309" 
d="M153.25 136.25c69.5 -1.5 120 -52 120 -116.75c0 -69.5 -53 -118 -119.5 -118c-66.25 0 -114.25 45.75 -119.25 109h26.75c5 -48.75 42.25 -83 92.5 -83c53.25 0 92.5 39.25 92.5 92.75c0 52.5 -42.75 92.25 -99 92.25h-41v8.5l109.93 129.5h-167.43v25.25h210.5v-8.25
l-112.47 -131.25h6.46973z" />
    <glyph glyph-name="four.sinf" horiz-adv-x="316" 
d="M288.25 14.75v-25h-43.25v-80.25h-26.5v80.25h-193.25v11.5l134.5 274.75h28l-128.6 -261.25h159.51l3.33984 129h23v-129h43.25z" />
    <glyph glyph-name="five.sinf" horiz-adv-x="301" 
d="M146 131.25c70.75 0 121.5 -49.75 121.5 -114.5c0 -67 -51 -115 -116 -115c-64.75 0 -113.25 43.75 -116.25 106.75h27c4 -48 39.25 -81 89.25 -81c51.25 0 88.75 37.75 88.75 89.25c0 51.75 -40.25 89.75 -94.5 89.75h-91.75l-5.5 6.25l18.75 163.25h176.5v-25.25
h-153.87l-13.6797 -119.5h69.7998z" />
    <glyph glyph-name="six.sinf" horiz-adv-x="313" 
d="M163.25 134c69.25 0 120.749 -48.501 120.749 -114.501c0 -68.5 -52.25 -117.75 -124.5 -117.75c-71.25 0 -124.25 49.75 -124.25 117.75c0 32.5 14.75 78.5 40 124.75l76.75 138.5h30.75l-77 -139.5c-6.54004 -12.0596 -12.3203 -23.8594 -17.3799 -35.709
c19.1904 16.2598 46.3105 26.46 74.8809 26.46zM159.249 -72.251c55.5 0 97.75 37.5 97.75 91.75c0 54 -42.25 91.75 -97.75 91.75c-55.25 0 -97 -37.75 -97 -91.75c0 -54.25 41.75 -91.75 97 -91.75z" />
    <glyph glyph-name="seven.sinf" horiz-adv-x="283" 
d="M23.25 276h237.75v-5.5l-147 -361h-28.5l139.6 341.25h-201.85v25.25z" />
    <glyph glyph-name="eight.sinf" horiz-adv-x="331" 
d="M220.51 108c43.8203 -15.8203 70.4893 -50.8086 70.4893 -98.499c0 -64 -51.75 -108 -125.75 -108s-125.5 44 -125.5 108c0 48.0596 26.2305 83.2197 70.7109 98.2695c-33.4199 14.8701 -54.46 44.6104 -54.46 82.4805c0 55.25 44.5 93.5 109.5 93.5
c64.75 0 109.25 -38.25 109.25 -93.5c0 -37.5703 -20.9004 -67.5205 -54.2402 -82.251zM82.749 190.002c0 -43 33.75 -71.25 82.75 -71.25c48.75 0 82.5 28.25 82.5 71.25c0 41.25 -33 69.75 -82.5 69.75c-49.75 0 -82.75 -28.5 -82.75 -69.75zM165.499 -73.498
c59.5 0 98.5 34.25 98.5 83c0 51.25 -39 85 -98.5 85s-98.75 -33.75 -98.75 -85c0 -48.75 39.25 -83 98.75 -83z" />
    <glyph glyph-name="nine.sinf" horiz-adv-x="313" 
d="M153.25 284c71.25 0 124.249 -49.751 124.249 -117.751c0 -32.5 -14 -78.5 -40 -124.75l-76.75 -138.5h-30.75l77 139.5c6.48047 11.9404 12.2109 23.6406 17.2412 35.3809c-19.1904 -16.1104 -46.2402 -26.1299 -74.7402 -26.1299c-69.25 0 -120.75 48.5 -120.75 114.5
c0 68.5 52.25 117.75 124.5 117.75zM55.749 166.249c0 -54.25 42.25 -91.75 97.75 -91.75c55.25 0 97 37.5 97 91.75s-41.75 91.75 -97 91.75c-55.5 0 -97.75 -37.5 -97.75 -91.75z" />
    <glyph glyph-name="zero.tf" horiz-adv-x="549" 
d="M274.5 -10.5c-151.5 0 -247 133 -247 345c0 213 95.25 345 247 345c151.5 0 246.75 -132 246.75 -345c0 -212 -95.5 -345 -246.75 -345zM274.5 20c132.5 0 215.25 119.25 215.25 314.5s-82.75 314.5 -215.25 314.5c-132.75 0 -215.5 -119.25 -215.5 -314.5
s82.5 -314.5 215.5 -314.5z" />
    <glyph glyph-name="one.tf" horiz-adv-x="549" 
d="M307.5 29.5h175.25v-29.5h-392.75v29.5h186v606h-164.25v29.5h195.75v-635.5z" />
    <glyph glyph-name="two.tf" horiz-adv-x="549" 
d="M109.39 30.25h388.86v-30.25h-445.25v17.5c322.5 311 377.75 385.25 377.75 488c0 88.25 -64.5 146.25 -161.75 146.25c-98.75 0 -166.75 -60.5 -166.75 -146.5v-19.75h-31.25v19.75c0 104.5 81.75 177 198 177c115.5 0 193.25 -71.75 193.25 -176.75
c0 -107.52 -56.4404 -187.8 -352.86 -475.25z" />
    <glyph glyph-name="three.tf" horiz-adv-x="549" 
d="M265.75 408.75c128.75 -1 222 -93.25 222 -208c0 -123.25 -96.5 -211.25 -218.5 -211.25c-119.75 0 -209 80.75 -217.25 193.75h31c8 -96.25 82.75 -163.25 186.25 -163.25c107.5 0 187 78 187 181.5c0 101.5 -85 180 -197.75 180h-55.25v12l208.92 242h-333.67v29.5
h384.5v-12.5l-211.57 -243.75h14.3203z" />
    <glyph glyph-name="four.tf" horiz-adv-x="549" 
d="M509.75 179.75v-28.75h-84.25v-151h-30.25v151h-359v14l246.25 500h32.5l-238.86 -485.25h319.11v246.5h30.25v-246.5h84.25z" />
    <glyph glyph-name="five.tf" horiz-adv-x="549" 
d="M263.5 410c131.75 0 227.75 -94 227.75 -210.75c0 -122.25 -96.25 -209.75 -217.75 -209.75c-120.25 0 -210 81.25 -217.75 193.75h31.25c7.75 -96 83 -163.25 186.5 -163.25c106.75 0 186.25 77 186.25 179.25c0 102 -85 181.75 -197 181.75h-162.25l-8.75 8l30.25 276
h325.5v-29.25h-299.02l-24.7803 -225.75h139.8z" />
    <glyph glyph-name="six.tf" horiz-adv-x="549" 
d="M286.5 414.75c126.25 0 221.75 -90 221.75 -210.75c0 -124 -94.75 -213.75 -224.75 -213.75c-129.75 0 -225.25 90.5 -225.25 213.75c0 61 28 147 73.75 230.5l134.5 243.25h34.25c-135.97 -247.37 -154.06 -279.26 -173.13 -327c38.5801 39.7598 97.1602 64 158.88 64z
M283.25 20.75c111 0 193.5 78 193.5 183.25s-82.5 182.25 -193.5 182.25s-193.5 -77.25 -193.5 -182.25s82.5 -183.25 193.5 -183.25z" />
    <glyph glyph-name="seven.tf" horiz-adv-x="549" 
d="M57.75 665h432.75v-10.5l-274.5 -654.5h-34.25l268.74 635.5h-392.74v29.5z" />
    <glyph glyph-name="eight.tf" horiz-adv-x="549" 
d="M356.75 362.98c86.79 -23.5195 142.001 -90.5898 142.001 -180.729c0 -113.5 -91.25 -192.75 -224.5 -192.75c-133.75 0 -224.25 78.5 -224.25 192.75c0 89.8398 55.46 156.82 142.81 180.73c-69.2002 22.6396 -113.061 79.5 -113.061 154.02
c0 98 78 165.25 194.5 165.25s194.25 -67 194.25 -165.25c0 -74.7305 -43.54 -131.811 -111.75 -154.021zM110.751 517c0 -84.5 66 -141 163.5 -141s163.5 56.5 163.5 141c0 81.5 -65.25 137.25 -163.5 137.25s-163.5 -55.75 -163.5 -137.25zM274.251 18.25
c115.75 0 193 66.75 193 163.25c0 100.25 -77.25 166.25 -193 166.25s-193 -66 -193 -166.25c0 -96.5 77.25 -163.25 193 -163.25z" />
    <glyph glyph-name="nine.tf" horiz-adv-x="549" 
d="M265.5 680c129.75 0 225.25 -90.5 225.25 -213.75c0 -61 -27.25 -146.75 -73.75 -230.5l-134.5 -243.25h-34.25c135.72 246.92 153.989 279.32 173.029 326.82c-38.71 -39.9102 -97.2598 -63.8203 -158.779 -63.8203c-123.75 0 -222 88.25 -222 210.75
c0 124 95 213.75 225 213.75zM265.75 284c111 0 193.75 77.25 193.75 182.25s-82.75 183.25 -193.75 183.25s-193.75 -78 -193.75 -183.25s82.75 -182.25 193.75 -182.25z" />
    <glyph glyph-name="zero.dnom" horiz-adv-x="357" 
d="M178.5 -8c-85.25 0 -137.25 74.75 -137.25 191.25c0 118.25 52 191 137.25 191s137.25 -72.75 137.25 -191c0 -116.5 -52 -191.25 -137.25 -191.25zM178.5 19.25c67.75 0 109.75 61.75 109.75 164c0 103 -41.25 163.75 -109.75 163.75s-109.5 -60.75 -109.5 -163.75
c0 -102 41.5 -164 109.5 -164z" />
    <glyph glyph-name="one.dnom" horiz-adv-x="184" 
d="M21.75 366.5h100.5v-366.5h-26.75v342h-73.75v24.5z" />
    <glyph glyph-name="two.dnom" horiz-adv-x="304" 
d="M85.5 26.5h184.75v-26.5h-236.25v10.25c175 177.5 194.5 210.5 194.5 262c0 45.25 -32 76.5 -79.75 76.5c-48.25 0 -82 -32.25 -82 -76.75v-10.25h-27v10.25c0 60 45.25 102.25 108.75 102.25c63.25 0 107.5 -42 107.5 -102c0 -58.25 -28.5098 -100.33 -170.5 -245.75z
" />
    <glyph glyph-name="three.dnom" horiz-adv-x="309" 
d="M153.25 227c69.5 -1.5 120 -52 120 -116.75c0 -69.5 -53 -118 -119.5 -118c-66.25 0 -114.25 45.75 -119.25 109h26.75c5 -48.75 42.25 -83 92.5 -83c53.25 0 92.5 39.25 92.5 92.75c0 52.5 -42.75 92.25 -99 92.25h-41v8.5l109.93 129.5h-167.43v25.25h210.5v-8.25
l-112.47 -131.25h6.46973z" />
    <glyph glyph-name="four.dnom" horiz-adv-x="316" 
d="M288.5 105.25v-25h-43.25v-80.25h-26.5v80.25h-193.25v11.5l134.5 274.75h28l-128.6 -261.25h159.51l3.33984 129h23v-129h43.25z" />
    <glyph glyph-name="five.dnom" horiz-adv-x="301" 
d="M146 221.75c70.75 0 121.5 -49.75 121.5 -114.5c0 -67 -51 -115 -116 -115c-64.75 0 -113.25 43.75 -116.25 106.75h27c4 -48 39.25 -81 89.25 -81c51.25 0 88.75 37.75 88.75 89.25c0 51.75 -40.25 89.75 -94.5 89.75h-91.75l-5.5 6.25l18.75 163.25h176.5v-25.25
h-153.87l-13.6797 -119.5h69.7998z" />
    <glyph glyph-name="six.dnom" horiz-adv-x="313" 
d="M163.25 224.5c69.25 0 120.749 -48.501 120.749 -114.501c0 -68.5 -52.25 -117.75 -124.5 -117.75c-71.25 0 -124.25 49.75 -124.25 117.75c0 32.5 14.75 78.5 40 124.75l76.75 138.5h30.75l-77 -139.5c-6.54004 -12.0596 -12.3203 -23.8594 -17.3799 -35.709
c19.1904 16.2598 46.3105 26.46 74.8809 26.46zM159.249 18.249c55.5 0 97.75 37.5 97.75 91.75c0 54 -42.25 91.75 -97.75 91.75c-55.25 0 -97 -37.75 -97 -91.75c0 -54.25 41.75 -91.75 97 -91.75z" />
    <glyph glyph-name="seven.dnom" horiz-adv-x="283" 
d="M24 366.5h237.75v-5.5l-147 -361h-28.5l139.6 341.25h-201.85v25.25z" />
    <glyph glyph-name="eight.dnom" horiz-adv-x="331" 
d="M220.51 198.75c43.8203 -15.8203 70.4893 -50.8086 70.4893 -98.499c0 -64 -51.75 -108 -125.75 -108s-125.5 44 -125.5 108c0 48.0596 26.2305 83.2197 70.7109 98.2695c-33.4199 14.8701 -54.46 44.6104 -54.46 82.4805c0 55.25 44.5 93.5 109.5 93.5
c64.75 0 109.25 -38.25 109.25 -93.5c0 -37.5703 -20.9004 -67.5205 -54.2402 -82.251zM82.749 280.752c0 -43 33.75 -71.25 82.75 -71.25c48.75 0 82.5 28.25 82.5 71.25c0 41.25 -33 69.75 -82.5 69.75c-49.75 0 -82.75 -28.5 -82.75 -69.75zM165.499 17.252
c59.5 0 98.5 34.25 98.5 83c0 51.25 -39 85 -98.5 85s-98.75 -33.75 -98.75 -85c0 -48.75 39.25 -83 98.75 -83z" />
    <glyph glyph-name="nine.dnom" horiz-adv-x="313" 
d="M153.25 374.25c71.25 0 124.249 -49.751 124.249 -117.751c0 -32.5 -14 -78.5 -40 -124.75l-76.75 -138.5h-30.75l77 139.5c6.48047 11.9404 12.2109 23.6406 17.2412 35.3809c-19.1904 -16.1104 -46.2402 -26.1299 -74.7402 -26.1299
c-69.25 0 -120.75 48.5 -120.75 114.5c0 68.5 52.25 117.75 124.5 117.75zM55.749 256.499c0 -54.25 42.25 -91.75 97.75 -91.75c55.25 0 97 37.5 97 91.75s-41.75 91.75 -97 91.75c-55.5 0 -97.75 -37.5 -97.75 -91.75z" />
    <glyph glyph-name="zero.numr" horiz-adv-x="357" 
d="M178.5 325.75c-85.25 0 -137.25 74.75 -137.25 191.25c0 118.25 52 191 137.25 191s137.25 -72.75 137.25 -191c0 -116.5 -52 -191.25 -137.25 -191.25zM178.5 353c67.75 0 109.75 61.75 109.75 164c0 103 -41.25 163.75 -109.75 163.75s-109.5 -60.75 -109.5 -163.75
c0 -102 41.5 -164 109.5 -164z" />
    <glyph glyph-name="one.numr" horiz-adv-x="184" 
d="M21 700h100.5v-366.5h-26.75v342h-73.75v24.5z" />
    <glyph glyph-name="two.numr" horiz-adv-x="304" 
d="M85.5 360.25h184.75v-26.5h-236.25v10.25c175 177.5 194.5 210.5 194.5 262c0 45.25 -32 76.5 -79.75 76.5c-48.25 0 -82 -32.25 -82 -76.75v-10.25h-27v10.25c0 60 45.25 102.25 108.75 102.25c63.25 0 107.5 -42 107.5 -102c0 -58.25 -28.5098 -100.33 -170.5 -245.75z
" />
    <glyph glyph-name="three.numr" horiz-adv-x="309" 
d="M153.25 560.5c69.5 -1.5 120 -52 120 -116.75c0 -69.5 -53 -118 -119.5 -118c-66.25 0 -114.25 45.75 -119.25 109h26.75c5 -48.75 42.25 -83 92.5 -83c53.25 0 92.5 39.25 92.5 92.75c0 52.5 -42.75 92.25 -99 92.25h-41v8.5l109.93 129.5h-167.43v25.25h210.5v-8.25
l-112.47 -131.25h6.46973z" />
    <glyph glyph-name="four.numr" horiz-adv-x="316" 
d="M288.5 438.75v-25h-43.25v-80.25h-26.5v80.25h-193.25v11.5l134.5 274.75h28l-128.6 -261.25h159.51l3.33984 129h23v-129h43.25z" />
    <glyph glyph-name="five.numr" horiz-adv-x="301" 
d="M146 555.25c70.75 0 121.5 -49.75 121.5 -114.5c0 -67 -51 -115 -116 -115c-64.75 0 -113.25 43.75 -116.25 106.75h27c4 -48 39.25 -81 89.25 -81c51.25 0 88.75 37.75 88.75 89.25c0 51.75 -40.25 89.75 -94.5 89.75h-91.75l-5.5 6.25l18.75 163.25h176.5v-25.25
h-153.87l-13.6797 -119.5h69.7998z" />
    <glyph glyph-name="six.numr" horiz-adv-x="313" 
d="M163.25 558c69.25 0 120.749 -48.501 120.749 -114.501c0 -68.5 -52.25 -117.75 -124.5 -117.75c-71.25 0 -124.25 49.75 -124.25 117.75c0 32.5 14.75 78.5 40 124.75l76.75 138.5h30.75l-77 -139.5c-6.54004 -12.0596 -12.3203 -23.8594 -17.3799 -35.709
c19.1904 16.2598 46.3105 26.46 74.8809 26.46zM159.249 351.749c55.5 0 97.75 37.5 97.75 91.75c0 54 -42.25 91.75 -97.75 91.75c-55.25 0 -97 -37.75 -97 -91.75c0 -54.25 41.75 -91.75 97 -91.75z" />
    <glyph glyph-name="seven.numr" horiz-adv-x="283" 
d="M23.25 700h237.75v-5.5l-147 -361h-28.5l139.6 341.25h-201.85v25.25z" />
    <glyph glyph-name="eight.numr" horiz-adv-x="331" 
d="M220.51 532.25c43.8203 -15.8203 70.4893 -50.8086 70.4893 -98.499c0 -64 -51.75 -108 -125.75 -108s-125.5 44 -125.5 108c0 48.0596 26.2305 83.2197 70.7109 98.2695c-33.4199 14.8701 -54.46 44.6104 -54.46 82.4805c0 55.25 44.5 93.5 109.5 93.5
c64.75 0 109.25 -38.25 109.25 -93.5c0 -37.5703 -20.9004 -67.5205 -54.2402 -82.251zM82.749 614.252c0 -43 33.75 -71.25 82.75 -71.25c48.75 0 82.5 28.25 82.5 71.25c0 41.25 -33 69.75 -82.5 69.75c-49.75 0 -82.75 -28.5 -82.75 -69.75zM165.499 350.752
c59.5 0 98.5 34.25 98.5 83c0 51.25 -39 85 -98.5 85s-98.75 -33.75 -98.75 -85c0 -48.75 39.25 -83 98.75 -83z" />
    <glyph glyph-name="nine.numr" horiz-adv-x="313" 
d="M153.25 708c71.25 0 124.249 -49.751 124.249 -117.751c0 -32.5 -14 -78.5 -40 -124.75l-76.75 -138.5h-30.75l77 139.5c6.48047 11.9502 12.2109 23.6406 17.2412 35.3809c-19.1904 -16.1104 -46.2402 -26.1299 -74.7402 -26.1299c-69.25 0 -120.75 48.5 -120.75 114.5
c0 68.5 52.25 117.75 124.5 117.75zM55.749 590.249c0 -54.25 42.25 -91.75 97.75 -91.75c55.25 0 97 37.5 97 91.75s-41.75 91.75 -97 91.75c-55.5 0 -97.75 -37.5 -97.75 -91.75z" />
    <glyph glyph-name="zero.sups" horiz-adv-x="357" 
d="M178.5 425.75c-85.25 0 -137.25 74.75 -137.25 191.25c0 118.25 52 191 137.25 191s137.25 -72.75 137.25 -191c0 -116.5 -52 -191.25 -137.25 -191.25zM178.5 453c67.75 0 109.75 61.75 109.75 164c0 103 -41.25 163.75 -109.75 163.75s-109.5 -60.75 -109.5 -163.75
c0 -102 41.5 -164 109.5 -164z" />
    <glyph glyph-name="one.sups" horiz-adv-x="184" 
d="M21.75 800h100.5v-366.5h-26.75v342h-73.75v24.5z" />
    <glyph glyph-name="two.sups" horiz-adv-x="304" 
d="M85.5 460.25h184.75v-26.5h-236.25v10.25c175 177.5 194.5 210.5 194.5 262c0 45.25 -32 76.5 -79.75 76.5c-48.25 0 -82 -32.25 -82 -76.75v-10.25h-27v10.25c0 60 45.25 102.25 108.75 102.25c63.25 0 107.5 -42 107.5 -102c0 -58.25 -28.5098 -100.33 -170.5 -245.75z
" />
    <glyph glyph-name="three.sups" horiz-adv-x="309" 
d="M153.25 660.5c69.5 -1.5 120 -52 120 -116.75c0 -69.5 -53 -118 -119.5 -118c-66.25 0 -114.25 45.75 -119.25 109h26.75c5 -48.75 42.25 -83 92.5 -83c53.25 0 92.5 39.25 92.5 92.75c0 52.5 -42.75 92.25 -99 92.25h-41v8.5l109.93 129.5h-167.43v25.25h210.5v-8.25
l-112.47 -131.25h6.46973z" />
    <glyph glyph-name="four.sups" horiz-adv-x="316" 
d="M288.25 538.75v-25h-43.25v-80.25h-26.5v80.25h-193.25v11.5l134.5 274.75h28l-128.6 -261.25h159.51l3.33984 129h23v-129h43.25z" />
    <glyph glyph-name="five.sups" horiz-adv-x="301" 
d="M146 655.25c70.75 0 121.5 -49.75 121.5 -114.5c0 -67 -51 -115 -116 -115c-64.75 0 -113.25 43.75 -116.25 106.75h27c4 -48 39.25 -81 89.25 -81c51.25 0 88.75 37.75 88.75 89.25c0 51.75 -40.25 89.75 -94.5 89.75h-91.75l-5.5 6.25l18.75 163.25h176.5v-25.25
h-153.87l-13.6797 -119.5h69.7998z" />
    <glyph glyph-name="six.sups" horiz-adv-x="313" 
d="M163.25 658c69.25 0 120.749 -48.501 120.749 -114.501c0 -68.5 -52.25 -117.75 -124.5 -117.75c-71.25 0 -124.25 49.75 -124.25 117.75c0 32.5 14.75 78.5 40 124.75l76.75 138.5h30.75l-77 -139.5c-6.54004 -12.0596 -12.3203 -23.8594 -17.3799 -35.709
c19.1904 16.2598 46.3105 26.46 74.8809 26.46zM159.249 451.749c55.5 0 97.75 37.5 97.75 91.75c0 54 -42.25 91.75 -97.75 91.75c-55.25 0 -97 -37.75 -97 -91.75c0 -54.25 41.75 -91.75 97 -91.75z" />
    <glyph glyph-name="seven.sups" horiz-adv-x="283" 
d="M23.25 800h237.75v-5.5l-147 -361h-28.5l139.6 341.25h-201.85v25.25z" />
    <glyph glyph-name="eight.sups" horiz-adv-x="331" 
d="M220.51 632.25c43.8203 -15.8203 70.4893 -50.8086 70.4893 -98.499c0 -64 -51.75 -108 -125.75 -108s-125.5 44 -125.5 108c0 48.0596 26.2305 83.2197 70.7109 98.2695c-33.4199 14.8701 -54.46 44.6104 -54.46 82.4805c0 55.25 44.5 93.5 109.5 93.5
c64.75 0 109.25 -38.25 109.25 -93.5c0 -37.5703 -20.9004 -67.5205 -54.2402 -82.251zM82.749 714.252c0 -43 33.75 -71.25 82.75 -71.25c48.75 0 82.5 28.25 82.5 71.25c0 41.25 -33 69.75 -82.5 69.75c-49.75 0 -82.75 -28.5 -82.75 -69.75zM165.499 450.752
c59.5 0 98.5 34.25 98.5 83c0 51.25 -39 85 -98.5 85s-98.75 -33.75 -98.75 -85c0 -48.75 39.25 -83 98.75 -83z" />
    <glyph glyph-name="nine.sups" horiz-adv-x="313" 
d="M153.25 808c71.25 0 124.249 -49.751 124.249 -117.751c0 -32.5 -14 -78.5 -40 -124.75l-76.75 -138.5h-30.75l77 139.5c6.48047 11.9502 12.2109 23.6406 17.2412 35.3809c-19.1904 -16.1104 -46.2402 -26.1299 -74.7402 -26.1299c-69.25 0 -120.75 48.5 -120.75 114.5
c0 68.5 52.25 117.75 124.5 117.75zM55.749 690.249c0 -54.25 42.25 -91.75 97.75 -91.75c55.25 0 97 37.5 97 91.75s-41.75 91.75 -97 91.75c-55.5 0 -97.75 -37.5 -97.75 -91.75z" />
    <glyph glyph-name="fraction" unicode="&#x2044;" horiz-adv-x="145" 
d="M-143 -30l404.75 760h28.25l-404.75 -760h-28.25z" />
    <glyph glyph-name="uni215F" unicode="&#x215f;" horiz-adv-x="329" 
d="M445.25 730h28.25l-404.75 -760h-28.25zM94.75 333.5v342h-73.75v24.5h100.5v-366.5h-26.75z" />
    <glyph glyph-name="onehalf" unicode="&#xbd;" horiz-adv-x="632" 
d="M445.25 730h28.25l-404.75 -760h-28.25zM94.75 333.5v342h-73.75v24.5h100.5v-366.5h-26.75zM414 26.5h184.75v-26.5h-236.25v10.25c175 177.5 194.5 210.5 194.5 262c0 45.25 -32 76.5 -79.75 76.5c-48.25 0 -82 -32.25 -82 -76.75v-10.25h-27v10.25
c0 60 45.25 102.25 108.75 102.25c63.25 0 107.5 -42 107.5 -102c0 -58.25 -28.5098 -100.33 -170.5 -245.75z" />
    <glyph glyph-name="uni2189" unicode="&#x2189;" horiz-adv-x="811" 
d="M618.75 730h28.25l-404.75 -760h-28.25zM315.75 517c0 -116.5 -52 -191.25 -137.25 -191.25s-137.25 74.75 -137.25 191.25c0 118.25 52 191 137.25 191s137.25 -72.75 137.25 -191zM178.5 353c67.75 0 109.75 61.75 109.75 164c0 103 -41.25 163.75 -109.75 163.75
s-109.5 -60.75 -109.5 -163.75c0 -102 41.5 -164 109.5 -164zM655.25 227c69.5 -1.5 120 -52 120 -116.75c0 -69.5 -53 -118 -119.5 -118c-66.25 0 -114.25 45.75 -119.25 109h26.75c5 -48.75 42.25 -83 92.5 -83c53.25 0 92.5 39.25 92.5 92.75
c0 52.5 -42.75 92.25 -99 92.25h-41v8.5l109.93 129.5h-167.43v25.25h210.5v-8.25l-112.47 -131.25h6.46973z" />
    <glyph glyph-name="uni2153" unicode="&#x2153;" horiz-adv-x="638" 
d="M445.25 730h28.25l-404.75 -760h-28.25zM94.75 333.5v342h-73.75v24.5h100.5v-366.5h-26.75zM481.75 227c69.5 -1.5 120 -52 120 -116.75c0 -69.5 -53 -118 -119.5 -118c-66.25 0 -114.25 45.75 -119.25 109h26.75c5 -48.75 42.25 -83 92.5 -83
c53.25 0 92.5 39.25 92.5 92.75c0 52.5 -42.75 92.25 -99 92.25h-41v8.5l109.93 129.5h-167.43v25.25h210.5v-8.25l-112.47 -131.25h6.46973z" />
    <glyph glyph-name="uni2154" unicode="&#x2154;" horiz-adv-x="758" 
d="M565.25 730h28.25l-404.75 -760h-28.25zM270.25 360.25v-26.5h-236.25v10.25c175 177.5 194.5 210.5 194.5 262c0 45.25 -32 76.5 -79.75 76.5c-48.25 0 -82 -32.25 -82 -76.75v-10.25h-27v10.25c0 60 45.25 102.25 108.75 102.25c63.25 0 107.5 -42 107.5 -102
c0 -58.25 -28.5098 -100.33 -170.5 -245.75h184.75zM601.75 227c69.5 -1.5 120 -52 120 -116.75c0 -69.5 -53 -118 -119.5 -118c-66.25 0 -114.25 45.75 -119.25 109h26.75c5 -48.75 42.25 -83 92.5 -83c53.25 0 92.5 39.25 92.5 92.75c0 52.5 -42.75 92.25 -99 92.25h-41
v8.5l109.93 129.5h-167.43v25.25h210.5v-8.25l-112.47 -131.25h6.46973z" />
    <glyph glyph-name="onequarter" unicode="&#xbc;" horiz-adv-x="614" 
d="M445.25 730h28.25l-404.75 -760h-28.25zM94.75 333.5v342h-73.75v24.5h100.5v-366.5h-26.75zM586 105.25v-25h-43.25v-80.25h-26.5v80.25h-193.25v11.5l134.5 274.75h28l-128.6 -261.25h159.51l3.33984 129h23v-129h43.25z" />
    <glyph glyph-name="threequarters" unicode="&#xbe;" horiz-adv-x="739" 
d="M571 730h28.25l-404.75 -760h-28.25zM273.25 443.75c0 -69.5 -53 -118 -119.5 -118c-66.25 0 -114.25 45.75 -119.25 109h26.75c5 -48.75 42.25 -83 92.5 -83c53.25 0 92.5 39.25 92.5 92.75c0 52.5 -42.75 92.25 -99 92.25h-41v8.5l109.93 129.5h-167.43v25.25h210.5
v-8.25l-112.47 -131.25h6.46973c69.5 -1.5 120 -52 120 -116.75zM711.75 105.25v-25h-43.25v-80.25h-26.5v80.25h-193.25v11.5l134.5 274.75h28l-128.6 -261.25h159.51l3.33984 129h23v-129h43.25z" />
    <glyph glyph-name="uni2155" unicode="&#x2155;" horiz-adv-x="630" 
d="M445.25 730h28.25l-404.75 -760h-28.25zM94.75 333.5v342h-73.75v24.5h100.5v-366.5h-26.75zM474.5 221.75c70.75 0 121.5 -49.75 121.5 -114.5c0 -67 -51 -115 -116 -115c-64.75 0 -113.25 43.75 -116.25 106.75h27c4 -48 39.25 -81 89.25 -81
c51.25 0 88.75 37.75 88.75 89.25c0 51.75 -40.25 89.75 -94.5 89.75h-91.75l-5.5 6.25l18.75 163.25h176.5v-25.25h-153.87l-13.6797 -119.5h69.7998z" />
    <glyph glyph-name="uni2156" unicode="&#x2156;" horiz-adv-x="750" 
d="M565.25 730h28.25l-404.75 -760h-28.25zM270.25 360.25v-26.5h-236.25v10.25c175 177.5 194.5 210.5 194.5 262c0 45.25 -32 76.5 -79.75 76.5c-48.25 0 -82 -32.25 -82 -76.75v-10.25h-27v10.25c0 60 45.25 102.25 108.75 102.25c63.25 0 107.5 -42 107.5 -102
c0 -58.25 -28.5098 -100.33 -170.5 -245.75h184.75zM594.5 221.75c70.75 0 121.5 -49.75 121.5 -114.5c0 -67 -51 -115 -116 -115c-64.75 0 -113.25 43.75 -116.25 106.75h27c4 -48 39.25 -81 89.25 -81c51.25 0 88.75 37.75 88.75 89.25c0 51.75 -40.25 89.75 -94.5 89.75
h-91.75l-5.5 6.25l18.75 163.25h176.5v-25.25h-153.87l-13.6797 -119.5h69.7998z" />
    <glyph glyph-name="uni2157" unicode="&#x2157;" horiz-adv-x="756" 
d="M571 730h28.25l-404.75 -760h-28.25zM273.25 443.75c0 -69.5 -53 -118 -119.5 -118c-66.25 0 -114.25 45.75 -119.25 109h26.75c5 -48.75 42.25 -83 92.5 -83c53.25 0 92.5 39.25 92.5 92.75c0 52.5 -42.75 92.25 -99 92.25h-41v8.5l109.93 129.5h-167.43v25.25h210.5
v-8.25l-112.47 -131.25h6.46973c69.5 -1.5 120 -52 120 -116.75zM600.25 221.75c70.75 0 121.5 -49.75 121.5 -114.5c0 -67 -51 -115 -116 -115c-64.75 0 -113.25 43.75 -116.25 106.75h27c4 -48 39.25 -81 89.25 -81c51.25 0 88.75 37.75 88.75 89.25
c0 51.75 -40.25 89.75 -94.5 89.75h-91.75l-5.5 6.25l18.75 163.25h176.5v-25.25h-153.87l-13.6797 -119.5h69.7998z" />
    <glyph glyph-name="uni2158" unicode="&#x2158;" horiz-adv-x="762" 
d="M577.75 730h28.25l-404.75 -760h-28.25zM218.75 333.5v80.25h-193.25v11.5l134.5 274.75h28l-128.6 -261.25h159.51l3.33984 129h23v-129h43.25v-25h-43.25v-80.25h-26.5zM607 221.75c70.75 0 121.5 -49.75 121.5 -114.5c0 -67 -51 -115 -116 -115
c-64.75 0 -113.25 43.75 -116.25 106.75h27c4 -48 39.25 -81 89.25 -81c51.25 0 88.75 37.75 88.75 89.25c0 51.75 -40.25 89.75 -94.5 89.75h-91.75l-5.5 6.25l18.75 163.25h176.5v-25.25h-153.87l-13.6797 -119.5h69.7998z" />
    <glyph glyph-name="uni2159" unicode="&#x2159;" horiz-adv-x="616" 
d="M445.25 730h28.25l-404.75 -760h-28.25zM94.75 333.5v342h-73.75v24.5h100.5v-366.5h-26.75zM466.75 224.5c69.25 0 120.749 -48.501 120.749 -114.501c0 -68.5 -52.25 -117.75 -124.5 -117.75c-71.25 0 -124.25 49.75 -124.25 117.75c0 32.5 14.75 78.5 40 124.75
l76.75 138.5h30.75l-77 -139.5c-6.54004 -12.0596 -12.3203 -23.8594 -17.3799 -35.709c19.1904 16.2598 46.3105 26.46 74.8809 26.46zM462.749 18.249c55.5 0 97.75 37.5 97.75 91.75c0 54 -42.25 91.75 -97.75 91.75c-55.25 0 -97 -37.75 -97 -91.75
c0 -54.25 41.75 -91.75 97 -91.75z" />
    <glyph glyph-name="uni215A" unicode="&#x215a;" horiz-adv-x="734" 
d="M563 730h28.25l-404.75 -760h-28.25zM267.5 440.75c0 -67 -51 -115 -116 -115c-64.75 0 -113.25 43.75 -116.25 106.75h27c4 -48 39.25 -81 89.25 -81c51.25 0 88.75 37.75 88.75 89.25c0 51.75 -40.25 89.75 -94.5 89.75h-91.75l-5.5 6.25l18.75 163.25h176.5v-25.25
h-153.87l-13.6797 -119.5h69.7998c70.75 0 121.5 -49.75 121.5 -114.5zM584.5 224.5c69.25 0 120.749 -48.501 120.749 -114.501c0 -68.5 -52.25 -117.75 -124.5 -117.75c-71.25 0 -124.25 49.75 -124.25 117.75c0 32.5 14.75 78.5 40 124.75l76.75 138.5h30.75l-77 -139.5
c-6.54004 -12.0596 -12.3203 -23.8594 -17.3799 -35.709c19.1904 16.2598 46.3105 26.46 74.8809 26.46zM580.499 18.249c55.5 0 97.75 37.5 97.75 91.75c0 54 -42.25 91.75 -97.75 91.75c-55.25 0 -97 -37.75 -97 -91.75c0 -54.25 41.75 -91.75 97 -91.75z" />
    <glyph glyph-name="uni2150" unicode="&#x2150;" horiz-adv-x="612" 
d="M445.25 730h28.25l-404.75 -760h-28.25zM94.75 333.5v342h-73.75v24.5h100.5v-366.5h-26.75zM352.5 366.5h237.75v-5.5l-147 -361h-28.5l139.6 341.25h-201.85v25.25z" />
    <glyph glyph-name="oneeighth" unicode="&#x215b;" horiz-adv-x="659" 
d="M445.25 730h28.25l-404.75 -760h-28.25zM94.75 333.5v342h-73.75v24.5h100.5v-366.5h-26.75zM549.01 198.75c43.8203 -15.8203 70.4893 -50.8086 70.4893 -98.499c0 -64 -51.75 -108 -125.75 -108s-125.5 44 -125.5 108c0 48.0596 26.2305 83.2197 70.7109 98.2695
c-33.4199 14.8701 -54.46 44.6104 -54.46 82.4805c0 55.25 44.5 93.5 109.5 93.5c64.75 0 109.25 -38.25 109.25 -93.5c0 -37.5703 -20.9004 -67.5205 -54.2402 -82.251zM411.249 280.752c0 -43 33.75 -71.25 82.75 -71.25c48.75 0 82.5 28.25 82.5 71.25
c0 41.25 -33 69.75 -82.5 69.75c-49.75 0 -82.75 -28.5 -82.75 -69.75zM493.999 17.252c59.5 0 98.5 34.25 98.5 83c0 51.25 -39 85 -98.5 85s-98.75 -33.75 -98.75 -85c0 -48.75 39.25 -83 98.75 -83z" />
    <glyph glyph-name="threeeighths" unicode="&#x215c;" horiz-adv-x="785" 
d="M571 730h28.25l-404.75 -760h-28.25zM273.25 443.75c0 -69.5 -53 -118 -119.5 -118c-66.25 0 -114.25 45.75 -119.25 109h26.75c5 -48.75 42.25 -83 92.5 -83c53.25 0 92.5 39.25 92.5 92.75c0 52.5 -42.75 92.25 -99 92.25h-41v8.5l109.93 129.5h-167.43v25.25h210.5
v-8.25l-112.47 -131.25h6.46973c69.5 -1.5 120 -52 120 -116.75zM674.76 198.75c43.8203 -15.8203 70.4893 -50.8086 70.4893 -98.499c0 -64 -51.75 -108 -125.75 -108s-125.5 44 -125.5 108c0 48.0596 26.2305 83.2197 70.7109 98.2695
c-33.4199 14.8701 -54.46 44.6104 -54.46 82.4805c0 55.25 44.5 93.5 109.5 93.5c64.75 0 109.25 -38.25 109.25 -93.5c0 -37.5703 -20.9004 -67.5205 -54.2402 -82.251zM536.999 280.752c0 -43 33.75 -71.25 82.75 -71.25c48.75 0 82.5 28.25 82.5 71.25
c0 41.25 -33 69.75 -82.5 69.75c-49.75 0 -82.75 -28.5 -82.75 -69.75zM619.749 17.252c59.5 0 98.5 34.25 98.5 83c0 51.25 -39 85 -98.5 85s-98.75 -33.75 -98.75 -85c0 -48.75 39.25 -83 98.75 -83z" />
    <glyph glyph-name="fiveeighths" unicode="&#x215d;" horiz-adv-x="777" 
d="M563 730h28.25l-404.75 -760h-28.25zM267.5 440.75c0 -67 -51 -115 -116 -115c-64.75 0 -113.25 43.75 -116.25 106.75h27c4 -48 39.25 -81 89.25 -81c51.25 0 88.75 37.75 88.75 89.25c0 51.75 -40.25 89.75 -94.5 89.75h-91.75l-5.5 6.25l18.75 163.25h176.5v-25.25
h-153.87l-13.6797 -119.5h69.7998c70.75 0 121.5 -49.75 121.5 -114.5zM666.76 198.75c43.8203 -15.8203 70.4893 -50.8086 70.4893 -98.499c0 -64 -51.75 -108 -125.75 -108s-125.5 44 -125.5 108c0 48.0596 26.2305 83.2197 70.7109 98.2695
c-33.4199 14.8701 -54.46 44.6104 -54.46 82.4805c0 55.25 44.5 93.5 109.5 93.5c64.75 0 109.25 -38.25 109.25 -93.5c0 -37.5703 -20.9004 -67.5205 -54.2402 -82.251zM528.999 280.752c0 -43 33.75 -71.25 82.75 -71.25c48.75 0 82.5 28.25 82.5 71.25
c0 41.25 -33 69.75 -82.5 69.75c-49.75 0 -82.75 -28.5 -82.75 -69.75zM611.749 17.252c59.5 0 98.5 34.25 98.5 83c0 51.25 -39 85 -98.5 85s-98.75 -33.75 -98.75 -85c0 -48.75 39.25 -83 98.75 -83z" />
    <glyph glyph-name="seveneighths" unicode="&#x215e;" horiz-adv-x="717" 
d="M502.75 730h28.25l-404.75 -760h-28.25zM114 333.5h-28.5l139.6 341.25h-201.85v25.25h237.75v-5.5zM606.51 198.75c43.8203 -15.8203 70.4893 -50.8086 70.4893 -98.499c0 -64 -51.75 -108 -125.75 -108s-125.5 44 -125.5 108
c0 48.0596 26.2305 83.2197 70.7109 98.2695c-33.4199 14.8701 -54.46 44.6104 -54.46 82.4805c0 55.25 44.5 93.5 109.5 93.5c64.75 0 109.25 -38.25 109.25 -93.5c0 -37.5703 -20.9004 -67.5205 -54.2402 -82.251zM468.749 280.752c0 -43 33.75 -71.25 82.75 -71.25
c48.75 0 82.5 28.25 82.5 71.25c0 41.25 -33 69.75 -82.5 69.75c-49.75 0 -82.75 -28.5 -82.75 -69.75zM551.499 17.252c59.5 0 98.5 34.25 98.5 83c0 51.25 -39 85 -98.5 85s-98.75 -33.75 -98.75 -85c0 -48.75 39.25 -83 98.75 -83z" />
    <glyph glyph-name="uni2151" unicode="&#x2151;" horiz-adv-x="641" 
d="M445.25 730h28.25l-404.75 -760h-28.25zM94.75 333.5v342h-73.75v24.5h100.5v-366.5h-26.75zM481.75 374.25c71.25 0 124.25 -49.751 124.25 -117.751c0 -32.5 -14 -78.5 -40 -124.75l-76.75 -138.5h-30.75l77 139.5c6.46973 11.9404 12.21 23.6406 17.2402 35.3809
c-19.1904 -16.1104 -46.2402 -26.1299 -74.7402 -26.1299c-69.25 0 -120.75 48.5 -120.75 114.5c0 68.5 52.25 117.75 124.5 117.75zM384.25 256.499c0 -54.25 42.25 -91.75 97.75 -91.75c55.25 0 97 37.5 97 91.75s-41.75 91.75 -97 91.75
c-55.5 0 -97.75 -37.5 -97.75 -91.75z" />
    <glyph glyph-name="uni2152" unicode="&#x2152;" horiz-adv-x="869" 
d="M40.5 -30l404.75 760h28.25l-404.75 -760h-28.25zM94.75 333.5v342h-73.75v24.5h100.5v-366.5h-26.75zM690.5 374.25c85.25 0 137.25 -72.75 137.25 -191c0 -116.5 -52 -191.25 -137.25 -191.25s-137.25 74.75 -137.25 191.25c0 118.25 52 191 137.25 191zM350.25 342
v24.5h100.5v-366.5h-26.75v342h-73.75zM690.5 19.25c67.75 0 109.75 61.75 109.75 164c0 103 -41.25 163.75 -109.75 163.75s-109.5 -60.75 -109.5 -163.75c0 -102 41.5 -164 109.5 -164z" />
    <glyph glyph-name="period" unicode="." horiz-adv-x="185" 
d="M68 0v62.5h48.5v-62.5h-48.5z" />
    <glyph glyph-name="comma" unicode="," horiz-adv-x="195" 
d="M70.25 -108.25v26.75c24.25 16 32.5 36.25 32.5 81.5h-34.5v61.5h57.25v-57.25c0 -62.5 -15.75 -91 -55.25 -112.5z" />
    <glyph glyph-name="colon" unicode=":" horiz-adv-x="200" 
d="M75.75 390.5v62.5h48.5v-62.5h-48.5zM75.75 0v62.5h48.5v-62.5h-48.5z" />
    <glyph glyph-name="semicolon" unicode=";" horiz-adv-x="220" 
d="M82 390.75v62.5h48.5v-62.5h-48.5zM83.25 -108.25v26.75c24.25 16 32.5 36.25 32.5 81.5h-34.5v61.5h57.25v-57.25c0 -62.5 -15.75 -91 -55.25 -112.5z" />
    <glyph glyph-name="ellipsis" unicode="&#x2026;" horiz-adv-x="432" 
d="M68 0v62.5h48.5v-62.5h-48.5zM191.75 0v62.5h48.5v-62.5h-48.5zM315.5 0v62.5h48.5v-62.5h-48.5z" />
    <glyph glyph-name="exclam" unicode="!" horiz-adv-x="247" 
d="M107.5 170.25v549.75h32.25v-549.75h-32.25zM99.5 0v62.5h48.5v-62.5h-48.5z" />
    <glyph glyph-name="exclamdown" unicode="&#xa1;" horiz-adv-x="205" 
d="M126.75 540v-62.5h-48.5v62.5h48.5zM118.75 369.75v-549.75h-32.25v549.75h32.25z" />
    <glyph glyph-name="question" unicode="?" horiz-adv-x="492" 
d="M211.75 170.25v22c0 86.75 51.25 131.5 99.25 174.25c51.5 44.5 100.75 87.25 100.75 178c0 99.75 -70 165 -174.25 165c-96.5 0 -167.75 -58.25 -176.25 -149.25h-30.75c8.75 110 95.25 179.75 207 179.75c121 0 205.75 -76.5 205.75 -195.5
c0 -102.75 -55.25 -151.25 -108 -197c-46.5 -41.75 -91.5 -81 -91.5 -155.25v-22h-32zM203.5 0v62.5h48.5v-62.5h-48.5z" />
    <glyph glyph-name="questiondown" unicode="&#xbf;" horiz-adv-x="482" 
d="M280.75 540v-62.5h-48.5v62.5h48.5zM272.5 369.75v-22c0 -86.75 -51.25 -131.5 -99.25 -174.25c-51.5 -44.5 -100.75 -87.25 -100.75 -178c0 -99.75 70 -165 174.25 -165c96.5 0 167.75 58.25 176.25 149.25h30.75c-8.75 -110 -95.25 -179.75 -207 -179.75
c-121 0 -205.75 76.5 -205.75 195.5c0 102.75 55.25 151.25 108 197c46.5 41.75 91.5 81 91.5 155.25v22h32z" />
    <glyph glyph-name="periodcentered" unicode="&#xb7;" horiz-adv-x="200" 
d="M75.75 273v62.5h48.5v-62.5h-48.5z" />
    <glyph glyph-name="bullet" unicode="&#x2022;" horiz-adv-x="296" 
d="M147.75 239.25c-30.25 0 -53.75 23.5 -53.75 53.75c0 31.25 23.5 53.75 53.75 53.75c31.25 0 53.75 -22.5 53.75 -53.75c0 -30.25 -22.5 -53.75 -53.75 -53.75z" />
    <glyph glyph-name="asterisk" unicode="*" horiz-adv-x="375" 
d="M325 598.25l-116.94 -38.0596l75.1904 -103.44l-21 -16.5l-74.96 103.79l-77.04 -103.79l-20.5 16.5l76.0996 103.41l-115.85 38.0898l8 24.75l116 -37.9902v121.99h26.75v-121.77l116 37.7695z" />
    <glyph glyph-name="numbersign" unicode="#" horiz-adv-x="631" 
d="M592.5 459.5h-104.59l-29.4697 -197h111.06v-29h-115.93l-34.8203 -233.25h-30.25l33.6201 233.25h-254.39l-36.7305 -233.25h-30.25l36.4902 233.25h-98.4902v29h103.45l31.4297 197h-111.88v28.25h116.57l33.4297 212.25h30.25l-33.1904 -212.25h252.07l32.6201 212.25
h30.25l-31.6504 -212.25h100.4v-28.25zM427.03 262.5l29.2402 197h-252.25l-31.29 -197h254.3z" />
    <glyph glyph-name="slash" unicode="/" horiz-adv-x="380" 
d="M31.75 -58l281.25 819h33l-281 -819h-33.25z" />
    <glyph glyph-name="backslash" unicode="\" horiz-adv-x="380" 
d="M347.75 -58h-33.25l-281 819h33z" />
    <glyph glyph-name="bullet.case" horiz-adv-x="296" 
d="M148 309.25c-30.25 0 -53.75 23.5 -53.75 53.75c0 31.25 23.5 53.75 53.75 53.75c31.25 0 53.75 -22.5 53.75 -53.75c0 -30.25 -22.5 -53.75 -53.75 -53.75z" />
    <glyph glyph-name="parenleft" unicode="(" horiz-adv-x="260" 
d="M196.25 -119.25c-87.25 125.25 -140.5 283.75 -140.5 458.25c0 174.75 53.25 333.25 139.75 459.5h36.75c-89.25 -125.5 -144.75 -286.75 -144.75 -459.5c0 -171.75 55 -333.75 145.5 -458.25h-36.75z" />
    <glyph glyph-name="parenright" unicode=")" horiz-adv-x="260" 
d="M63.5 -119.25h-36.75c90.5 124.5 145.5 286.5 145.5 458.25c0 172.75 -55.5 334 -144.75 459.5h36.75c86.5 -126.25 139.75 -284.75 139.75 -459.5c0 -174.5 -53.25 -333 -140.5 -458.25z" />
    <glyph glyph-name="braceleft" unicode="{" horiz-adv-x="333" 
d="M226 -84.5l92.25 0.000976562v-29.25h-100.25c-61.5 0 -108.5 46 -108.5 108.5v258.75c0 38.25 -30.75 69 -70 69h-6.25v28.25h6.25c39.25 0 70 30.75 70 70v254.25c0 61.5 47 107.5 108.5 107.5h97.75v-29.25h-89.75c-49.25 0 -84.75 -35.5 -84.75 -84v-247.25
c0 -39.9199 -23.8896 -73.3799 -55.8193 -85.3604c31.6396 -11.9404 55.8193 -45.1807 55.8193 -84.3906v-252c0 -49 35.5 -84.75 84.75 -84.75z" />
    <glyph glyph-name="braceright" unicode="}" horiz-adv-x="333" 
d="M293.75 350.75l6.25 -0.000976562v-28.25h-6.25c-39.25 0 -70 -30.75 -70 -69v-258.75c0 -62.5 -47 -108.5 -108.5 -108.5h-100.25v29.25h92.25c49.25 0 84.75 35.75 84.75 84.75v252c0 39.21 24.1797 72.4502 55.8096 84.3906
c-31.9297 11.9805 -55.8096 45.4404 -55.8096 85.3604v247.25c0 48.5 -35.5 84 -84.75 84h-89.75v29.25h97.75c61.5 0 108.5 -46 108.5 -107.5v-254.25c0 -39.25 30.75 -70 70 -70z" />
    <glyph glyph-name="bracketleft" unicode="[" horiz-adv-x="324" 
d="M106.75 -118.5v906.75h199.25v-28.5h-168.75v-849.25h170.75v-29h-201.25z" />
    <glyph glyph-name="bracketright" unicode="]" horiz-adv-x="324" 
d="M217.25 -118.5h-201.25v29h170.75v849.25h-168.75v28.5h199.25v-906.75z" />
    <glyph glyph-name="parenleft.case" horiz-adv-x="248" 
d="M179.5 -114.25c-80.5 135.25 -121.5 299 -121.5 466c0 164.25 40.25 327.25 115.5 462h35.25c-72.25 -126.25 -119 -290.75 -119 -462c0 -176.5 48.25 -340.25 124.75 -466h-35z" />
    </font>
</defs>
</svg>
